%TF.GenerationSoftware,KiCad,Pcbnew,(5.1.8)-1*%
%TF.CreationDate,2021-03-14T21:45:14-06:00*%
%TF.ProjectId,Audio Card,41756469-6f20-4436-9172-642e6b696361,rev?*%
%TF.SameCoordinates,Original*%
%TF.FileFunction,Copper,L2,Bot*%
%TF.FilePolarity,Positive*%
%FSLAX46Y46*%
G04 Gerber Fmt 4.6, Leading zero omitted, Abs format (unit mm)*
G04 Created by KiCad (PCBNEW (5.1.8)-1) date 2021-03-14 21:45:14*
%MOMM*%
%LPD*%
G01*
G04 APERTURE LIST*
%TA.AperFunction,ComponentPad*%
%ADD10C,0.500000*%
%TD*%
%TA.AperFunction,ComponentPad*%
%ADD11O,1.700000X1.700000*%
%TD*%
%TA.AperFunction,ComponentPad*%
%ADD12R,1.700000X1.700000*%
%TD*%
%TA.AperFunction,ComponentPad*%
%ADD13O,1.700000X0.900000*%
%TD*%
%TA.AperFunction,ComponentPad*%
%ADD14O,2.400000X0.900000*%
%TD*%
%TA.AperFunction,ComponentPad*%
%ADD15C,0.700000*%
%TD*%
%TA.AperFunction,SMDPad,CuDef*%
%ADD16R,1.000000X2.650000*%
%TD*%
%TA.AperFunction,ComponentPad*%
%ADD17C,0.600000*%
%TD*%
%TA.AperFunction,ComponentPad*%
%ADD18C,4.200000*%
%TD*%
%TA.AperFunction,ComponentPad*%
%ADD19C,1.800000*%
%TD*%
%TA.AperFunction,ComponentPad*%
%ADD20O,1.800000X2.800000*%
%TD*%
%TA.AperFunction,ViaPad*%
%ADD21C,0.600000*%
%TD*%
%TA.AperFunction,ViaPad*%
%ADD22C,0.800000*%
%TD*%
%TA.AperFunction,ViaPad*%
%ADD23C,1.000000*%
%TD*%
%TA.AperFunction,Conductor*%
%ADD24C,0.500000*%
%TD*%
%TA.AperFunction,Conductor*%
%ADD25C,0.250000*%
%TD*%
%TA.AperFunction,Conductor*%
%ADD26C,0.254000*%
%TD*%
%TA.AperFunction,Conductor*%
%ADD27C,0.100000*%
%TD*%
G04 APERTURE END LIST*
%TO.P,U9,17*%
%TO.N,GND*%
%TA.AperFunction,SMDPad,CuDef*%
G36*
G01*
X176739200Y-58607600D02*
X176739200Y-57507600D01*
G75*
G02*
X176989200Y-57257600I250000J0D01*
G01*
X178089200Y-57257600D01*
G75*
G02*
X178339200Y-57507600I0J-250000D01*
G01*
X178339200Y-58607600D01*
G75*
G02*
X178089200Y-58857600I-250000J0D01*
G01*
X176989200Y-58857600D01*
G75*
G02*
X176739200Y-58607600I0J250000D01*
G01*
G37*
%TD.AperFunction*%
D10*
X178089200Y-58607600D03*
X176989200Y-58607600D03*
X178089200Y-57507600D03*
X176989200Y-57507600D03*
%TD*%
D11*
%TO.P,J6,3*%
%TO.N,/Headphone amp/ampInL*%
X201930000Y-89090500D03*
%TO.P,J6,2*%
%TO.N,GND*%
X201930000Y-91630500D03*
D12*
%TO.P,J6,1*%
%TO.N,/Headphone amp/ampInR*%
X201930000Y-94170500D03*
%TD*%
D13*
%TO.P,P1,S1*%
%TO.N,GND*%
X158200000Y-63180000D03*
X158200000Y-54530000D03*
D14*
X161580000Y-63180000D03*
X161580000Y-54530000D03*
D15*
%TO.P,P1,B6*%
%TO.N,N/C*%
X161210000Y-59280000D03*
%TO.P,P1,B1*%
%TO.N,GND*%
X161210000Y-61830000D03*
%TO.P,P1,B4*%
%TO.N,VIN*%
X161210000Y-60980000D03*
%TO.P,P1,B5*%
%TO.N,Net-(P1-PadB5)*%
X161210000Y-60130000D03*
%TO.P,P1,B12*%
%TO.N,GND*%
X161210000Y-55880000D03*
%TO.P,P1,B8*%
%TO.N,N/C*%
X161210000Y-57580000D03*
%TO.P,P1,B7*%
X161210000Y-58430000D03*
%TO.P,P1,B9*%
%TO.N,VIN*%
X161210000Y-56730000D03*
%TO.P,P1,A12*%
%TO.N,GND*%
X162560000Y-61830000D03*
%TO.P,P1,A9*%
%TO.N,VIN*%
X162560000Y-60980000D03*
%TO.P,P1,A8*%
%TO.N,N/C*%
X162560000Y-60130000D03*
%TO.P,P1,A7*%
%TO.N,D-*%
X162560000Y-59280000D03*
%TO.P,P1,A6*%
%TO.N,D+*%
X162560000Y-58430000D03*
%TO.P,P1,A5*%
%TO.N,Net-(P1-PadA5)*%
X162560000Y-57580000D03*
%TO.P,P1,A4*%
%TO.N,VIN*%
X162560000Y-56730000D03*
%TO.P,P1,A1*%
%TO.N,GND*%
X162560000Y-55880000D03*
%TD*%
D11*
%TO.P,J5,4*%
%TO.N,D-*%
X157480000Y-73660000D03*
%TO.P,J5,3*%
%TO.N,D+*%
X157480000Y-76200000D03*
%TO.P,J5,2*%
%TO.N,GND*%
X157480000Y-78740000D03*
D12*
%TO.P,J5,1*%
%TO.N,VOUT*%
X157480000Y-81280000D03*
%TD*%
D16*
%TO.P,U10,13*%
%TO.N,GND*%
X195884800Y-56976900D03*
D17*
X195884800Y-57976900D03*
X195884800Y-55976900D03*
X195884800Y-56976900D03*
%TD*%
D18*
%TO.P,RV1,*%
%TO.N,*%
X232579000Y-75275000D03*
X232579000Y-65775000D03*
D19*
%TO.P,RV1,4*%
%TO.N,Net-(C4-Pad2)*%
X235879000Y-73025000D03*
%TO.P,RV1,5*%
%TO.N,Net-(R10-Pad2)*%
X235879000Y-70525000D03*
%TO.P,RV1,6*%
%TO.N,GND*%
X235879000Y-68025000D03*
%TO.P,RV1,1*%
%TO.N,Net-(C2-Pad2)*%
X238379000Y-73025000D03*
%TO.P,RV1,2*%
%TO.N,Net-(R5-Pad2)*%
X238379000Y-70525000D03*
%TO.P,RV1,3*%
%TO.N,GND*%
X238379000Y-68025000D03*
%TD*%
D11*
%TO.P,J4,3*%
%TO.N,GND*%
X172847000Y-45847000D03*
%TO.P,J4,2*%
%TO.N,NTC_Therm*%
X170307000Y-45847000D03*
D12*
%TO.P,J4,1*%
%TO.N,+BATT*%
X167767000Y-45847000D03*
%TD*%
D11*
%TO.P,J3,3*%
%TO.N,ampOutL*%
X232664000Y-48958500D03*
%TO.P,J3,2*%
%TO.N,GND*%
X235204000Y-48958500D03*
D12*
%TO.P,J3,1*%
%TO.N,ampOutR*%
X237744000Y-48958500D03*
%TD*%
D20*
%TO.P,J2,R*%
%TO.N,/Headphone amp/ampInR*%
X235292000Y-85852000D03*
%TO.P,J2,T*%
%TO.N,/Headphone amp/ampInL*%
X240792000Y-85852000D03*
%TO.P,J2,S*%
%TO.N,GND*%
X243192000Y-83852000D03*
%TD*%
%TO.P,J1,R*%
%TO.N,ampOutR*%
X235178000Y-58515000D03*
%TO.P,J1,T*%
%TO.N,ampOutL*%
X240678000Y-58515000D03*
%TO.P,J1,S*%
%TO.N,GND*%
X243078000Y-56515000D03*
%TD*%
D21*
%TO.N,GND*%
X175895000Y-64262000D03*
X176149000Y-51435000D03*
X172847000Y-60833000D03*
X172847000Y-54292500D03*
X190881000Y-56959500D03*
D22*
X224917000Y-49784000D03*
X223710500Y-55181500D03*
X215328500Y-60833000D03*
X212915500Y-65405000D03*
X227584000Y-65341500D03*
X223329500Y-72834500D03*
%TO.N,/Headphone amp/+2V*%
X212725000Y-49530000D03*
X224282000Y-61785500D03*
X208089500Y-60833000D03*
X209931000Y-63309500D03*
%TO.N,VIN*%
X181165500Y-55816500D03*
D23*
%TO.N,VOUT*%
X181483000Y-58928000D03*
D22*
X173990000Y-63817500D03*
X199199500Y-62674500D03*
%TO.N,+BATT*%
X174879000Y-58039000D03*
X167767000Y-51308000D03*
D21*
%TO.N,/Headphone amp/-2V*%
X194437000Y-58801000D03*
D22*
X220091000Y-83629500D03*
X196659500Y-64897000D03*
X209550000Y-83693000D03*
%TO.N,Net-(R5-Pad2)*%
X217031000Y-52121500D03*
%TO.N,Net-(R22-Pad1)*%
X193421000Y-55951910D03*
X198501000Y-53340000D03*
%TD*%
D24*
%TO.N,GND*%
X177539200Y-62617800D02*
X175895000Y-64262000D01*
X177539200Y-58057600D02*
X177539200Y-62617800D01*
X177539200Y-52825200D02*
X176149000Y-51435000D01*
X177539200Y-58057600D02*
X177539200Y-52825200D01*
X174763800Y-60833000D02*
X172847000Y-60833000D01*
X177539200Y-58057600D02*
X174763800Y-60833000D01*
X177539200Y-58057600D02*
X177539200Y-57397200D01*
X177539200Y-58057600D02*
X177539200Y-58032200D01*
X173799500Y-54292500D02*
X172847000Y-54292500D01*
X177539200Y-58032200D02*
X173799500Y-54292500D01*
X190898400Y-56976900D02*
X190881000Y-56959500D01*
X195884800Y-56976900D02*
X190898400Y-56976900D01*
%TO.N,/Headphone amp/+2V*%
X212725000Y-50228500D02*
X224282000Y-61785500D01*
X212725000Y-49530000D02*
X212725000Y-50228500D01*
X208089500Y-60960000D02*
X208089500Y-60833000D01*
X209931000Y-62674500D02*
X208089500Y-60833000D01*
X209931000Y-63309500D02*
X209931000Y-62674500D01*
%TO.N,VIN*%
X180149500Y-56832500D02*
X181165500Y-55816500D01*
X180149500Y-62166500D02*
X180149500Y-56832500D01*
X177101500Y-65214500D02*
X180149500Y-62166500D01*
X170688000Y-65214500D02*
X177101500Y-65214500D01*
X165901000Y-60427500D02*
X170688000Y-65214500D01*
X165901000Y-57555500D02*
X165901000Y-60427500D01*
X165075500Y-56730000D02*
X165901000Y-57555500D01*
X162560000Y-56730000D02*
X165075500Y-56730000D01*
%TO.N,+BATT*%
X174879000Y-58039000D02*
X171640500Y-58039000D01*
X171640500Y-58039000D02*
X167767000Y-54165500D01*
X167767000Y-51308000D02*
X167767000Y-54165500D01*
%TO.N,/Headphone amp/-2V*%
X194437000Y-58801000D02*
X194437000Y-61964002D01*
X194437000Y-61964002D02*
X194437000Y-63563500D01*
X195770500Y-64897000D02*
X196659500Y-64897000D01*
X194437000Y-63563500D02*
X195770500Y-64897000D01*
X209613500Y-83629500D02*
X209550000Y-83693000D01*
X220091000Y-83629500D02*
X209613500Y-83629500D01*
%TO.N,ampOutL*%
X232664000Y-48958500D02*
X232664000Y-52324000D01*
X238855000Y-58515000D02*
X240678000Y-58515000D01*
X232664000Y-52324000D02*
X238855000Y-58515000D01*
%TO.N,/Headphone amp/ampInR*%
X201930000Y-94170500D02*
X213487000Y-94170500D01*
X235292000Y-85852000D02*
X235292000Y-87732500D01*
X228854000Y-94170500D02*
X213487000Y-94170500D01*
X235292000Y-87732500D02*
X228854000Y-94170500D01*
%TO.N,/Headphone amp/ampInL*%
X227076000Y-89090500D02*
X201930000Y-89090500D01*
X233362500Y-82804000D02*
X227076000Y-89090500D01*
X236918500Y-82804000D02*
X233362500Y-82804000D01*
X239966500Y-85852000D02*
X236918500Y-82804000D01*
X240792000Y-85852000D02*
X239966500Y-85852000D01*
%TO.N,Net-(R5-Pad2)*%
X239729001Y-67376999D02*
X239729001Y-69174999D01*
X239729001Y-69174999D02*
X238379000Y-70525000D01*
X225812501Y-55188001D02*
X225812501Y-57918501D01*
X222746000Y-52121500D02*
X225812501Y-55188001D01*
X217031000Y-52121500D02*
X222746000Y-52121500D01*
X230847749Y-62953749D02*
X225812501Y-57918501D01*
X235305751Y-62953749D02*
X230847749Y-62953749D01*
X235305751Y-62953749D02*
X239729001Y-67376999D01*
D25*
%TO.N,Net-(R22-Pad1)*%
X196032910Y-53340000D02*
X198501000Y-53340000D01*
X193421000Y-55951910D02*
X196032910Y-53340000D01*
%TD*%
D26*
%TO.N,VOUT*%
X201803000Y-64643000D02*
X197341189Y-64643000D01*
X197303759Y-64552636D01*
X197224198Y-64433564D01*
X197122936Y-64332302D01*
X197003864Y-64252741D01*
X196871558Y-64197938D01*
X196731103Y-64170000D01*
X196587897Y-64170000D01*
X196447442Y-64197938D01*
X196315136Y-64252741D01*
X196214475Y-64320000D01*
X196009501Y-64320000D01*
X195014000Y-63324499D01*
X195014000Y-59046429D01*
X195039905Y-58983889D01*
X195064000Y-58862754D01*
X195064000Y-58739246D01*
X195039905Y-58618111D01*
X194992640Y-58504004D01*
X194924023Y-58401311D01*
X194836689Y-58313977D01*
X194733996Y-58245360D01*
X194619889Y-58198095D01*
X194498754Y-58174000D01*
X194375246Y-58174000D01*
X194254111Y-58198095D01*
X194140004Y-58245360D01*
X194037311Y-58313977D01*
X193949977Y-58401311D01*
X193881360Y-58504004D01*
X193834095Y-58618111D01*
X193810000Y-58739246D01*
X193810000Y-58862754D01*
X193834095Y-58983889D01*
X193860000Y-59046429D01*
X193860001Y-61935657D01*
X193860000Y-61935667D01*
X193860001Y-63535159D01*
X193857210Y-63563500D01*
X193868349Y-63676611D01*
X193901344Y-63785376D01*
X193954922Y-63885615D01*
X193967817Y-63901327D01*
X194008963Y-63951464D01*
X194008966Y-63951467D01*
X194027027Y-63973474D01*
X194049034Y-63991535D01*
X194700499Y-64643000D01*
X178489001Y-64643000D01*
X180537463Y-62594538D01*
X180559474Y-62576474D01*
X180631579Y-62488615D01*
X180685157Y-62388376D01*
X180698704Y-62343718D01*
X180718151Y-62279612D01*
X180723863Y-62221614D01*
X180726500Y-62194836D01*
X180726500Y-62194831D01*
X180729290Y-62166500D01*
X180726500Y-62138169D01*
X180726500Y-57071501D01*
X180900255Y-56897746D01*
X190254000Y-56897746D01*
X190254000Y-57021254D01*
X190278095Y-57142389D01*
X190325360Y-57256496D01*
X190393977Y-57359189D01*
X190481311Y-57446523D01*
X190584004Y-57515140D01*
X190698111Y-57562405D01*
X190819246Y-57586500D01*
X190942754Y-57586500D01*
X191063889Y-57562405D01*
X191084422Y-57553900D01*
X195056218Y-57553900D01*
X195056218Y-58301900D01*
X195062532Y-58366003D01*
X195081230Y-58427643D01*
X195111594Y-58484450D01*
X195152457Y-58534243D01*
X195202250Y-58575106D01*
X195259057Y-58605470D01*
X195320697Y-58624168D01*
X195384800Y-58630482D01*
X196384800Y-58630482D01*
X196448903Y-58624168D01*
X196510543Y-58605470D01*
X196567350Y-58575106D01*
X196617143Y-58534243D01*
X196658006Y-58484450D01*
X196688370Y-58427643D01*
X196707068Y-58366003D01*
X196713382Y-58301900D01*
X196713382Y-55651900D01*
X196707068Y-55587797D01*
X196688370Y-55526157D01*
X196658006Y-55469350D01*
X196617143Y-55419557D01*
X196567350Y-55378694D01*
X196510543Y-55348330D01*
X196448903Y-55329632D01*
X196384800Y-55323318D01*
X195384800Y-55323318D01*
X195320697Y-55329632D01*
X195259057Y-55348330D01*
X195202250Y-55378694D01*
X195152457Y-55419557D01*
X195111594Y-55469350D01*
X195081230Y-55526157D01*
X195062532Y-55587797D01*
X195056218Y-55651900D01*
X195056218Y-56399900D01*
X193996019Y-56399900D01*
X194065259Y-56296274D01*
X194120062Y-56163968D01*
X194148000Y-56023513D01*
X194148000Y-55880307D01*
X194145317Y-55866817D01*
X196220134Y-53792000D01*
X197928661Y-53792000D01*
X197936302Y-53803436D01*
X198037564Y-53904698D01*
X198156636Y-53984259D01*
X198288942Y-54039062D01*
X198429397Y-54067000D01*
X198572603Y-54067000D01*
X198713058Y-54039062D01*
X198845364Y-53984259D01*
X198964436Y-53904698D01*
X199065698Y-53803436D01*
X199145259Y-53684364D01*
X199200062Y-53552058D01*
X199228000Y-53411603D01*
X199228000Y-53268397D01*
X199200062Y-53127942D01*
X199145259Y-52995636D01*
X199065698Y-52876564D01*
X198964436Y-52775302D01*
X198845364Y-52695741D01*
X198713058Y-52640938D01*
X198572603Y-52613000D01*
X198429397Y-52613000D01*
X198288942Y-52640938D01*
X198156636Y-52695741D01*
X198037564Y-52775302D01*
X197936302Y-52876564D01*
X197928661Y-52888000D01*
X196055115Y-52888000D01*
X196032910Y-52885813D01*
X195944302Y-52894540D01*
X195859100Y-52920386D01*
X195780577Y-52962357D01*
X195711751Y-53018841D01*
X195697591Y-53036095D01*
X193506093Y-55227593D01*
X193492603Y-55224910D01*
X193349397Y-55224910D01*
X193208942Y-55252848D01*
X193076636Y-55307651D01*
X192957564Y-55387212D01*
X192856302Y-55488474D01*
X192776741Y-55607546D01*
X192721938Y-55739852D01*
X192694000Y-55880307D01*
X192694000Y-56023513D01*
X192721938Y-56163968D01*
X192776741Y-56296274D01*
X192845981Y-56399900D01*
X191168436Y-56399900D01*
X191063889Y-56356595D01*
X190942754Y-56332500D01*
X190819246Y-56332500D01*
X190698111Y-56356595D01*
X190584004Y-56403860D01*
X190481311Y-56472477D01*
X190393977Y-56559811D01*
X190325360Y-56662504D01*
X190278095Y-56776611D01*
X190254000Y-56897746D01*
X180900255Y-56897746D01*
X181258822Y-56539180D01*
X181377558Y-56515562D01*
X181509864Y-56460759D01*
X181628936Y-56381198D01*
X181730198Y-56279936D01*
X181809759Y-56160864D01*
X181864562Y-56028558D01*
X181892500Y-55888103D01*
X181892500Y-55744897D01*
X181864562Y-55604442D01*
X181809759Y-55472136D01*
X181730198Y-55353064D01*
X181628936Y-55251802D01*
X181509864Y-55172241D01*
X181377558Y-55117438D01*
X181237103Y-55089500D01*
X181093897Y-55089500D01*
X180953442Y-55117438D01*
X180821136Y-55172241D01*
X180702064Y-55251802D01*
X180600802Y-55353064D01*
X180521241Y-55472136D01*
X180466438Y-55604442D01*
X180442820Y-55723178D01*
X179761533Y-56404466D01*
X179739527Y-56422526D01*
X179721466Y-56444533D01*
X179721463Y-56444536D01*
X179705553Y-56463923D01*
X179667422Y-56510385D01*
X179630317Y-56579805D01*
X179613844Y-56610624D01*
X179580849Y-56719389D01*
X179569710Y-56832500D01*
X179572501Y-56860841D01*
X179572500Y-61927499D01*
X176862499Y-64637500D01*
X176398186Y-64637500D01*
X176450640Y-64558996D01*
X176476545Y-64496456D01*
X177927162Y-63045839D01*
X177949174Y-63027774D01*
X178021279Y-62939915D01*
X178074857Y-62839676D01*
X178088404Y-62795018D01*
X178107851Y-62730912D01*
X178118990Y-62617800D01*
X178116200Y-62589469D01*
X178116200Y-59184600D01*
X178146030Y-59184600D01*
X178186011Y-59176647D01*
X178202076Y-59175065D01*
X178217524Y-59170379D01*
X178257505Y-59162426D01*
X178295168Y-59146825D01*
X178310614Y-59142140D01*
X178324847Y-59134532D01*
X178362512Y-59118931D01*
X178396411Y-59096280D01*
X178410643Y-59088673D01*
X178423118Y-59078435D01*
X178457016Y-59055785D01*
X178485844Y-59026957D01*
X178498319Y-59016719D01*
X178508557Y-59004244D01*
X178537385Y-58975416D01*
X178560035Y-58941518D01*
X178570273Y-58929043D01*
X178577880Y-58914811D01*
X178600531Y-58880912D01*
X178616132Y-58843247D01*
X178623740Y-58829014D01*
X178628425Y-58813568D01*
X178644026Y-58775905D01*
X178651979Y-58735924D01*
X178656665Y-58720476D01*
X178658247Y-58704411D01*
X178666200Y-58664430D01*
X178666200Y-58623663D01*
X178667782Y-58607600D01*
X178667782Y-57507600D01*
X178666200Y-57491537D01*
X178666200Y-57450770D01*
X178658247Y-57410789D01*
X178656665Y-57394724D01*
X178651979Y-57379276D01*
X178644026Y-57339295D01*
X178628425Y-57301632D01*
X178623740Y-57286186D01*
X178616132Y-57271953D01*
X178600531Y-57234288D01*
X178577880Y-57200389D01*
X178570273Y-57186157D01*
X178560035Y-57173682D01*
X178537385Y-57139784D01*
X178508557Y-57110956D01*
X178498319Y-57098481D01*
X178485844Y-57088243D01*
X178457016Y-57059415D01*
X178423118Y-57036765D01*
X178410643Y-57026527D01*
X178396411Y-57018920D01*
X178362512Y-56996269D01*
X178324847Y-56980668D01*
X178310614Y-56973060D01*
X178295168Y-56968375D01*
X178257505Y-56952774D01*
X178217524Y-56944821D01*
X178202076Y-56940135D01*
X178186011Y-56938553D01*
X178146030Y-56930600D01*
X178116200Y-56930600D01*
X178116200Y-52853539D01*
X178118991Y-52825200D01*
X178107851Y-52712088D01*
X178083570Y-52632047D01*
X178074857Y-52603324D01*
X178021279Y-52503085D01*
X177949174Y-52415226D01*
X177927162Y-52397161D01*
X176730545Y-51200544D01*
X176704640Y-51138004D01*
X176636023Y-51035311D01*
X176548689Y-50947977D01*
X176445996Y-50879360D01*
X176331889Y-50832095D01*
X176210754Y-50808000D01*
X176087246Y-50808000D01*
X175966111Y-50832095D01*
X175852004Y-50879360D01*
X175749311Y-50947977D01*
X175661977Y-51035311D01*
X175593360Y-51138004D01*
X175546095Y-51252111D01*
X175522000Y-51373246D01*
X175522000Y-51496754D01*
X175546095Y-51617889D01*
X175593360Y-51731996D01*
X175661977Y-51834689D01*
X175749311Y-51922023D01*
X175852004Y-51990640D01*
X175914544Y-52016545D01*
X176962201Y-53064202D01*
X176962200Y-56639199D01*
X174227539Y-53904538D01*
X174209474Y-53882526D01*
X174121615Y-53810421D01*
X174021376Y-53756843D01*
X173957270Y-53737397D01*
X173912611Y-53723849D01*
X173857545Y-53718426D01*
X173827836Y-53715500D01*
X173827831Y-53715500D01*
X173799500Y-53712710D01*
X173771169Y-53715500D01*
X173092429Y-53715500D01*
X173029889Y-53689595D01*
X172908754Y-53665500D01*
X172785246Y-53665500D01*
X172664111Y-53689595D01*
X172550004Y-53736860D01*
X172447311Y-53805477D01*
X172359977Y-53892811D01*
X172291360Y-53995504D01*
X172244095Y-54109611D01*
X172220000Y-54230746D01*
X172220000Y-54354254D01*
X172244095Y-54475389D01*
X172291360Y-54589496D01*
X172359977Y-54692189D01*
X172447311Y-54779523D01*
X172550004Y-54848140D01*
X172664111Y-54895405D01*
X172785246Y-54919500D01*
X172908754Y-54919500D01*
X173029889Y-54895405D01*
X173092429Y-54869500D01*
X173560499Y-54869500D01*
X176410618Y-57719619D01*
X176410618Y-58370181D01*
X174524799Y-60256000D01*
X173092429Y-60256000D01*
X173029889Y-60230095D01*
X172908754Y-60206000D01*
X172785246Y-60206000D01*
X172664111Y-60230095D01*
X172550004Y-60277360D01*
X172447311Y-60345977D01*
X172359977Y-60433311D01*
X172291360Y-60536004D01*
X172244095Y-60650111D01*
X172220000Y-60771246D01*
X172220000Y-60894754D01*
X172244095Y-61015889D01*
X172291360Y-61129996D01*
X172359977Y-61232689D01*
X172447311Y-61320023D01*
X172550004Y-61388640D01*
X172664111Y-61435905D01*
X172785246Y-61460000D01*
X172908754Y-61460000D01*
X173029889Y-61435905D01*
X173092429Y-61410000D01*
X174735469Y-61410000D01*
X174763800Y-61412790D01*
X174792131Y-61410000D01*
X174792136Y-61410000D01*
X174821845Y-61407074D01*
X174876911Y-61401651D01*
X174921570Y-61388103D01*
X174985676Y-61368657D01*
X175085915Y-61315079D01*
X175173774Y-61242974D01*
X175191839Y-61220962D01*
X176962200Y-59450601D01*
X176962201Y-62378798D01*
X175660544Y-63680455D01*
X175598004Y-63706360D01*
X175495311Y-63774977D01*
X175407977Y-63862311D01*
X175339360Y-63965004D01*
X175292095Y-64079111D01*
X175268000Y-64200246D01*
X175268000Y-64323754D01*
X175292095Y-64444889D01*
X175339360Y-64558996D01*
X175391814Y-64637500D01*
X170927001Y-64637500D01*
X166478000Y-60188499D01*
X166478000Y-57583828D01*
X166480790Y-57555499D01*
X166478000Y-57527170D01*
X166478000Y-57527164D01*
X166469650Y-57442388D01*
X166436657Y-57333624D01*
X166383079Y-57233385D01*
X166310974Y-57145526D01*
X166288963Y-57127462D01*
X165503539Y-56342038D01*
X165485474Y-56320026D01*
X165397615Y-56247921D01*
X165297376Y-56194343D01*
X165233270Y-56174897D01*
X165188611Y-56161349D01*
X165133545Y-56155926D01*
X165103836Y-56153000D01*
X165103831Y-56153000D01*
X165075500Y-56150210D01*
X165047169Y-56153000D01*
X163179700Y-56153000D01*
X163210984Y-56077474D01*
X163237000Y-55946679D01*
X163237000Y-55813321D01*
X163210984Y-55682526D01*
X163159950Y-55559320D01*
X163085860Y-55448437D01*
X162991563Y-55354140D01*
X162880680Y-55280050D01*
X162757474Y-55229016D01*
X162694106Y-55216412D01*
X162763766Y-55179177D01*
X162882080Y-55082080D01*
X162979177Y-54963766D01*
X163051327Y-54828784D01*
X163095757Y-54682319D01*
X163110759Y-54530000D01*
X163095757Y-54377681D01*
X163051327Y-54231216D01*
X162979177Y-54096234D01*
X162882080Y-53977920D01*
X162763766Y-53880823D01*
X162628784Y-53808673D01*
X162482319Y-53764243D01*
X162368166Y-53753000D01*
X160791834Y-53753000D01*
X160677681Y-53764243D01*
X160531216Y-53808673D01*
X160396234Y-53880823D01*
X160277920Y-53977920D01*
X160180823Y-54096234D01*
X160108673Y-54231216D01*
X160064243Y-54377681D01*
X160049241Y-54530000D01*
X160064243Y-54682319D01*
X160108673Y-54828784D01*
X160180823Y-54963766D01*
X160277920Y-55082080D01*
X160396234Y-55179177D01*
X160531216Y-55251327D01*
X160677681Y-55295757D01*
X160791834Y-55307000D01*
X160848987Y-55307000D01*
X160778437Y-55354140D01*
X160684140Y-55448437D01*
X160610050Y-55559320D01*
X160559016Y-55682526D01*
X160533000Y-55813321D01*
X160533000Y-55946679D01*
X160559016Y-56077474D01*
X160610050Y-56200680D01*
X160679755Y-56305000D01*
X160610050Y-56409320D01*
X160559016Y-56532526D01*
X160533000Y-56663321D01*
X160533000Y-56796679D01*
X160559016Y-56927474D01*
X160610050Y-57050680D01*
X160679755Y-57155000D01*
X160610050Y-57259320D01*
X160559016Y-57382526D01*
X160533000Y-57513321D01*
X160533000Y-57646679D01*
X160559016Y-57777474D01*
X160610050Y-57900680D01*
X160679755Y-58005000D01*
X160610050Y-58109320D01*
X160559016Y-58232526D01*
X160533000Y-58363321D01*
X160533000Y-58496679D01*
X160559016Y-58627474D01*
X160610050Y-58750680D01*
X160679755Y-58855000D01*
X160610050Y-58959320D01*
X160559016Y-59082526D01*
X160533000Y-59213321D01*
X160533000Y-59346679D01*
X160559016Y-59477474D01*
X160610050Y-59600680D01*
X160679755Y-59705000D01*
X160610050Y-59809320D01*
X160559016Y-59932526D01*
X160533000Y-60063321D01*
X160533000Y-60196679D01*
X160559016Y-60327474D01*
X160610050Y-60450680D01*
X160679755Y-60555000D01*
X160610050Y-60659320D01*
X160559016Y-60782526D01*
X160533000Y-60913321D01*
X160533000Y-61046679D01*
X160559016Y-61177474D01*
X160610050Y-61300680D01*
X160679755Y-61405000D01*
X160610050Y-61509320D01*
X160559016Y-61632526D01*
X160533000Y-61763321D01*
X160533000Y-61896679D01*
X160559016Y-62027474D01*
X160610050Y-62150680D01*
X160684140Y-62261563D01*
X160778437Y-62355860D01*
X160848987Y-62403000D01*
X160791834Y-62403000D01*
X160677681Y-62414243D01*
X160531216Y-62458673D01*
X160396234Y-62530823D01*
X160277920Y-62627920D01*
X160180823Y-62746234D01*
X160108673Y-62881216D01*
X160064243Y-63027681D01*
X160049241Y-63180000D01*
X160064243Y-63332319D01*
X160108673Y-63478784D01*
X160180823Y-63613766D01*
X160277920Y-63732080D01*
X160396234Y-63829177D01*
X160531216Y-63901327D01*
X160677681Y-63945757D01*
X160791834Y-63957000D01*
X162368166Y-63957000D01*
X162482319Y-63945757D01*
X162628784Y-63901327D01*
X162763766Y-63829177D01*
X162882080Y-63732080D01*
X162979177Y-63613766D01*
X163051327Y-63478784D01*
X163095757Y-63332319D01*
X163110759Y-63180000D01*
X163095757Y-63027681D01*
X163051327Y-62881216D01*
X162979177Y-62746234D01*
X162882080Y-62627920D01*
X162763766Y-62530823D01*
X162694106Y-62493588D01*
X162757474Y-62480984D01*
X162880680Y-62429950D01*
X162991563Y-62355860D01*
X163085860Y-62261563D01*
X163159950Y-62150680D01*
X163210984Y-62027474D01*
X163237000Y-61896679D01*
X163237000Y-61763321D01*
X163210984Y-61632526D01*
X163159950Y-61509320D01*
X163090245Y-61405000D01*
X163159950Y-61300680D01*
X163210984Y-61177474D01*
X163237000Y-61046679D01*
X163237000Y-60913321D01*
X163210984Y-60782526D01*
X163159950Y-60659320D01*
X163090245Y-60555000D01*
X163159950Y-60450680D01*
X163210984Y-60327474D01*
X163237000Y-60196679D01*
X163237000Y-60063321D01*
X163210984Y-59932526D01*
X163159950Y-59809320D01*
X163090245Y-59705000D01*
X163159950Y-59600680D01*
X163210984Y-59477474D01*
X163237000Y-59346679D01*
X163237000Y-59213321D01*
X163210984Y-59082526D01*
X163159950Y-58959320D01*
X163090245Y-58855000D01*
X163159950Y-58750680D01*
X163210984Y-58627474D01*
X163237000Y-58496679D01*
X163237000Y-58363321D01*
X163210984Y-58232526D01*
X163159950Y-58109320D01*
X163090245Y-58005000D01*
X163159950Y-57900680D01*
X163210984Y-57777474D01*
X163237000Y-57646679D01*
X163237000Y-57513321D01*
X163210984Y-57382526D01*
X163179700Y-57307000D01*
X164836499Y-57307000D01*
X165324000Y-57794501D01*
X165324001Y-60399159D01*
X165321210Y-60427500D01*
X165332349Y-60540611D01*
X165353740Y-60611124D01*
X165365344Y-60649376D01*
X165418922Y-60749615D01*
X165444666Y-60780984D01*
X165472963Y-60815464D01*
X165472966Y-60815467D01*
X165491027Y-60837474D01*
X165513034Y-60855535D01*
X169300499Y-64643000D01*
X155513000Y-64643000D01*
X155513000Y-63180000D01*
X157019241Y-63180000D01*
X157034243Y-63332319D01*
X157078673Y-63478784D01*
X157150823Y-63613766D01*
X157247920Y-63732080D01*
X157366234Y-63829177D01*
X157501216Y-63901327D01*
X157647681Y-63945757D01*
X157761834Y-63957000D01*
X158638166Y-63957000D01*
X158752319Y-63945757D01*
X158898784Y-63901327D01*
X159033766Y-63829177D01*
X159152080Y-63732080D01*
X159249177Y-63613766D01*
X159321327Y-63478784D01*
X159365757Y-63332319D01*
X159380759Y-63180000D01*
X159365757Y-63027681D01*
X159321327Y-62881216D01*
X159249177Y-62746234D01*
X159152080Y-62627920D01*
X159033766Y-62530823D01*
X158898784Y-62458673D01*
X158752319Y-62414243D01*
X158638166Y-62403000D01*
X157761834Y-62403000D01*
X157647681Y-62414243D01*
X157501216Y-62458673D01*
X157366234Y-62530823D01*
X157247920Y-62627920D01*
X157150823Y-62746234D01*
X157078673Y-62881216D01*
X157034243Y-63027681D01*
X157019241Y-63180000D01*
X155513000Y-63180000D01*
X155513000Y-54530000D01*
X157019241Y-54530000D01*
X157034243Y-54682319D01*
X157078673Y-54828784D01*
X157150823Y-54963766D01*
X157247920Y-55082080D01*
X157366234Y-55179177D01*
X157501216Y-55251327D01*
X157647681Y-55295757D01*
X157761834Y-55307000D01*
X158638166Y-55307000D01*
X158752319Y-55295757D01*
X158898784Y-55251327D01*
X159033766Y-55179177D01*
X159152080Y-55082080D01*
X159249177Y-54963766D01*
X159321327Y-54828784D01*
X159365757Y-54682319D01*
X159380759Y-54530000D01*
X159365757Y-54377681D01*
X159321327Y-54231216D01*
X159249177Y-54096234D01*
X159152080Y-53977920D01*
X159033766Y-53880823D01*
X158898784Y-53808673D01*
X158752319Y-53764243D01*
X158638166Y-53753000D01*
X157761834Y-53753000D01*
X157647681Y-53764243D01*
X157501216Y-53808673D01*
X157366234Y-53880823D01*
X157247920Y-53977920D01*
X157150823Y-54096234D01*
X157078673Y-54231216D01*
X157034243Y-54377681D01*
X157019241Y-54530000D01*
X155513000Y-54530000D01*
X155512999Y-54369053D01*
X155590458Y-53102609D01*
X155819297Y-51867903D01*
X156018410Y-51236397D01*
X167040000Y-51236397D01*
X167040000Y-51379603D01*
X167067938Y-51520058D01*
X167122741Y-51652364D01*
X167190000Y-51753025D01*
X167190001Y-54137159D01*
X167187210Y-54165500D01*
X167198349Y-54278611D01*
X167228403Y-54377681D01*
X167231344Y-54387376D01*
X167284922Y-54487615D01*
X167311013Y-54519406D01*
X167338963Y-54553464D01*
X167338966Y-54553467D01*
X167357027Y-54575474D01*
X167379034Y-54593535D01*
X171212465Y-58426967D01*
X171230526Y-58448974D01*
X171252533Y-58467035D01*
X171252535Y-58467037D01*
X171266972Y-58478885D01*
X171318385Y-58521079D01*
X171418624Y-58574657D01*
X171527388Y-58607650D01*
X171612164Y-58616000D01*
X171612170Y-58616000D01*
X171640499Y-58618790D01*
X171668828Y-58616000D01*
X174433975Y-58616000D01*
X174534636Y-58683259D01*
X174666942Y-58738062D01*
X174807397Y-58766000D01*
X174950603Y-58766000D01*
X175091058Y-58738062D01*
X175223364Y-58683259D01*
X175342436Y-58603698D01*
X175443698Y-58502436D01*
X175523259Y-58383364D01*
X175578062Y-58251058D01*
X175606000Y-58110603D01*
X175606000Y-57967397D01*
X175578062Y-57826942D01*
X175523259Y-57694636D01*
X175443698Y-57575564D01*
X175342436Y-57474302D01*
X175223364Y-57394741D01*
X175091058Y-57339938D01*
X174950603Y-57312000D01*
X174807397Y-57312000D01*
X174666942Y-57339938D01*
X174534636Y-57394741D01*
X174433975Y-57462000D01*
X171879502Y-57462000D01*
X168344000Y-53926499D01*
X168344000Y-51753025D01*
X168411259Y-51652364D01*
X168466062Y-51520058D01*
X168494000Y-51379603D01*
X168494000Y-51236397D01*
X168466062Y-51095942D01*
X168411259Y-50963636D01*
X168331698Y-50844564D01*
X168230436Y-50743302D01*
X168111364Y-50663741D01*
X167979058Y-50608938D01*
X167838603Y-50581000D01*
X167695397Y-50581000D01*
X167554942Y-50608938D01*
X167422636Y-50663741D01*
X167303564Y-50743302D01*
X167202302Y-50844564D01*
X167122741Y-50963636D01*
X167067938Y-51095942D01*
X167040000Y-51236397D01*
X156018410Y-51236397D01*
X156196901Y-50670297D01*
X156717645Y-49527625D01*
X157373762Y-48456941D01*
X158155475Y-47474191D01*
X159051127Y-46594037D01*
X160047364Y-45829596D01*
X161129342Y-45192263D01*
X161578415Y-44997000D01*
X166588418Y-44997000D01*
X166588418Y-46697000D01*
X166594732Y-46761103D01*
X166613430Y-46822743D01*
X166643794Y-46879550D01*
X166684657Y-46929343D01*
X166734450Y-46970206D01*
X166791257Y-47000570D01*
X166852897Y-47019268D01*
X166917000Y-47025582D01*
X168617000Y-47025582D01*
X168681103Y-47019268D01*
X168742743Y-47000570D01*
X168799550Y-46970206D01*
X168849343Y-46929343D01*
X168890206Y-46879550D01*
X168920570Y-46822743D01*
X168939268Y-46761103D01*
X168945582Y-46697000D01*
X168945582Y-45731076D01*
X169130000Y-45731076D01*
X169130000Y-45962924D01*
X169175231Y-46190318D01*
X169263956Y-46404519D01*
X169392764Y-46597294D01*
X169556706Y-46761236D01*
X169749481Y-46890044D01*
X169963682Y-46978769D01*
X170191076Y-47024000D01*
X170422924Y-47024000D01*
X170650318Y-46978769D01*
X170864519Y-46890044D01*
X171057294Y-46761236D01*
X171221236Y-46597294D01*
X171350044Y-46404519D01*
X171438769Y-46190318D01*
X171484000Y-45962924D01*
X171484000Y-45731076D01*
X171670000Y-45731076D01*
X171670000Y-45962924D01*
X171715231Y-46190318D01*
X171803956Y-46404519D01*
X171932764Y-46597294D01*
X172096706Y-46761236D01*
X172289481Y-46890044D01*
X172503682Y-46978769D01*
X172731076Y-47024000D01*
X172962924Y-47024000D01*
X173190318Y-46978769D01*
X173404519Y-46890044D01*
X173597294Y-46761236D01*
X173761236Y-46597294D01*
X173890044Y-46404519D01*
X173978769Y-46190318D01*
X174024000Y-45962924D01*
X174024000Y-45731076D01*
X173978769Y-45503682D01*
X173890044Y-45289481D01*
X173761236Y-45096706D01*
X173597294Y-44932764D01*
X173404519Y-44803956D01*
X173190318Y-44715231D01*
X172962924Y-44670000D01*
X172731076Y-44670000D01*
X172503682Y-44715231D01*
X172289481Y-44803956D01*
X172096706Y-44932764D01*
X171932764Y-45096706D01*
X171803956Y-45289481D01*
X171715231Y-45503682D01*
X171670000Y-45731076D01*
X171484000Y-45731076D01*
X171438769Y-45503682D01*
X171350044Y-45289481D01*
X171221236Y-45096706D01*
X171057294Y-44932764D01*
X170864519Y-44803956D01*
X170650318Y-44715231D01*
X170422924Y-44670000D01*
X170191076Y-44670000D01*
X169963682Y-44715231D01*
X169749481Y-44803956D01*
X169556706Y-44932764D01*
X169392764Y-45096706D01*
X169263956Y-45289481D01*
X169175231Y-45503682D01*
X169130000Y-45731076D01*
X168945582Y-45731076D01*
X168945582Y-44997000D01*
X168939268Y-44932897D01*
X168920570Y-44871257D01*
X168890206Y-44814450D01*
X168849343Y-44764657D01*
X168799550Y-44723794D01*
X168742743Y-44693430D01*
X168681103Y-44674732D01*
X168617000Y-44668418D01*
X166917000Y-44668418D01*
X166852897Y-44674732D01*
X166791257Y-44693430D01*
X166734450Y-44723794D01*
X166684657Y-44764657D01*
X166643794Y-44814450D01*
X166613430Y-44871257D01*
X166594732Y-44932897D01*
X166588418Y-44997000D01*
X161578415Y-44997000D01*
X162280922Y-44691541D01*
X163484944Y-44334894D01*
X164725299Y-44127329D01*
X165809685Y-44070499D01*
X201803000Y-44070499D01*
X201803000Y-64643000D01*
%TA.AperFunction,Conductor*%
D27*
G36*
X201803000Y-64643000D02*
G01*
X197341189Y-64643000D01*
X197303759Y-64552636D01*
X197224198Y-64433564D01*
X197122936Y-64332302D01*
X197003864Y-64252741D01*
X196871558Y-64197938D01*
X196731103Y-64170000D01*
X196587897Y-64170000D01*
X196447442Y-64197938D01*
X196315136Y-64252741D01*
X196214475Y-64320000D01*
X196009501Y-64320000D01*
X195014000Y-63324499D01*
X195014000Y-59046429D01*
X195039905Y-58983889D01*
X195064000Y-58862754D01*
X195064000Y-58739246D01*
X195039905Y-58618111D01*
X194992640Y-58504004D01*
X194924023Y-58401311D01*
X194836689Y-58313977D01*
X194733996Y-58245360D01*
X194619889Y-58198095D01*
X194498754Y-58174000D01*
X194375246Y-58174000D01*
X194254111Y-58198095D01*
X194140004Y-58245360D01*
X194037311Y-58313977D01*
X193949977Y-58401311D01*
X193881360Y-58504004D01*
X193834095Y-58618111D01*
X193810000Y-58739246D01*
X193810000Y-58862754D01*
X193834095Y-58983889D01*
X193860000Y-59046429D01*
X193860001Y-61935657D01*
X193860000Y-61935667D01*
X193860001Y-63535159D01*
X193857210Y-63563500D01*
X193868349Y-63676611D01*
X193901344Y-63785376D01*
X193954922Y-63885615D01*
X193967817Y-63901327D01*
X194008963Y-63951464D01*
X194008966Y-63951467D01*
X194027027Y-63973474D01*
X194049034Y-63991535D01*
X194700499Y-64643000D01*
X178489001Y-64643000D01*
X180537463Y-62594538D01*
X180559474Y-62576474D01*
X180631579Y-62488615D01*
X180685157Y-62388376D01*
X180698704Y-62343718D01*
X180718151Y-62279612D01*
X180723863Y-62221614D01*
X180726500Y-62194836D01*
X180726500Y-62194831D01*
X180729290Y-62166500D01*
X180726500Y-62138169D01*
X180726500Y-57071501D01*
X180900255Y-56897746D01*
X190254000Y-56897746D01*
X190254000Y-57021254D01*
X190278095Y-57142389D01*
X190325360Y-57256496D01*
X190393977Y-57359189D01*
X190481311Y-57446523D01*
X190584004Y-57515140D01*
X190698111Y-57562405D01*
X190819246Y-57586500D01*
X190942754Y-57586500D01*
X191063889Y-57562405D01*
X191084422Y-57553900D01*
X195056218Y-57553900D01*
X195056218Y-58301900D01*
X195062532Y-58366003D01*
X195081230Y-58427643D01*
X195111594Y-58484450D01*
X195152457Y-58534243D01*
X195202250Y-58575106D01*
X195259057Y-58605470D01*
X195320697Y-58624168D01*
X195384800Y-58630482D01*
X196384800Y-58630482D01*
X196448903Y-58624168D01*
X196510543Y-58605470D01*
X196567350Y-58575106D01*
X196617143Y-58534243D01*
X196658006Y-58484450D01*
X196688370Y-58427643D01*
X196707068Y-58366003D01*
X196713382Y-58301900D01*
X196713382Y-55651900D01*
X196707068Y-55587797D01*
X196688370Y-55526157D01*
X196658006Y-55469350D01*
X196617143Y-55419557D01*
X196567350Y-55378694D01*
X196510543Y-55348330D01*
X196448903Y-55329632D01*
X196384800Y-55323318D01*
X195384800Y-55323318D01*
X195320697Y-55329632D01*
X195259057Y-55348330D01*
X195202250Y-55378694D01*
X195152457Y-55419557D01*
X195111594Y-55469350D01*
X195081230Y-55526157D01*
X195062532Y-55587797D01*
X195056218Y-55651900D01*
X195056218Y-56399900D01*
X193996019Y-56399900D01*
X194065259Y-56296274D01*
X194120062Y-56163968D01*
X194148000Y-56023513D01*
X194148000Y-55880307D01*
X194145317Y-55866817D01*
X196220134Y-53792000D01*
X197928661Y-53792000D01*
X197936302Y-53803436D01*
X198037564Y-53904698D01*
X198156636Y-53984259D01*
X198288942Y-54039062D01*
X198429397Y-54067000D01*
X198572603Y-54067000D01*
X198713058Y-54039062D01*
X198845364Y-53984259D01*
X198964436Y-53904698D01*
X199065698Y-53803436D01*
X199145259Y-53684364D01*
X199200062Y-53552058D01*
X199228000Y-53411603D01*
X199228000Y-53268397D01*
X199200062Y-53127942D01*
X199145259Y-52995636D01*
X199065698Y-52876564D01*
X198964436Y-52775302D01*
X198845364Y-52695741D01*
X198713058Y-52640938D01*
X198572603Y-52613000D01*
X198429397Y-52613000D01*
X198288942Y-52640938D01*
X198156636Y-52695741D01*
X198037564Y-52775302D01*
X197936302Y-52876564D01*
X197928661Y-52888000D01*
X196055115Y-52888000D01*
X196032910Y-52885813D01*
X195944302Y-52894540D01*
X195859100Y-52920386D01*
X195780577Y-52962357D01*
X195711751Y-53018841D01*
X195697591Y-53036095D01*
X193506093Y-55227593D01*
X193492603Y-55224910D01*
X193349397Y-55224910D01*
X193208942Y-55252848D01*
X193076636Y-55307651D01*
X192957564Y-55387212D01*
X192856302Y-55488474D01*
X192776741Y-55607546D01*
X192721938Y-55739852D01*
X192694000Y-55880307D01*
X192694000Y-56023513D01*
X192721938Y-56163968D01*
X192776741Y-56296274D01*
X192845981Y-56399900D01*
X191168436Y-56399900D01*
X191063889Y-56356595D01*
X190942754Y-56332500D01*
X190819246Y-56332500D01*
X190698111Y-56356595D01*
X190584004Y-56403860D01*
X190481311Y-56472477D01*
X190393977Y-56559811D01*
X190325360Y-56662504D01*
X190278095Y-56776611D01*
X190254000Y-56897746D01*
X180900255Y-56897746D01*
X181258822Y-56539180D01*
X181377558Y-56515562D01*
X181509864Y-56460759D01*
X181628936Y-56381198D01*
X181730198Y-56279936D01*
X181809759Y-56160864D01*
X181864562Y-56028558D01*
X181892500Y-55888103D01*
X181892500Y-55744897D01*
X181864562Y-55604442D01*
X181809759Y-55472136D01*
X181730198Y-55353064D01*
X181628936Y-55251802D01*
X181509864Y-55172241D01*
X181377558Y-55117438D01*
X181237103Y-55089500D01*
X181093897Y-55089500D01*
X180953442Y-55117438D01*
X180821136Y-55172241D01*
X180702064Y-55251802D01*
X180600802Y-55353064D01*
X180521241Y-55472136D01*
X180466438Y-55604442D01*
X180442820Y-55723178D01*
X179761533Y-56404466D01*
X179739527Y-56422526D01*
X179721466Y-56444533D01*
X179721463Y-56444536D01*
X179705553Y-56463923D01*
X179667422Y-56510385D01*
X179630317Y-56579805D01*
X179613844Y-56610624D01*
X179580849Y-56719389D01*
X179569710Y-56832500D01*
X179572501Y-56860841D01*
X179572500Y-61927499D01*
X176862499Y-64637500D01*
X176398186Y-64637500D01*
X176450640Y-64558996D01*
X176476545Y-64496456D01*
X177927162Y-63045839D01*
X177949174Y-63027774D01*
X178021279Y-62939915D01*
X178074857Y-62839676D01*
X178088404Y-62795018D01*
X178107851Y-62730912D01*
X178118990Y-62617800D01*
X178116200Y-62589469D01*
X178116200Y-59184600D01*
X178146030Y-59184600D01*
X178186011Y-59176647D01*
X178202076Y-59175065D01*
X178217524Y-59170379D01*
X178257505Y-59162426D01*
X178295168Y-59146825D01*
X178310614Y-59142140D01*
X178324847Y-59134532D01*
X178362512Y-59118931D01*
X178396411Y-59096280D01*
X178410643Y-59088673D01*
X178423118Y-59078435D01*
X178457016Y-59055785D01*
X178485844Y-59026957D01*
X178498319Y-59016719D01*
X178508557Y-59004244D01*
X178537385Y-58975416D01*
X178560035Y-58941518D01*
X178570273Y-58929043D01*
X178577880Y-58914811D01*
X178600531Y-58880912D01*
X178616132Y-58843247D01*
X178623740Y-58829014D01*
X178628425Y-58813568D01*
X178644026Y-58775905D01*
X178651979Y-58735924D01*
X178656665Y-58720476D01*
X178658247Y-58704411D01*
X178666200Y-58664430D01*
X178666200Y-58623663D01*
X178667782Y-58607600D01*
X178667782Y-57507600D01*
X178666200Y-57491537D01*
X178666200Y-57450770D01*
X178658247Y-57410789D01*
X178656665Y-57394724D01*
X178651979Y-57379276D01*
X178644026Y-57339295D01*
X178628425Y-57301632D01*
X178623740Y-57286186D01*
X178616132Y-57271953D01*
X178600531Y-57234288D01*
X178577880Y-57200389D01*
X178570273Y-57186157D01*
X178560035Y-57173682D01*
X178537385Y-57139784D01*
X178508557Y-57110956D01*
X178498319Y-57098481D01*
X178485844Y-57088243D01*
X178457016Y-57059415D01*
X178423118Y-57036765D01*
X178410643Y-57026527D01*
X178396411Y-57018920D01*
X178362512Y-56996269D01*
X178324847Y-56980668D01*
X178310614Y-56973060D01*
X178295168Y-56968375D01*
X178257505Y-56952774D01*
X178217524Y-56944821D01*
X178202076Y-56940135D01*
X178186011Y-56938553D01*
X178146030Y-56930600D01*
X178116200Y-56930600D01*
X178116200Y-52853539D01*
X178118991Y-52825200D01*
X178107851Y-52712088D01*
X178083570Y-52632047D01*
X178074857Y-52603324D01*
X178021279Y-52503085D01*
X177949174Y-52415226D01*
X177927162Y-52397161D01*
X176730545Y-51200544D01*
X176704640Y-51138004D01*
X176636023Y-51035311D01*
X176548689Y-50947977D01*
X176445996Y-50879360D01*
X176331889Y-50832095D01*
X176210754Y-50808000D01*
X176087246Y-50808000D01*
X175966111Y-50832095D01*
X175852004Y-50879360D01*
X175749311Y-50947977D01*
X175661977Y-51035311D01*
X175593360Y-51138004D01*
X175546095Y-51252111D01*
X175522000Y-51373246D01*
X175522000Y-51496754D01*
X175546095Y-51617889D01*
X175593360Y-51731996D01*
X175661977Y-51834689D01*
X175749311Y-51922023D01*
X175852004Y-51990640D01*
X175914544Y-52016545D01*
X176962201Y-53064202D01*
X176962200Y-56639199D01*
X174227539Y-53904538D01*
X174209474Y-53882526D01*
X174121615Y-53810421D01*
X174021376Y-53756843D01*
X173957270Y-53737397D01*
X173912611Y-53723849D01*
X173857545Y-53718426D01*
X173827836Y-53715500D01*
X173827831Y-53715500D01*
X173799500Y-53712710D01*
X173771169Y-53715500D01*
X173092429Y-53715500D01*
X173029889Y-53689595D01*
X172908754Y-53665500D01*
X172785246Y-53665500D01*
X172664111Y-53689595D01*
X172550004Y-53736860D01*
X172447311Y-53805477D01*
X172359977Y-53892811D01*
X172291360Y-53995504D01*
X172244095Y-54109611D01*
X172220000Y-54230746D01*
X172220000Y-54354254D01*
X172244095Y-54475389D01*
X172291360Y-54589496D01*
X172359977Y-54692189D01*
X172447311Y-54779523D01*
X172550004Y-54848140D01*
X172664111Y-54895405D01*
X172785246Y-54919500D01*
X172908754Y-54919500D01*
X173029889Y-54895405D01*
X173092429Y-54869500D01*
X173560499Y-54869500D01*
X176410618Y-57719619D01*
X176410618Y-58370181D01*
X174524799Y-60256000D01*
X173092429Y-60256000D01*
X173029889Y-60230095D01*
X172908754Y-60206000D01*
X172785246Y-60206000D01*
X172664111Y-60230095D01*
X172550004Y-60277360D01*
X172447311Y-60345977D01*
X172359977Y-60433311D01*
X172291360Y-60536004D01*
X172244095Y-60650111D01*
X172220000Y-60771246D01*
X172220000Y-60894754D01*
X172244095Y-61015889D01*
X172291360Y-61129996D01*
X172359977Y-61232689D01*
X172447311Y-61320023D01*
X172550004Y-61388640D01*
X172664111Y-61435905D01*
X172785246Y-61460000D01*
X172908754Y-61460000D01*
X173029889Y-61435905D01*
X173092429Y-61410000D01*
X174735469Y-61410000D01*
X174763800Y-61412790D01*
X174792131Y-61410000D01*
X174792136Y-61410000D01*
X174821845Y-61407074D01*
X174876911Y-61401651D01*
X174921570Y-61388103D01*
X174985676Y-61368657D01*
X175085915Y-61315079D01*
X175173774Y-61242974D01*
X175191839Y-61220962D01*
X176962200Y-59450601D01*
X176962201Y-62378798D01*
X175660544Y-63680455D01*
X175598004Y-63706360D01*
X175495311Y-63774977D01*
X175407977Y-63862311D01*
X175339360Y-63965004D01*
X175292095Y-64079111D01*
X175268000Y-64200246D01*
X175268000Y-64323754D01*
X175292095Y-64444889D01*
X175339360Y-64558996D01*
X175391814Y-64637500D01*
X170927001Y-64637500D01*
X166478000Y-60188499D01*
X166478000Y-57583828D01*
X166480790Y-57555499D01*
X166478000Y-57527170D01*
X166478000Y-57527164D01*
X166469650Y-57442388D01*
X166436657Y-57333624D01*
X166383079Y-57233385D01*
X166310974Y-57145526D01*
X166288963Y-57127462D01*
X165503539Y-56342038D01*
X165485474Y-56320026D01*
X165397615Y-56247921D01*
X165297376Y-56194343D01*
X165233270Y-56174897D01*
X165188611Y-56161349D01*
X165133545Y-56155926D01*
X165103836Y-56153000D01*
X165103831Y-56153000D01*
X165075500Y-56150210D01*
X165047169Y-56153000D01*
X163179700Y-56153000D01*
X163210984Y-56077474D01*
X163237000Y-55946679D01*
X163237000Y-55813321D01*
X163210984Y-55682526D01*
X163159950Y-55559320D01*
X163085860Y-55448437D01*
X162991563Y-55354140D01*
X162880680Y-55280050D01*
X162757474Y-55229016D01*
X162694106Y-55216412D01*
X162763766Y-55179177D01*
X162882080Y-55082080D01*
X162979177Y-54963766D01*
X163051327Y-54828784D01*
X163095757Y-54682319D01*
X163110759Y-54530000D01*
X163095757Y-54377681D01*
X163051327Y-54231216D01*
X162979177Y-54096234D01*
X162882080Y-53977920D01*
X162763766Y-53880823D01*
X162628784Y-53808673D01*
X162482319Y-53764243D01*
X162368166Y-53753000D01*
X160791834Y-53753000D01*
X160677681Y-53764243D01*
X160531216Y-53808673D01*
X160396234Y-53880823D01*
X160277920Y-53977920D01*
X160180823Y-54096234D01*
X160108673Y-54231216D01*
X160064243Y-54377681D01*
X160049241Y-54530000D01*
X160064243Y-54682319D01*
X160108673Y-54828784D01*
X160180823Y-54963766D01*
X160277920Y-55082080D01*
X160396234Y-55179177D01*
X160531216Y-55251327D01*
X160677681Y-55295757D01*
X160791834Y-55307000D01*
X160848987Y-55307000D01*
X160778437Y-55354140D01*
X160684140Y-55448437D01*
X160610050Y-55559320D01*
X160559016Y-55682526D01*
X160533000Y-55813321D01*
X160533000Y-55946679D01*
X160559016Y-56077474D01*
X160610050Y-56200680D01*
X160679755Y-56305000D01*
X160610050Y-56409320D01*
X160559016Y-56532526D01*
X160533000Y-56663321D01*
X160533000Y-56796679D01*
X160559016Y-56927474D01*
X160610050Y-57050680D01*
X160679755Y-57155000D01*
X160610050Y-57259320D01*
X160559016Y-57382526D01*
X160533000Y-57513321D01*
X160533000Y-57646679D01*
X160559016Y-57777474D01*
X160610050Y-57900680D01*
X160679755Y-58005000D01*
X160610050Y-58109320D01*
X160559016Y-58232526D01*
X160533000Y-58363321D01*
X160533000Y-58496679D01*
X160559016Y-58627474D01*
X160610050Y-58750680D01*
X160679755Y-58855000D01*
X160610050Y-58959320D01*
X160559016Y-59082526D01*
X160533000Y-59213321D01*
X160533000Y-59346679D01*
X160559016Y-59477474D01*
X160610050Y-59600680D01*
X160679755Y-59705000D01*
X160610050Y-59809320D01*
X160559016Y-59932526D01*
X160533000Y-60063321D01*
X160533000Y-60196679D01*
X160559016Y-60327474D01*
X160610050Y-60450680D01*
X160679755Y-60555000D01*
X160610050Y-60659320D01*
X160559016Y-60782526D01*
X160533000Y-60913321D01*
X160533000Y-61046679D01*
X160559016Y-61177474D01*
X160610050Y-61300680D01*
X160679755Y-61405000D01*
X160610050Y-61509320D01*
X160559016Y-61632526D01*
X160533000Y-61763321D01*
X160533000Y-61896679D01*
X160559016Y-62027474D01*
X160610050Y-62150680D01*
X160684140Y-62261563D01*
X160778437Y-62355860D01*
X160848987Y-62403000D01*
X160791834Y-62403000D01*
X160677681Y-62414243D01*
X160531216Y-62458673D01*
X160396234Y-62530823D01*
X160277920Y-62627920D01*
X160180823Y-62746234D01*
X160108673Y-62881216D01*
X160064243Y-63027681D01*
X160049241Y-63180000D01*
X160064243Y-63332319D01*
X160108673Y-63478784D01*
X160180823Y-63613766D01*
X160277920Y-63732080D01*
X160396234Y-63829177D01*
X160531216Y-63901327D01*
X160677681Y-63945757D01*
X160791834Y-63957000D01*
X162368166Y-63957000D01*
X162482319Y-63945757D01*
X162628784Y-63901327D01*
X162763766Y-63829177D01*
X162882080Y-63732080D01*
X162979177Y-63613766D01*
X163051327Y-63478784D01*
X163095757Y-63332319D01*
X163110759Y-63180000D01*
X163095757Y-63027681D01*
X163051327Y-62881216D01*
X162979177Y-62746234D01*
X162882080Y-62627920D01*
X162763766Y-62530823D01*
X162694106Y-62493588D01*
X162757474Y-62480984D01*
X162880680Y-62429950D01*
X162991563Y-62355860D01*
X163085860Y-62261563D01*
X163159950Y-62150680D01*
X163210984Y-62027474D01*
X163237000Y-61896679D01*
X163237000Y-61763321D01*
X163210984Y-61632526D01*
X163159950Y-61509320D01*
X163090245Y-61405000D01*
X163159950Y-61300680D01*
X163210984Y-61177474D01*
X163237000Y-61046679D01*
X163237000Y-60913321D01*
X163210984Y-60782526D01*
X163159950Y-60659320D01*
X163090245Y-60555000D01*
X163159950Y-60450680D01*
X163210984Y-60327474D01*
X163237000Y-60196679D01*
X163237000Y-60063321D01*
X163210984Y-59932526D01*
X163159950Y-59809320D01*
X163090245Y-59705000D01*
X163159950Y-59600680D01*
X163210984Y-59477474D01*
X163237000Y-59346679D01*
X163237000Y-59213321D01*
X163210984Y-59082526D01*
X163159950Y-58959320D01*
X163090245Y-58855000D01*
X163159950Y-58750680D01*
X163210984Y-58627474D01*
X163237000Y-58496679D01*
X163237000Y-58363321D01*
X163210984Y-58232526D01*
X163159950Y-58109320D01*
X163090245Y-58005000D01*
X163159950Y-57900680D01*
X163210984Y-57777474D01*
X163237000Y-57646679D01*
X163237000Y-57513321D01*
X163210984Y-57382526D01*
X163179700Y-57307000D01*
X164836499Y-57307000D01*
X165324000Y-57794501D01*
X165324001Y-60399159D01*
X165321210Y-60427500D01*
X165332349Y-60540611D01*
X165353740Y-60611124D01*
X165365344Y-60649376D01*
X165418922Y-60749615D01*
X165444666Y-60780984D01*
X165472963Y-60815464D01*
X165472966Y-60815467D01*
X165491027Y-60837474D01*
X165513034Y-60855535D01*
X169300499Y-64643000D01*
X155513000Y-64643000D01*
X155513000Y-63180000D01*
X157019241Y-63180000D01*
X157034243Y-63332319D01*
X157078673Y-63478784D01*
X157150823Y-63613766D01*
X157247920Y-63732080D01*
X157366234Y-63829177D01*
X157501216Y-63901327D01*
X157647681Y-63945757D01*
X157761834Y-63957000D01*
X158638166Y-63957000D01*
X158752319Y-63945757D01*
X158898784Y-63901327D01*
X159033766Y-63829177D01*
X159152080Y-63732080D01*
X159249177Y-63613766D01*
X159321327Y-63478784D01*
X159365757Y-63332319D01*
X159380759Y-63180000D01*
X159365757Y-63027681D01*
X159321327Y-62881216D01*
X159249177Y-62746234D01*
X159152080Y-62627920D01*
X159033766Y-62530823D01*
X158898784Y-62458673D01*
X158752319Y-62414243D01*
X158638166Y-62403000D01*
X157761834Y-62403000D01*
X157647681Y-62414243D01*
X157501216Y-62458673D01*
X157366234Y-62530823D01*
X157247920Y-62627920D01*
X157150823Y-62746234D01*
X157078673Y-62881216D01*
X157034243Y-63027681D01*
X157019241Y-63180000D01*
X155513000Y-63180000D01*
X155513000Y-54530000D01*
X157019241Y-54530000D01*
X157034243Y-54682319D01*
X157078673Y-54828784D01*
X157150823Y-54963766D01*
X157247920Y-55082080D01*
X157366234Y-55179177D01*
X157501216Y-55251327D01*
X157647681Y-55295757D01*
X157761834Y-55307000D01*
X158638166Y-55307000D01*
X158752319Y-55295757D01*
X158898784Y-55251327D01*
X159033766Y-55179177D01*
X159152080Y-55082080D01*
X159249177Y-54963766D01*
X159321327Y-54828784D01*
X159365757Y-54682319D01*
X159380759Y-54530000D01*
X159365757Y-54377681D01*
X159321327Y-54231216D01*
X159249177Y-54096234D01*
X159152080Y-53977920D01*
X159033766Y-53880823D01*
X158898784Y-53808673D01*
X158752319Y-53764243D01*
X158638166Y-53753000D01*
X157761834Y-53753000D01*
X157647681Y-53764243D01*
X157501216Y-53808673D01*
X157366234Y-53880823D01*
X157247920Y-53977920D01*
X157150823Y-54096234D01*
X157078673Y-54231216D01*
X157034243Y-54377681D01*
X157019241Y-54530000D01*
X155513000Y-54530000D01*
X155512999Y-54369053D01*
X155590458Y-53102609D01*
X155819297Y-51867903D01*
X156018410Y-51236397D01*
X167040000Y-51236397D01*
X167040000Y-51379603D01*
X167067938Y-51520058D01*
X167122741Y-51652364D01*
X167190000Y-51753025D01*
X167190001Y-54137159D01*
X167187210Y-54165500D01*
X167198349Y-54278611D01*
X167228403Y-54377681D01*
X167231344Y-54387376D01*
X167284922Y-54487615D01*
X167311013Y-54519406D01*
X167338963Y-54553464D01*
X167338966Y-54553467D01*
X167357027Y-54575474D01*
X167379034Y-54593535D01*
X171212465Y-58426967D01*
X171230526Y-58448974D01*
X171252533Y-58467035D01*
X171252535Y-58467037D01*
X171266972Y-58478885D01*
X171318385Y-58521079D01*
X171418624Y-58574657D01*
X171527388Y-58607650D01*
X171612164Y-58616000D01*
X171612170Y-58616000D01*
X171640499Y-58618790D01*
X171668828Y-58616000D01*
X174433975Y-58616000D01*
X174534636Y-58683259D01*
X174666942Y-58738062D01*
X174807397Y-58766000D01*
X174950603Y-58766000D01*
X175091058Y-58738062D01*
X175223364Y-58683259D01*
X175342436Y-58603698D01*
X175443698Y-58502436D01*
X175523259Y-58383364D01*
X175578062Y-58251058D01*
X175606000Y-58110603D01*
X175606000Y-57967397D01*
X175578062Y-57826942D01*
X175523259Y-57694636D01*
X175443698Y-57575564D01*
X175342436Y-57474302D01*
X175223364Y-57394741D01*
X175091058Y-57339938D01*
X174950603Y-57312000D01*
X174807397Y-57312000D01*
X174666942Y-57339938D01*
X174534636Y-57394741D01*
X174433975Y-57462000D01*
X171879502Y-57462000D01*
X168344000Y-53926499D01*
X168344000Y-51753025D01*
X168411259Y-51652364D01*
X168466062Y-51520058D01*
X168494000Y-51379603D01*
X168494000Y-51236397D01*
X168466062Y-51095942D01*
X168411259Y-50963636D01*
X168331698Y-50844564D01*
X168230436Y-50743302D01*
X168111364Y-50663741D01*
X167979058Y-50608938D01*
X167838603Y-50581000D01*
X167695397Y-50581000D01*
X167554942Y-50608938D01*
X167422636Y-50663741D01*
X167303564Y-50743302D01*
X167202302Y-50844564D01*
X167122741Y-50963636D01*
X167067938Y-51095942D01*
X167040000Y-51236397D01*
X156018410Y-51236397D01*
X156196901Y-50670297D01*
X156717645Y-49527625D01*
X157373762Y-48456941D01*
X158155475Y-47474191D01*
X159051127Y-46594037D01*
X160047364Y-45829596D01*
X161129342Y-45192263D01*
X161578415Y-44997000D01*
X166588418Y-44997000D01*
X166588418Y-46697000D01*
X166594732Y-46761103D01*
X166613430Y-46822743D01*
X166643794Y-46879550D01*
X166684657Y-46929343D01*
X166734450Y-46970206D01*
X166791257Y-47000570D01*
X166852897Y-47019268D01*
X166917000Y-47025582D01*
X168617000Y-47025582D01*
X168681103Y-47019268D01*
X168742743Y-47000570D01*
X168799550Y-46970206D01*
X168849343Y-46929343D01*
X168890206Y-46879550D01*
X168920570Y-46822743D01*
X168939268Y-46761103D01*
X168945582Y-46697000D01*
X168945582Y-45731076D01*
X169130000Y-45731076D01*
X169130000Y-45962924D01*
X169175231Y-46190318D01*
X169263956Y-46404519D01*
X169392764Y-46597294D01*
X169556706Y-46761236D01*
X169749481Y-46890044D01*
X169963682Y-46978769D01*
X170191076Y-47024000D01*
X170422924Y-47024000D01*
X170650318Y-46978769D01*
X170864519Y-46890044D01*
X171057294Y-46761236D01*
X171221236Y-46597294D01*
X171350044Y-46404519D01*
X171438769Y-46190318D01*
X171484000Y-45962924D01*
X171484000Y-45731076D01*
X171670000Y-45731076D01*
X171670000Y-45962924D01*
X171715231Y-46190318D01*
X171803956Y-46404519D01*
X171932764Y-46597294D01*
X172096706Y-46761236D01*
X172289481Y-46890044D01*
X172503682Y-46978769D01*
X172731076Y-47024000D01*
X172962924Y-47024000D01*
X173190318Y-46978769D01*
X173404519Y-46890044D01*
X173597294Y-46761236D01*
X173761236Y-46597294D01*
X173890044Y-46404519D01*
X173978769Y-46190318D01*
X174024000Y-45962924D01*
X174024000Y-45731076D01*
X173978769Y-45503682D01*
X173890044Y-45289481D01*
X173761236Y-45096706D01*
X173597294Y-44932764D01*
X173404519Y-44803956D01*
X173190318Y-44715231D01*
X172962924Y-44670000D01*
X172731076Y-44670000D01*
X172503682Y-44715231D01*
X172289481Y-44803956D01*
X172096706Y-44932764D01*
X171932764Y-45096706D01*
X171803956Y-45289481D01*
X171715231Y-45503682D01*
X171670000Y-45731076D01*
X171484000Y-45731076D01*
X171438769Y-45503682D01*
X171350044Y-45289481D01*
X171221236Y-45096706D01*
X171057294Y-44932764D01*
X170864519Y-44803956D01*
X170650318Y-44715231D01*
X170422924Y-44670000D01*
X170191076Y-44670000D01*
X169963682Y-44715231D01*
X169749481Y-44803956D01*
X169556706Y-44932764D01*
X169392764Y-45096706D01*
X169263956Y-45289481D01*
X169175231Y-45503682D01*
X169130000Y-45731076D01*
X168945582Y-45731076D01*
X168945582Y-44997000D01*
X168939268Y-44932897D01*
X168920570Y-44871257D01*
X168890206Y-44814450D01*
X168849343Y-44764657D01*
X168799550Y-44723794D01*
X168742743Y-44693430D01*
X168681103Y-44674732D01*
X168617000Y-44668418D01*
X166917000Y-44668418D01*
X166852897Y-44674732D01*
X166791257Y-44693430D01*
X166734450Y-44723794D01*
X166684657Y-44764657D01*
X166643794Y-44814450D01*
X166613430Y-44871257D01*
X166594732Y-44932897D01*
X166588418Y-44997000D01*
X161578415Y-44997000D01*
X162280922Y-44691541D01*
X163484944Y-44334894D01*
X164725299Y-44127329D01*
X165809685Y-44070499D01*
X201803000Y-44070499D01*
X201803000Y-64643000D01*
G37*
%TD.AperFunction*%
%TD*%
D26*
%TO.N,GND*%
X235314391Y-44147959D02*
X236549098Y-44376798D01*
X237746709Y-44754404D01*
X238889374Y-45275146D01*
X239960061Y-45931264D01*
X240942809Y-46712976D01*
X241822962Y-47608628D01*
X242587403Y-48604865D01*
X243224736Y-49686843D01*
X243725458Y-50838422D01*
X244082105Y-52042444D01*
X244289670Y-53282799D01*
X244346501Y-54367205D01*
X244346501Y-55153774D01*
X244283748Y-55056604D01*
X244073606Y-54839790D01*
X243825204Y-54668138D01*
X243548087Y-54548245D01*
X243442740Y-54523964D01*
X243205000Y-54644622D01*
X243205000Y-56388000D01*
X243225000Y-56388000D01*
X243225000Y-56642000D01*
X243205000Y-56642000D01*
X243205000Y-58385378D01*
X243442740Y-58506036D01*
X243548087Y-58481755D01*
X243825204Y-58361862D01*
X244073606Y-58190210D01*
X244283748Y-57973396D01*
X244346501Y-57876226D01*
X244346500Y-82340729D01*
X244187606Y-82176790D01*
X243939204Y-82005138D01*
X243662087Y-81885245D01*
X243556740Y-81860964D01*
X243319000Y-81981622D01*
X243319000Y-83725000D01*
X243339000Y-83725000D01*
X243339000Y-83979000D01*
X243319000Y-83979000D01*
X243319000Y-85722378D01*
X243556740Y-85843036D01*
X243662087Y-85818755D01*
X243939204Y-85698862D01*
X244187606Y-85527210D01*
X244346500Y-85363271D01*
X244346500Y-87680446D01*
X244269041Y-88946890D01*
X244040202Y-90181595D01*
X243662598Y-91379201D01*
X243141854Y-92521873D01*
X242485737Y-93592558D01*
X241704020Y-94575311D01*
X240808372Y-95455461D01*
X239812135Y-96219902D01*
X238730157Y-96857235D01*
X237578573Y-97357958D01*
X236374557Y-97714604D01*
X235134201Y-97922169D01*
X234049816Y-97978999D01*
X165811570Y-97978999D01*
X164545109Y-97901539D01*
X163310404Y-97672700D01*
X162112796Y-97295095D01*
X160970120Y-96774348D01*
X159899442Y-96118235D01*
X158916688Y-95336518D01*
X158036538Y-94440871D01*
X157272098Y-93444633D01*
X156634764Y-92362653D01*
X156471596Y-91987390D01*
X200488524Y-91987390D01*
X200533175Y-92134599D01*
X200658359Y-92397420D01*
X200832412Y-92630769D01*
X201048645Y-92825678D01*
X201298748Y-92974657D01*
X201347408Y-92991918D01*
X201080000Y-92991918D01*
X201015897Y-92998232D01*
X200954257Y-93016930D01*
X200897450Y-93047294D01*
X200847657Y-93088157D01*
X200806794Y-93137950D01*
X200776430Y-93194757D01*
X200757732Y-93256397D01*
X200751418Y-93320500D01*
X200751418Y-95020500D01*
X200757732Y-95084603D01*
X200776430Y-95146243D01*
X200806794Y-95203050D01*
X200847657Y-95252843D01*
X200897450Y-95293706D01*
X200954257Y-95324070D01*
X201015897Y-95342768D01*
X201080000Y-95349082D01*
X202780000Y-95349082D01*
X202844103Y-95342768D01*
X202905743Y-95324070D01*
X202962550Y-95293706D01*
X203012343Y-95252843D01*
X203053206Y-95203050D01*
X203083570Y-95146243D01*
X203102268Y-95084603D01*
X203108582Y-95020500D01*
X203108582Y-94747500D01*
X228825669Y-94747500D01*
X228854000Y-94750290D01*
X228882331Y-94747500D01*
X228882336Y-94747500D01*
X228912045Y-94744574D01*
X228967111Y-94739151D01*
X229011770Y-94725603D01*
X229075876Y-94706157D01*
X229176115Y-94652579D01*
X229263974Y-94580474D01*
X229282039Y-94558462D01*
X235679962Y-88160539D01*
X235701974Y-88142474D01*
X235774079Y-88054615D01*
X235827657Y-87954376D01*
X235856985Y-87857695D01*
X235860651Y-87845612D01*
X235866363Y-87787614D01*
X235869000Y-87760836D01*
X235869000Y-87760831D01*
X235871790Y-87732500D01*
X235869000Y-87704169D01*
X235869000Y-87434866D01*
X235976982Y-87377149D01*
X236163817Y-87223817D01*
X236317149Y-87036983D01*
X236431084Y-86823824D01*
X236501245Y-86592534D01*
X236519000Y-86412268D01*
X236519000Y-85291732D01*
X236501245Y-85111466D01*
X236431084Y-84880176D01*
X236317149Y-84667017D01*
X236163817Y-84480183D01*
X235976983Y-84326851D01*
X235763824Y-84212916D01*
X235532534Y-84142755D01*
X235292000Y-84119064D01*
X235051467Y-84142755D01*
X234820177Y-84212916D01*
X234607018Y-84326851D01*
X234420184Y-84480183D01*
X234266852Y-84667017D01*
X234152916Y-84880176D01*
X234082755Y-85111466D01*
X234065000Y-85291732D01*
X234065000Y-86412267D01*
X234082755Y-86592533D01*
X234152916Y-86823823D01*
X234266851Y-87036982D01*
X234420183Y-87223817D01*
X234607017Y-87377149D01*
X234715001Y-87434867D01*
X234715001Y-87493498D01*
X228614999Y-93593500D01*
X203108582Y-93593500D01*
X203108582Y-93320500D01*
X203102268Y-93256397D01*
X203083570Y-93194757D01*
X203053206Y-93137950D01*
X203012343Y-93088157D01*
X202962550Y-93047294D01*
X202905743Y-93016930D01*
X202844103Y-92998232D01*
X202780000Y-92991918D01*
X202512592Y-92991918D01*
X202561252Y-92974657D01*
X202811355Y-92825678D01*
X203027588Y-92630769D01*
X203201641Y-92397420D01*
X203326825Y-92134599D01*
X203371476Y-91987390D01*
X203250155Y-91757500D01*
X202057000Y-91757500D01*
X202057000Y-91777500D01*
X201803000Y-91777500D01*
X201803000Y-91757500D01*
X200609845Y-91757500D01*
X200488524Y-91987390D01*
X156471596Y-91987390D01*
X156161235Y-91273610D01*
X200488524Y-91273610D01*
X200609845Y-91503500D01*
X201803000Y-91503500D01*
X201803000Y-91483500D01*
X202057000Y-91483500D01*
X202057000Y-91503500D01*
X203250155Y-91503500D01*
X203371476Y-91273610D01*
X203326825Y-91126401D01*
X203201641Y-90863580D01*
X203027588Y-90630231D01*
X202811355Y-90435322D01*
X202561252Y-90286343D01*
X202322821Y-90201764D01*
X202487519Y-90133544D01*
X202680294Y-90004736D01*
X202844236Y-89840794D01*
X202960027Y-89667500D01*
X227047669Y-89667500D01*
X227076000Y-89670290D01*
X227104331Y-89667500D01*
X227104336Y-89667500D01*
X227134045Y-89664574D01*
X227189111Y-89659151D01*
X227233770Y-89645603D01*
X227297876Y-89626157D01*
X227398115Y-89572579D01*
X227485974Y-89500474D01*
X227504039Y-89478462D01*
X233601501Y-83381000D01*
X236679499Y-83381000D01*
X239538461Y-86239962D01*
X239556526Y-86261974D01*
X239565000Y-86268929D01*
X239565000Y-86412267D01*
X239582755Y-86592533D01*
X239652916Y-86823823D01*
X239766851Y-87036982D01*
X239920183Y-87223817D01*
X240107017Y-87377149D01*
X240320176Y-87491084D01*
X240551466Y-87561245D01*
X240792000Y-87584936D01*
X241032533Y-87561245D01*
X241263823Y-87491084D01*
X241476982Y-87377149D01*
X241663817Y-87223817D01*
X241817149Y-87036983D01*
X241931084Y-86823824D01*
X242001245Y-86592534D01*
X242019000Y-86412268D01*
X242019000Y-85344184D01*
X242196394Y-85527210D01*
X242444796Y-85698862D01*
X242721913Y-85818755D01*
X242827260Y-85843036D01*
X243065000Y-85722378D01*
X243065000Y-83979000D01*
X241657000Y-83979000D01*
X241657000Y-84474588D01*
X241476983Y-84326851D01*
X241263824Y-84212916D01*
X241032534Y-84142755D01*
X240792000Y-84119064D01*
X240551467Y-84142755D01*
X240320177Y-84212916D01*
X240107018Y-84326851D01*
X239920184Y-84480183D01*
X239766852Y-84667017D01*
X239707868Y-84777367D01*
X238155501Y-83225000D01*
X241657000Y-83225000D01*
X241657000Y-83725000D01*
X243065000Y-83725000D01*
X243065000Y-81981622D01*
X242827260Y-81860964D01*
X242721913Y-81885245D01*
X242444796Y-82005138D01*
X242196394Y-82176790D01*
X241986252Y-82393604D01*
X241822446Y-82647249D01*
X241711271Y-82927977D01*
X241657000Y-83225000D01*
X238155501Y-83225000D01*
X237346539Y-82416038D01*
X237328474Y-82394026D01*
X237240615Y-82321921D01*
X237140376Y-82268343D01*
X237076270Y-82248897D01*
X237031611Y-82235349D01*
X236976545Y-82229926D01*
X236946836Y-82227000D01*
X236946831Y-82227000D01*
X236918500Y-82224210D01*
X236890169Y-82227000D01*
X233390839Y-82227000D01*
X233362500Y-82224209D01*
X233249388Y-82235349D01*
X233140623Y-82268343D01*
X233114728Y-82282184D01*
X233040385Y-82321921D01*
X232952526Y-82394026D01*
X232934461Y-82416038D01*
X226836999Y-88513500D01*
X202960027Y-88513500D01*
X202844236Y-88340206D01*
X202680294Y-88176264D01*
X202487519Y-88047456D01*
X202273318Y-87958731D01*
X202045924Y-87913500D01*
X201814076Y-87913500D01*
X201586682Y-87958731D01*
X201372481Y-88047456D01*
X201179706Y-88176264D01*
X201015764Y-88340206D01*
X200886956Y-88532981D01*
X200798231Y-88747182D01*
X200753000Y-88974576D01*
X200753000Y-89206424D01*
X200798231Y-89433818D01*
X200886956Y-89648019D01*
X201015764Y-89840794D01*
X201179706Y-90004736D01*
X201372481Y-90133544D01*
X201537179Y-90201764D01*
X201298748Y-90286343D01*
X201048645Y-90435322D01*
X200832412Y-90630231D01*
X200658359Y-90863580D01*
X200533175Y-91126401D01*
X200488524Y-91273610D01*
X156161235Y-91273610D01*
X156134042Y-91211071D01*
X155777396Y-90007054D01*
X155569831Y-88766700D01*
X155513001Y-87682314D01*
X155513001Y-83621397D01*
X208823000Y-83621397D01*
X208823000Y-83764603D01*
X208850938Y-83905058D01*
X208905741Y-84037364D01*
X208985302Y-84156436D01*
X209086564Y-84257698D01*
X209205636Y-84337259D01*
X209337942Y-84392062D01*
X209478397Y-84420000D01*
X209621603Y-84420000D01*
X209762058Y-84392062D01*
X209894364Y-84337259D01*
X210013436Y-84257698D01*
X210064634Y-84206500D01*
X219645975Y-84206500D01*
X219746636Y-84273759D01*
X219878942Y-84328562D01*
X220019397Y-84356500D01*
X220162603Y-84356500D01*
X220303058Y-84328562D01*
X220435364Y-84273759D01*
X220554436Y-84194198D01*
X220655698Y-84092936D01*
X220735259Y-83973864D01*
X220790062Y-83841558D01*
X220818000Y-83701103D01*
X220818000Y-83557897D01*
X220790062Y-83417442D01*
X220735259Y-83285136D01*
X220655698Y-83166064D01*
X220554436Y-83064802D01*
X220435364Y-82985241D01*
X220303058Y-82930438D01*
X220162603Y-82902500D01*
X220019397Y-82902500D01*
X219878942Y-82930438D01*
X219746636Y-82985241D01*
X219645975Y-83052500D01*
X209899990Y-83052500D01*
X209894364Y-83048741D01*
X209762058Y-82993938D01*
X209621603Y-82966000D01*
X209478397Y-82966000D01*
X209337942Y-82993938D01*
X209205636Y-83048741D01*
X209086564Y-83128302D01*
X208985302Y-83229564D01*
X208905741Y-83348636D01*
X208850938Y-83480942D01*
X208823000Y-83621397D01*
X155513001Y-83621397D01*
X155513001Y-79096890D01*
X156038524Y-79096890D01*
X156083175Y-79244099D01*
X156208359Y-79506920D01*
X156382412Y-79740269D01*
X156598645Y-79935178D01*
X156848748Y-80084157D01*
X156897408Y-80101418D01*
X156630000Y-80101418D01*
X156565897Y-80107732D01*
X156504257Y-80126430D01*
X156447450Y-80156794D01*
X156397657Y-80197657D01*
X156356794Y-80247450D01*
X156326430Y-80304257D01*
X156307732Y-80365897D01*
X156301418Y-80430000D01*
X156301418Y-82130000D01*
X156307732Y-82194103D01*
X156326430Y-82255743D01*
X156356794Y-82312550D01*
X156397657Y-82362343D01*
X156447450Y-82403206D01*
X156504257Y-82433570D01*
X156565897Y-82452268D01*
X156630000Y-82458582D01*
X158330000Y-82458582D01*
X158394103Y-82452268D01*
X158455743Y-82433570D01*
X158512550Y-82403206D01*
X158562343Y-82362343D01*
X158603206Y-82312550D01*
X158633570Y-82255743D01*
X158652268Y-82194103D01*
X158658582Y-82130000D01*
X158658582Y-80430000D01*
X158652268Y-80365897D01*
X158633570Y-80304257D01*
X158603206Y-80247450D01*
X158562343Y-80197657D01*
X158512550Y-80156794D01*
X158455743Y-80126430D01*
X158394103Y-80107732D01*
X158330000Y-80101418D01*
X158062592Y-80101418D01*
X158111252Y-80084157D01*
X158361355Y-79935178D01*
X158577588Y-79740269D01*
X158751641Y-79506920D01*
X158876825Y-79244099D01*
X158921476Y-79096890D01*
X158800155Y-78867000D01*
X157607000Y-78867000D01*
X157607000Y-78887000D01*
X157353000Y-78887000D01*
X157353000Y-78867000D01*
X156159845Y-78867000D01*
X156038524Y-79096890D01*
X155513001Y-79096890D01*
X155513001Y-78383110D01*
X156038524Y-78383110D01*
X156159845Y-78613000D01*
X157353000Y-78613000D01*
X157353000Y-78593000D01*
X157607000Y-78593000D01*
X157607000Y-78613000D01*
X158800155Y-78613000D01*
X158921476Y-78383110D01*
X158876825Y-78235901D01*
X158751641Y-77973080D01*
X158577588Y-77739731D01*
X158361355Y-77544822D01*
X158111252Y-77395843D01*
X157872821Y-77311264D01*
X158037519Y-77243044D01*
X158230294Y-77114236D01*
X158394236Y-76950294D01*
X158523044Y-76757519D01*
X158611769Y-76543318D01*
X158657000Y-76315924D01*
X158657000Y-76084076D01*
X158611769Y-75856682D01*
X158523044Y-75642481D01*
X158394236Y-75449706D01*
X158230294Y-75285764D01*
X158037519Y-75156956D01*
X157823318Y-75068231D01*
X157661085Y-75035961D01*
X230152000Y-75035961D01*
X230152000Y-75514039D01*
X230245268Y-75982930D01*
X230428221Y-76424615D01*
X230693826Y-76822122D01*
X231031878Y-77160174D01*
X231429385Y-77425779D01*
X231871070Y-77608732D01*
X232339961Y-77702000D01*
X232818039Y-77702000D01*
X233286930Y-77608732D01*
X233728615Y-77425779D01*
X234126122Y-77160174D01*
X234464174Y-76822122D01*
X234729779Y-76424615D01*
X234912732Y-75982930D01*
X235006000Y-75514039D01*
X235006000Y-75035961D01*
X234912732Y-74567070D01*
X234729779Y-74125385D01*
X234464174Y-73727878D01*
X234126122Y-73389826D01*
X233728615Y-73124221D01*
X233286930Y-72941268D01*
X233100330Y-72904151D01*
X234652000Y-72904151D01*
X234652000Y-73145849D01*
X234699153Y-73382903D01*
X234791647Y-73606202D01*
X234925927Y-73807167D01*
X235096833Y-73978073D01*
X235297798Y-74112353D01*
X235521097Y-74204847D01*
X235758151Y-74252000D01*
X235999849Y-74252000D01*
X236236903Y-74204847D01*
X236460202Y-74112353D01*
X236661167Y-73978073D01*
X236832073Y-73807167D01*
X236966353Y-73606202D01*
X237058847Y-73382903D01*
X237106000Y-73145849D01*
X237106000Y-72904151D01*
X237152000Y-72904151D01*
X237152000Y-73145849D01*
X237199153Y-73382903D01*
X237291647Y-73606202D01*
X237425927Y-73807167D01*
X237596833Y-73978073D01*
X237797798Y-74112353D01*
X238021097Y-74204847D01*
X238258151Y-74252000D01*
X238499849Y-74252000D01*
X238736903Y-74204847D01*
X238960202Y-74112353D01*
X239161167Y-73978073D01*
X239332073Y-73807167D01*
X239466353Y-73606202D01*
X239558847Y-73382903D01*
X239606000Y-73145849D01*
X239606000Y-72904151D01*
X239558847Y-72667097D01*
X239466353Y-72443798D01*
X239332073Y-72242833D01*
X239161167Y-72071927D01*
X238960202Y-71937647D01*
X238736903Y-71845153D01*
X238499849Y-71798000D01*
X238258151Y-71798000D01*
X238021097Y-71845153D01*
X237797798Y-71937647D01*
X237596833Y-72071927D01*
X237425927Y-72242833D01*
X237291647Y-72443798D01*
X237199153Y-72667097D01*
X237152000Y-72904151D01*
X237106000Y-72904151D01*
X237058847Y-72667097D01*
X236966353Y-72443798D01*
X236832073Y-72242833D01*
X236661167Y-72071927D01*
X236460202Y-71937647D01*
X236236903Y-71845153D01*
X235999849Y-71798000D01*
X235758151Y-71798000D01*
X235521097Y-71845153D01*
X235297798Y-71937647D01*
X235096833Y-72071927D01*
X234925927Y-72242833D01*
X234791647Y-72443798D01*
X234699153Y-72667097D01*
X234652000Y-72904151D01*
X233100330Y-72904151D01*
X232818039Y-72848000D01*
X232339961Y-72848000D01*
X231871070Y-72941268D01*
X231429385Y-73124221D01*
X231031878Y-73389826D01*
X230693826Y-73727878D01*
X230428221Y-74125385D01*
X230245268Y-74567070D01*
X230152000Y-75035961D01*
X157661085Y-75035961D01*
X157595924Y-75023000D01*
X157364076Y-75023000D01*
X157136682Y-75068231D01*
X156922481Y-75156956D01*
X156729706Y-75285764D01*
X156565764Y-75449706D01*
X156436956Y-75642481D01*
X156348231Y-75856682D01*
X156303000Y-76084076D01*
X156303000Y-76315924D01*
X156348231Y-76543318D01*
X156436956Y-76757519D01*
X156565764Y-76950294D01*
X156729706Y-77114236D01*
X156922481Y-77243044D01*
X157087179Y-77311264D01*
X156848748Y-77395843D01*
X156598645Y-77544822D01*
X156382412Y-77739731D01*
X156208359Y-77973080D01*
X156083175Y-78235901D01*
X156038524Y-78383110D01*
X155513001Y-78383110D01*
X155513001Y-73544076D01*
X156303000Y-73544076D01*
X156303000Y-73775924D01*
X156348231Y-74003318D01*
X156436956Y-74217519D01*
X156565764Y-74410294D01*
X156729706Y-74574236D01*
X156922481Y-74703044D01*
X157136682Y-74791769D01*
X157364076Y-74837000D01*
X157595924Y-74837000D01*
X157823318Y-74791769D01*
X158037519Y-74703044D01*
X158230294Y-74574236D01*
X158394236Y-74410294D01*
X158523044Y-74217519D01*
X158611769Y-74003318D01*
X158657000Y-73775924D01*
X158657000Y-73544076D01*
X158611769Y-73316682D01*
X158523044Y-73102481D01*
X158394236Y-72909706D01*
X158230294Y-72745764D01*
X158037519Y-72616956D01*
X157823318Y-72528231D01*
X157595924Y-72483000D01*
X157364076Y-72483000D01*
X157136682Y-72528231D01*
X156922481Y-72616956D01*
X156729706Y-72745764D01*
X156565764Y-72909706D01*
X156436956Y-73102481D01*
X156348231Y-73316682D01*
X156303000Y-73544076D01*
X155513001Y-73544076D01*
X155513001Y-70404151D01*
X234652000Y-70404151D01*
X234652000Y-70645849D01*
X234699153Y-70882903D01*
X234791647Y-71106202D01*
X234925927Y-71307167D01*
X235096833Y-71478073D01*
X235297798Y-71612353D01*
X235521097Y-71704847D01*
X235758151Y-71752000D01*
X235999849Y-71752000D01*
X236236903Y-71704847D01*
X236460202Y-71612353D01*
X236661167Y-71478073D01*
X236832073Y-71307167D01*
X236966353Y-71106202D01*
X237058847Y-70882903D01*
X237106000Y-70645849D01*
X237106000Y-70404151D01*
X237058847Y-70167097D01*
X236966353Y-69943798D01*
X236832073Y-69742833D01*
X236661167Y-69571927D01*
X236470163Y-69444303D01*
X236530199Y-69423222D01*
X236679792Y-69343261D01*
X236763475Y-69089080D01*
X235879000Y-68204605D01*
X234994525Y-69089080D01*
X235078208Y-69343261D01*
X235288159Y-69444087D01*
X235096833Y-69571927D01*
X234925927Y-69742833D01*
X234791647Y-69943798D01*
X234699153Y-70167097D01*
X234652000Y-70404151D01*
X155513001Y-70404151D01*
X155513000Y-66167000D01*
X203200000Y-66167000D01*
X203224776Y-66164560D01*
X203248601Y-66157333D01*
X203270557Y-66145597D01*
X203289803Y-66129803D01*
X203305597Y-66110557D01*
X203317333Y-66088601D01*
X203324560Y-66064776D01*
X203327000Y-66040000D01*
X203327000Y-60761397D01*
X207362500Y-60761397D01*
X207362500Y-60904603D01*
X207390438Y-61045058D01*
X207445241Y-61177364D01*
X207524802Y-61296436D01*
X207626064Y-61397698D01*
X207745136Y-61477259D01*
X207877442Y-61532062D01*
X207996179Y-61555680D01*
X209334363Y-62893864D01*
X209286741Y-62965136D01*
X209231938Y-63097442D01*
X209204000Y-63237897D01*
X209204000Y-63381103D01*
X209231938Y-63521558D01*
X209286741Y-63653864D01*
X209366302Y-63772936D01*
X209467564Y-63874198D01*
X209586636Y-63953759D01*
X209718942Y-64008562D01*
X209859397Y-64036500D01*
X210002603Y-64036500D01*
X210143058Y-64008562D01*
X210275364Y-63953759D01*
X210394436Y-63874198D01*
X210495698Y-63772936D01*
X210575259Y-63653864D01*
X210630062Y-63521558D01*
X210658000Y-63381103D01*
X210658000Y-63237897D01*
X210630062Y-63097442D01*
X210575259Y-62965136D01*
X210508000Y-62864475D01*
X210508000Y-62702828D01*
X210510790Y-62674499D01*
X210508000Y-62646170D01*
X210508000Y-62646164D01*
X210499650Y-62561388D01*
X210466657Y-62452624D01*
X210413079Y-62352385D01*
X210340974Y-62264526D01*
X210318962Y-62246461D01*
X208812180Y-60739679D01*
X208788562Y-60620942D01*
X208733759Y-60488636D01*
X208654198Y-60369564D01*
X208552936Y-60268302D01*
X208433864Y-60188741D01*
X208301558Y-60133938D01*
X208161103Y-60106000D01*
X208017897Y-60106000D01*
X207877442Y-60133938D01*
X207745136Y-60188741D01*
X207626064Y-60268302D01*
X207524802Y-60369564D01*
X207445241Y-60488636D01*
X207390438Y-60620942D01*
X207362500Y-60761397D01*
X203327000Y-60761397D01*
X203327000Y-49458397D01*
X211998000Y-49458397D01*
X211998000Y-49601603D01*
X212025938Y-49742058D01*
X212080741Y-49874364D01*
X212148000Y-49975025D01*
X212148000Y-50200169D01*
X212145210Y-50228500D01*
X212148000Y-50256831D01*
X212148000Y-50256836D01*
X212149519Y-50272259D01*
X212156349Y-50341611D01*
X212161301Y-50357935D01*
X212189343Y-50450376D01*
X212242922Y-50550615D01*
X212267859Y-50581000D01*
X212296963Y-50616464D01*
X212296966Y-50616467D01*
X212315027Y-50638474D01*
X212337034Y-50656535D01*
X223559320Y-61878822D01*
X223582938Y-61997558D01*
X223637741Y-62129864D01*
X223717302Y-62248936D01*
X223818564Y-62350198D01*
X223937636Y-62429759D01*
X224069942Y-62484562D01*
X224210397Y-62512500D01*
X224353603Y-62512500D01*
X224494058Y-62484562D01*
X224626364Y-62429759D01*
X224745436Y-62350198D01*
X224846698Y-62248936D01*
X224926259Y-62129864D01*
X224981062Y-61997558D01*
X225009000Y-61857103D01*
X225009000Y-61713897D01*
X224981062Y-61573442D01*
X224926259Y-61441136D01*
X224846698Y-61322064D01*
X224745436Y-61220802D01*
X224626364Y-61141241D01*
X224494058Y-61086438D01*
X224375322Y-61062820D01*
X215362399Y-52049897D01*
X216304000Y-52049897D01*
X216304000Y-52193103D01*
X216331938Y-52333558D01*
X216386741Y-52465864D01*
X216466302Y-52584936D01*
X216567564Y-52686198D01*
X216686636Y-52765759D01*
X216818942Y-52820562D01*
X216959397Y-52848500D01*
X217102603Y-52848500D01*
X217243058Y-52820562D01*
X217375364Y-52765759D01*
X217476025Y-52698500D01*
X222506999Y-52698500D01*
X225235501Y-55427002D01*
X225235502Y-57890160D01*
X225232711Y-57918501D01*
X225243850Y-58031612D01*
X225272798Y-58127035D01*
X225276845Y-58140377D01*
X225330423Y-58240616D01*
X225350716Y-58265343D01*
X225384464Y-58306465D01*
X225384467Y-58306468D01*
X225402528Y-58328475D01*
X225424535Y-58346536D01*
X230419714Y-63341716D01*
X230437775Y-63363723D01*
X230459782Y-63381784D01*
X230459784Y-63381786D01*
X230479729Y-63398154D01*
X230525634Y-63435828D01*
X230625873Y-63489406D01*
X230670531Y-63502953D01*
X230734637Y-63522400D01*
X230795720Y-63528415D01*
X230819413Y-63530749D01*
X230819417Y-63530749D01*
X230847748Y-63533539D01*
X230876079Y-63530749D01*
X231655045Y-63530749D01*
X231429385Y-63624221D01*
X231031878Y-63889826D01*
X230693826Y-64227878D01*
X230428221Y-64625385D01*
X230245268Y-65067070D01*
X230152000Y-65535961D01*
X230152000Y-66014039D01*
X230245268Y-66482930D01*
X230428221Y-66924615D01*
X230693826Y-67322122D01*
X231031878Y-67660174D01*
X231429385Y-67925779D01*
X231871070Y-68108732D01*
X232339961Y-68202000D01*
X232818039Y-68202000D01*
X233286930Y-68108732D01*
X233328403Y-68091553D01*
X234338009Y-68091553D01*
X234380603Y-68390907D01*
X234480778Y-68676199D01*
X234560739Y-68825792D01*
X234814920Y-68909475D01*
X235699395Y-68025000D01*
X236058605Y-68025000D01*
X236943080Y-68909475D01*
X237129000Y-68848265D01*
X237314920Y-68909475D01*
X238199395Y-68025000D01*
X237314920Y-67140525D01*
X237129000Y-67201735D01*
X236943080Y-67140525D01*
X236058605Y-68025000D01*
X235699395Y-68025000D01*
X234814920Y-67140525D01*
X234560739Y-67224208D01*
X234429842Y-67496775D01*
X234354635Y-67789642D01*
X234338009Y-68091553D01*
X233328403Y-68091553D01*
X233728615Y-67925779D01*
X234126122Y-67660174D01*
X234464174Y-67322122D01*
X234705520Y-66960920D01*
X234994525Y-66960920D01*
X235879000Y-67845395D01*
X236763475Y-66960920D01*
X236679792Y-66706739D01*
X236407225Y-66575842D01*
X236114358Y-66500635D01*
X235812447Y-66484009D01*
X235513093Y-66526603D01*
X235227801Y-66626778D01*
X235078208Y-66706739D01*
X234994525Y-66960920D01*
X234705520Y-66960920D01*
X234729779Y-66924615D01*
X234912732Y-66482930D01*
X235006000Y-66014039D01*
X235006000Y-65535961D01*
X234912732Y-65067070D01*
X234729779Y-64625385D01*
X234464174Y-64227878D01*
X234126122Y-63889826D01*
X233728615Y-63624221D01*
X233502955Y-63530749D01*
X235066750Y-63530749D01*
X238056436Y-66520436D01*
X238013093Y-66526603D01*
X237727801Y-66626778D01*
X237578208Y-66706739D01*
X237494525Y-66960920D01*
X238379000Y-67845395D01*
X238393143Y-67831253D01*
X238572748Y-68010858D01*
X238558605Y-68025000D01*
X238572748Y-68039143D01*
X238393143Y-68218748D01*
X238379000Y-68204605D01*
X237494525Y-69089080D01*
X237578208Y-69343261D01*
X237788159Y-69444087D01*
X237596833Y-69571927D01*
X237425927Y-69742833D01*
X237291647Y-69943798D01*
X237199153Y-70167097D01*
X237152000Y-70404151D01*
X237152000Y-70645849D01*
X237199153Y-70882903D01*
X237291647Y-71106202D01*
X237425927Y-71307167D01*
X237596833Y-71478073D01*
X237797798Y-71612353D01*
X238021097Y-71704847D01*
X238258151Y-71752000D01*
X238499849Y-71752000D01*
X238736903Y-71704847D01*
X238960202Y-71612353D01*
X239161167Y-71478073D01*
X239332073Y-71307167D01*
X239466353Y-71106202D01*
X239558847Y-70882903D01*
X239606000Y-70645849D01*
X239606000Y-70404151D01*
X239558847Y-70167097D01*
X239557106Y-70162895D01*
X240116963Y-69603038D01*
X240138975Y-69584973D01*
X240211080Y-69497114D01*
X240264658Y-69396875D01*
X240280922Y-69343261D01*
X240297652Y-69288111D01*
X240308791Y-69174999D01*
X240306001Y-69146668D01*
X240306001Y-67405327D01*
X240308791Y-67376998D01*
X240306001Y-67348669D01*
X240306001Y-67348663D01*
X240297651Y-67263887D01*
X240264658Y-67155123D01*
X240211080Y-67054884D01*
X240138975Y-66967025D01*
X240116970Y-66948966D01*
X235733790Y-62565787D01*
X235715725Y-62543775D01*
X235627866Y-62471670D01*
X235527627Y-62418092D01*
X235463521Y-62398646D01*
X235418862Y-62385098D01*
X235363796Y-62379675D01*
X235334087Y-62376749D01*
X235334082Y-62376749D01*
X235305751Y-62373959D01*
X235277420Y-62376749D01*
X231086751Y-62376749D01*
X226664734Y-57954732D01*
X233951000Y-57954732D01*
X233951000Y-59075267D01*
X233968755Y-59255533D01*
X234038916Y-59486823D01*
X234152851Y-59699982D01*
X234306183Y-59886817D01*
X234493017Y-60040149D01*
X234706176Y-60154084D01*
X234937466Y-60224245D01*
X235178000Y-60247936D01*
X235418533Y-60224245D01*
X235649823Y-60154084D01*
X235862982Y-60040149D01*
X236049817Y-59886817D01*
X236203149Y-59699983D01*
X236317084Y-59486824D01*
X236387245Y-59255534D01*
X236405000Y-59075268D01*
X236405000Y-57954732D01*
X236387245Y-57774466D01*
X236317084Y-57543176D01*
X236203149Y-57330017D01*
X236049817Y-57143183D01*
X235862983Y-56989851D01*
X235649824Y-56875916D01*
X235418534Y-56805755D01*
X235178000Y-56782064D01*
X234937467Y-56805755D01*
X234706177Y-56875916D01*
X234493018Y-56989851D01*
X234306184Y-57143183D01*
X234152852Y-57330017D01*
X234038916Y-57543176D01*
X233968755Y-57774466D01*
X233951000Y-57954732D01*
X226664734Y-57954732D01*
X226389501Y-57679500D01*
X226389501Y-55216329D01*
X226392291Y-55188000D01*
X226389501Y-55159671D01*
X226389501Y-55159665D01*
X226381151Y-55074889D01*
X226348158Y-54966125D01*
X226294580Y-54865886D01*
X226222475Y-54778027D01*
X226200464Y-54759963D01*
X223174039Y-51733538D01*
X223155974Y-51711526D01*
X223068115Y-51639421D01*
X222967876Y-51585843D01*
X222903770Y-51566397D01*
X222859111Y-51552849D01*
X222804045Y-51547426D01*
X222774336Y-51544500D01*
X222774331Y-51544500D01*
X222746000Y-51541710D01*
X222717669Y-51544500D01*
X217476025Y-51544500D01*
X217375364Y-51477241D01*
X217243058Y-51422438D01*
X217102603Y-51394500D01*
X216959397Y-51394500D01*
X216818942Y-51422438D01*
X216686636Y-51477241D01*
X216567564Y-51556802D01*
X216466302Y-51658064D01*
X216386741Y-51777136D01*
X216331938Y-51909442D01*
X216304000Y-52049897D01*
X215362399Y-52049897D01*
X213302000Y-49989499D01*
X213302000Y-49975025D01*
X213369259Y-49874364D01*
X213424062Y-49742058D01*
X213452000Y-49601603D01*
X213452000Y-49458397D01*
X213424062Y-49317942D01*
X213369259Y-49185636D01*
X213289698Y-49066564D01*
X213188436Y-48965302D01*
X213069364Y-48885741D01*
X212965155Y-48842576D01*
X231487000Y-48842576D01*
X231487000Y-49074424D01*
X231532231Y-49301818D01*
X231620956Y-49516019D01*
X231749764Y-49708794D01*
X231913706Y-49872736D01*
X232087000Y-49988527D01*
X232087001Y-52295659D01*
X232084210Y-52324000D01*
X232095349Y-52437111D01*
X232123975Y-52531474D01*
X232128344Y-52545876D01*
X232181922Y-52646115D01*
X232211831Y-52682559D01*
X232235963Y-52711964D01*
X232235966Y-52711967D01*
X232254027Y-52733974D01*
X232276034Y-52752035D01*
X238426965Y-58902967D01*
X238445026Y-58924974D01*
X238467033Y-58943035D01*
X238467035Y-58943037D01*
X238482660Y-58955860D01*
X238532885Y-58997079D01*
X238633124Y-59050657D01*
X238741888Y-59083650D01*
X238826664Y-59092000D01*
X238826670Y-59092000D01*
X238854999Y-59094790D01*
X238883328Y-59092000D01*
X239452648Y-59092000D01*
X239468755Y-59255533D01*
X239538916Y-59486823D01*
X239652851Y-59699982D01*
X239806183Y-59886817D01*
X239993017Y-60040149D01*
X240206176Y-60154084D01*
X240437466Y-60224245D01*
X240678000Y-60247936D01*
X240918533Y-60224245D01*
X241149823Y-60154084D01*
X241362982Y-60040149D01*
X241549817Y-59886817D01*
X241703149Y-59699983D01*
X241817084Y-59486824D01*
X241887245Y-59255534D01*
X241905000Y-59075268D01*
X241905000Y-58007184D01*
X242082394Y-58190210D01*
X242330796Y-58361862D01*
X242607913Y-58481755D01*
X242713260Y-58506036D01*
X242951000Y-58385378D01*
X242951000Y-56642000D01*
X241543000Y-56642000D01*
X241543000Y-57137588D01*
X241362983Y-56989851D01*
X241149824Y-56875916D01*
X240918534Y-56805755D01*
X240678000Y-56782064D01*
X240437467Y-56805755D01*
X240206177Y-56875916D01*
X239993018Y-56989851D01*
X239806184Y-57143183D01*
X239652852Y-57330017D01*
X239538916Y-57543176D01*
X239468755Y-57774466D01*
X239452648Y-57938000D01*
X239094002Y-57938000D01*
X237044002Y-55888000D01*
X241543000Y-55888000D01*
X241543000Y-56388000D01*
X242951000Y-56388000D01*
X242951000Y-54644622D01*
X242713260Y-54523964D01*
X242607913Y-54548245D01*
X242330796Y-54668138D01*
X242082394Y-54839790D01*
X241872252Y-55056604D01*
X241708446Y-55310249D01*
X241597271Y-55590977D01*
X241543000Y-55888000D01*
X237044002Y-55888000D01*
X233241000Y-52084999D01*
X233241000Y-49988527D01*
X233414294Y-49872736D01*
X233578236Y-49708794D01*
X233707044Y-49516019D01*
X233775264Y-49351321D01*
X233859843Y-49589752D01*
X234008822Y-49839855D01*
X234203731Y-50056088D01*
X234437080Y-50230141D01*
X234699901Y-50355325D01*
X234847110Y-50399976D01*
X235077000Y-50278655D01*
X235077000Y-49085500D01*
X235057000Y-49085500D01*
X235057000Y-48831500D01*
X235077000Y-48831500D01*
X235077000Y-47638345D01*
X235331000Y-47638345D01*
X235331000Y-48831500D01*
X235351000Y-48831500D01*
X235351000Y-49085500D01*
X235331000Y-49085500D01*
X235331000Y-50278655D01*
X235560890Y-50399976D01*
X235708099Y-50355325D01*
X235970920Y-50230141D01*
X236204269Y-50056088D01*
X236399178Y-49839855D01*
X236548157Y-49589752D01*
X236565418Y-49541092D01*
X236565418Y-49808500D01*
X236571732Y-49872603D01*
X236590430Y-49934243D01*
X236620794Y-49991050D01*
X236661657Y-50040843D01*
X236711450Y-50081706D01*
X236768257Y-50112070D01*
X236829897Y-50130768D01*
X236894000Y-50137082D01*
X238594000Y-50137082D01*
X238658103Y-50130768D01*
X238719743Y-50112070D01*
X238776550Y-50081706D01*
X238826343Y-50040843D01*
X238867206Y-49991050D01*
X238897570Y-49934243D01*
X238916268Y-49872603D01*
X238922582Y-49808500D01*
X238922582Y-48108500D01*
X238916268Y-48044397D01*
X238897570Y-47982757D01*
X238867206Y-47925950D01*
X238826343Y-47876157D01*
X238776550Y-47835294D01*
X238719743Y-47804930D01*
X238658103Y-47786232D01*
X238594000Y-47779918D01*
X236894000Y-47779918D01*
X236829897Y-47786232D01*
X236768257Y-47804930D01*
X236711450Y-47835294D01*
X236661657Y-47876157D01*
X236620794Y-47925950D01*
X236590430Y-47982757D01*
X236571732Y-48044397D01*
X236565418Y-48108500D01*
X236565418Y-48375908D01*
X236548157Y-48327248D01*
X236399178Y-48077145D01*
X236204269Y-47860912D01*
X235970920Y-47686859D01*
X235708099Y-47561675D01*
X235560890Y-47517024D01*
X235331000Y-47638345D01*
X235077000Y-47638345D01*
X234847110Y-47517024D01*
X234699901Y-47561675D01*
X234437080Y-47686859D01*
X234203731Y-47860912D01*
X234008822Y-48077145D01*
X233859843Y-48327248D01*
X233775264Y-48565679D01*
X233707044Y-48400981D01*
X233578236Y-48208206D01*
X233414294Y-48044264D01*
X233221519Y-47915456D01*
X233007318Y-47826731D01*
X232779924Y-47781500D01*
X232548076Y-47781500D01*
X232320682Y-47826731D01*
X232106481Y-47915456D01*
X231913706Y-48044264D01*
X231749764Y-48208206D01*
X231620956Y-48400981D01*
X231532231Y-48615182D01*
X231487000Y-48842576D01*
X212965155Y-48842576D01*
X212937058Y-48830938D01*
X212796603Y-48803000D01*
X212653397Y-48803000D01*
X212512942Y-48830938D01*
X212380636Y-48885741D01*
X212261564Y-48965302D01*
X212160302Y-49066564D01*
X212080741Y-49185636D01*
X212025938Y-49317942D01*
X211998000Y-49458397D01*
X203327000Y-49458397D01*
X203327000Y-44070499D01*
X234047930Y-44070499D01*
X235314391Y-44147959D01*
%TA.AperFunction,Conductor*%
D27*
G36*
X235314391Y-44147959D02*
G01*
X236549098Y-44376798D01*
X237746709Y-44754404D01*
X238889374Y-45275146D01*
X239960061Y-45931264D01*
X240942809Y-46712976D01*
X241822962Y-47608628D01*
X242587403Y-48604865D01*
X243224736Y-49686843D01*
X243725458Y-50838422D01*
X244082105Y-52042444D01*
X244289670Y-53282799D01*
X244346501Y-54367205D01*
X244346501Y-55153774D01*
X244283748Y-55056604D01*
X244073606Y-54839790D01*
X243825204Y-54668138D01*
X243548087Y-54548245D01*
X243442740Y-54523964D01*
X243205000Y-54644622D01*
X243205000Y-56388000D01*
X243225000Y-56388000D01*
X243225000Y-56642000D01*
X243205000Y-56642000D01*
X243205000Y-58385378D01*
X243442740Y-58506036D01*
X243548087Y-58481755D01*
X243825204Y-58361862D01*
X244073606Y-58190210D01*
X244283748Y-57973396D01*
X244346501Y-57876226D01*
X244346500Y-82340729D01*
X244187606Y-82176790D01*
X243939204Y-82005138D01*
X243662087Y-81885245D01*
X243556740Y-81860964D01*
X243319000Y-81981622D01*
X243319000Y-83725000D01*
X243339000Y-83725000D01*
X243339000Y-83979000D01*
X243319000Y-83979000D01*
X243319000Y-85722378D01*
X243556740Y-85843036D01*
X243662087Y-85818755D01*
X243939204Y-85698862D01*
X244187606Y-85527210D01*
X244346500Y-85363271D01*
X244346500Y-87680446D01*
X244269041Y-88946890D01*
X244040202Y-90181595D01*
X243662598Y-91379201D01*
X243141854Y-92521873D01*
X242485737Y-93592558D01*
X241704020Y-94575311D01*
X240808372Y-95455461D01*
X239812135Y-96219902D01*
X238730157Y-96857235D01*
X237578573Y-97357958D01*
X236374557Y-97714604D01*
X235134201Y-97922169D01*
X234049816Y-97978999D01*
X165811570Y-97978999D01*
X164545109Y-97901539D01*
X163310404Y-97672700D01*
X162112796Y-97295095D01*
X160970120Y-96774348D01*
X159899442Y-96118235D01*
X158916688Y-95336518D01*
X158036538Y-94440871D01*
X157272098Y-93444633D01*
X156634764Y-92362653D01*
X156471596Y-91987390D01*
X200488524Y-91987390D01*
X200533175Y-92134599D01*
X200658359Y-92397420D01*
X200832412Y-92630769D01*
X201048645Y-92825678D01*
X201298748Y-92974657D01*
X201347408Y-92991918D01*
X201080000Y-92991918D01*
X201015897Y-92998232D01*
X200954257Y-93016930D01*
X200897450Y-93047294D01*
X200847657Y-93088157D01*
X200806794Y-93137950D01*
X200776430Y-93194757D01*
X200757732Y-93256397D01*
X200751418Y-93320500D01*
X200751418Y-95020500D01*
X200757732Y-95084603D01*
X200776430Y-95146243D01*
X200806794Y-95203050D01*
X200847657Y-95252843D01*
X200897450Y-95293706D01*
X200954257Y-95324070D01*
X201015897Y-95342768D01*
X201080000Y-95349082D01*
X202780000Y-95349082D01*
X202844103Y-95342768D01*
X202905743Y-95324070D01*
X202962550Y-95293706D01*
X203012343Y-95252843D01*
X203053206Y-95203050D01*
X203083570Y-95146243D01*
X203102268Y-95084603D01*
X203108582Y-95020500D01*
X203108582Y-94747500D01*
X228825669Y-94747500D01*
X228854000Y-94750290D01*
X228882331Y-94747500D01*
X228882336Y-94747500D01*
X228912045Y-94744574D01*
X228967111Y-94739151D01*
X229011770Y-94725603D01*
X229075876Y-94706157D01*
X229176115Y-94652579D01*
X229263974Y-94580474D01*
X229282039Y-94558462D01*
X235679962Y-88160539D01*
X235701974Y-88142474D01*
X235774079Y-88054615D01*
X235827657Y-87954376D01*
X235856985Y-87857695D01*
X235860651Y-87845612D01*
X235866363Y-87787614D01*
X235869000Y-87760836D01*
X235869000Y-87760831D01*
X235871790Y-87732500D01*
X235869000Y-87704169D01*
X235869000Y-87434866D01*
X235976982Y-87377149D01*
X236163817Y-87223817D01*
X236317149Y-87036983D01*
X236431084Y-86823824D01*
X236501245Y-86592534D01*
X236519000Y-86412268D01*
X236519000Y-85291732D01*
X236501245Y-85111466D01*
X236431084Y-84880176D01*
X236317149Y-84667017D01*
X236163817Y-84480183D01*
X235976983Y-84326851D01*
X235763824Y-84212916D01*
X235532534Y-84142755D01*
X235292000Y-84119064D01*
X235051467Y-84142755D01*
X234820177Y-84212916D01*
X234607018Y-84326851D01*
X234420184Y-84480183D01*
X234266852Y-84667017D01*
X234152916Y-84880176D01*
X234082755Y-85111466D01*
X234065000Y-85291732D01*
X234065000Y-86412267D01*
X234082755Y-86592533D01*
X234152916Y-86823823D01*
X234266851Y-87036982D01*
X234420183Y-87223817D01*
X234607017Y-87377149D01*
X234715001Y-87434867D01*
X234715001Y-87493498D01*
X228614999Y-93593500D01*
X203108582Y-93593500D01*
X203108582Y-93320500D01*
X203102268Y-93256397D01*
X203083570Y-93194757D01*
X203053206Y-93137950D01*
X203012343Y-93088157D01*
X202962550Y-93047294D01*
X202905743Y-93016930D01*
X202844103Y-92998232D01*
X202780000Y-92991918D01*
X202512592Y-92991918D01*
X202561252Y-92974657D01*
X202811355Y-92825678D01*
X203027588Y-92630769D01*
X203201641Y-92397420D01*
X203326825Y-92134599D01*
X203371476Y-91987390D01*
X203250155Y-91757500D01*
X202057000Y-91757500D01*
X202057000Y-91777500D01*
X201803000Y-91777500D01*
X201803000Y-91757500D01*
X200609845Y-91757500D01*
X200488524Y-91987390D01*
X156471596Y-91987390D01*
X156161235Y-91273610D01*
X200488524Y-91273610D01*
X200609845Y-91503500D01*
X201803000Y-91503500D01*
X201803000Y-91483500D01*
X202057000Y-91483500D01*
X202057000Y-91503500D01*
X203250155Y-91503500D01*
X203371476Y-91273610D01*
X203326825Y-91126401D01*
X203201641Y-90863580D01*
X203027588Y-90630231D01*
X202811355Y-90435322D01*
X202561252Y-90286343D01*
X202322821Y-90201764D01*
X202487519Y-90133544D01*
X202680294Y-90004736D01*
X202844236Y-89840794D01*
X202960027Y-89667500D01*
X227047669Y-89667500D01*
X227076000Y-89670290D01*
X227104331Y-89667500D01*
X227104336Y-89667500D01*
X227134045Y-89664574D01*
X227189111Y-89659151D01*
X227233770Y-89645603D01*
X227297876Y-89626157D01*
X227398115Y-89572579D01*
X227485974Y-89500474D01*
X227504039Y-89478462D01*
X233601501Y-83381000D01*
X236679499Y-83381000D01*
X239538461Y-86239962D01*
X239556526Y-86261974D01*
X239565000Y-86268929D01*
X239565000Y-86412267D01*
X239582755Y-86592533D01*
X239652916Y-86823823D01*
X239766851Y-87036982D01*
X239920183Y-87223817D01*
X240107017Y-87377149D01*
X240320176Y-87491084D01*
X240551466Y-87561245D01*
X240792000Y-87584936D01*
X241032533Y-87561245D01*
X241263823Y-87491084D01*
X241476982Y-87377149D01*
X241663817Y-87223817D01*
X241817149Y-87036983D01*
X241931084Y-86823824D01*
X242001245Y-86592534D01*
X242019000Y-86412268D01*
X242019000Y-85344184D01*
X242196394Y-85527210D01*
X242444796Y-85698862D01*
X242721913Y-85818755D01*
X242827260Y-85843036D01*
X243065000Y-85722378D01*
X243065000Y-83979000D01*
X241657000Y-83979000D01*
X241657000Y-84474588D01*
X241476983Y-84326851D01*
X241263824Y-84212916D01*
X241032534Y-84142755D01*
X240792000Y-84119064D01*
X240551467Y-84142755D01*
X240320177Y-84212916D01*
X240107018Y-84326851D01*
X239920184Y-84480183D01*
X239766852Y-84667017D01*
X239707868Y-84777367D01*
X238155501Y-83225000D01*
X241657000Y-83225000D01*
X241657000Y-83725000D01*
X243065000Y-83725000D01*
X243065000Y-81981622D01*
X242827260Y-81860964D01*
X242721913Y-81885245D01*
X242444796Y-82005138D01*
X242196394Y-82176790D01*
X241986252Y-82393604D01*
X241822446Y-82647249D01*
X241711271Y-82927977D01*
X241657000Y-83225000D01*
X238155501Y-83225000D01*
X237346539Y-82416038D01*
X237328474Y-82394026D01*
X237240615Y-82321921D01*
X237140376Y-82268343D01*
X237076270Y-82248897D01*
X237031611Y-82235349D01*
X236976545Y-82229926D01*
X236946836Y-82227000D01*
X236946831Y-82227000D01*
X236918500Y-82224210D01*
X236890169Y-82227000D01*
X233390839Y-82227000D01*
X233362500Y-82224209D01*
X233249388Y-82235349D01*
X233140623Y-82268343D01*
X233114728Y-82282184D01*
X233040385Y-82321921D01*
X232952526Y-82394026D01*
X232934461Y-82416038D01*
X226836999Y-88513500D01*
X202960027Y-88513500D01*
X202844236Y-88340206D01*
X202680294Y-88176264D01*
X202487519Y-88047456D01*
X202273318Y-87958731D01*
X202045924Y-87913500D01*
X201814076Y-87913500D01*
X201586682Y-87958731D01*
X201372481Y-88047456D01*
X201179706Y-88176264D01*
X201015764Y-88340206D01*
X200886956Y-88532981D01*
X200798231Y-88747182D01*
X200753000Y-88974576D01*
X200753000Y-89206424D01*
X200798231Y-89433818D01*
X200886956Y-89648019D01*
X201015764Y-89840794D01*
X201179706Y-90004736D01*
X201372481Y-90133544D01*
X201537179Y-90201764D01*
X201298748Y-90286343D01*
X201048645Y-90435322D01*
X200832412Y-90630231D01*
X200658359Y-90863580D01*
X200533175Y-91126401D01*
X200488524Y-91273610D01*
X156161235Y-91273610D01*
X156134042Y-91211071D01*
X155777396Y-90007054D01*
X155569831Y-88766700D01*
X155513001Y-87682314D01*
X155513001Y-83621397D01*
X208823000Y-83621397D01*
X208823000Y-83764603D01*
X208850938Y-83905058D01*
X208905741Y-84037364D01*
X208985302Y-84156436D01*
X209086564Y-84257698D01*
X209205636Y-84337259D01*
X209337942Y-84392062D01*
X209478397Y-84420000D01*
X209621603Y-84420000D01*
X209762058Y-84392062D01*
X209894364Y-84337259D01*
X210013436Y-84257698D01*
X210064634Y-84206500D01*
X219645975Y-84206500D01*
X219746636Y-84273759D01*
X219878942Y-84328562D01*
X220019397Y-84356500D01*
X220162603Y-84356500D01*
X220303058Y-84328562D01*
X220435364Y-84273759D01*
X220554436Y-84194198D01*
X220655698Y-84092936D01*
X220735259Y-83973864D01*
X220790062Y-83841558D01*
X220818000Y-83701103D01*
X220818000Y-83557897D01*
X220790062Y-83417442D01*
X220735259Y-83285136D01*
X220655698Y-83166064D01*
X220554436Y-83064802D01*
X220435364Y-82985241D01*
X220303058Y-82930438D01*
X220162603Y-82902500D01*
X220019397Y-82902500D01*
X219878942Y-82930438D01*
X219746636Y-82985241D01*
X219645975Y-83052500D01*
X209899990Y-83052500D01*
X209894364Y-83048741D01*
X209762058Y-82993938D01*
X209621603Y-82966000D01*
X209478397Y-82966000D01*
X209337942Y-82993938D01*
X209205636Y-83048741D01*
X209086564Y-83128302D01*
X208985302Y-83229564D01*
X208905741Y-83348636D01*
X208850938Y-83480942D01*
X208823000Y-83621397D01*
X155513001Y-83621397D01*
X155513001Y-79096890D01*
X156038524Y-79096890D01*
X156083175Y-79244099D01*
X156208359Y-79506920D01*
X156382412Y-79740269D01*
X156598645Y-79935178D01*
X156848748Y-80084157D01*
X156897408Y-80101418D01*
X156630000Y-80101418D01*
X156565897Y-80107732D01*
X156504257Y-80126430D01*
X156447450Y-80156794D01*
X156397657Y-80197657D01*
X156356794Y-80247450D01*
X156326430Y-80304257D01*
X156307732Y-80365897D01*
X156301418Y-80430000D01*
X156301418Y-82130000D01*
X156307732Y-82194103D01*
X156326430Y-82255743D01*
X156356794Y-82312550D01*
X156397657Y-82362343D01*
X156447450Y-82403206D01*
X156504257Y-82433570D01*
X156565897Y-82452268D01*
X156630000Y-82458582D01*
X158330000Y-82458582D01*
X158394103Y-82452268D01*
X158455743Y-82433570D01*
X158512550Y-82403206D01*
X158562343Y-82362343D01*
X158603206Y-82312550D01*
X158633570Y-82255743D01*
X158652268Y-82194103D01*
X158658582Y-82130000D01*
X158658582Y-80430000D01*
X158652268Y-80365897D01*
X158633570Y-80304257D01*
X158603206Y-80247450D01*
X158562343Y-80197657D01*
X158512550Y-80156794D01*
X158455743Y-80126430D01*
X158394103Y-80107732D01*
X158330000Y-80101418D01*
X158062592Y-80101418D01*
X158111252Y-80084157D01*
X158361355Y-79935178D01*
X158577588Y-79740269D01*
X158751641Y-79506920D01*
X158876825Y-79244099D01*
X158921476Y-79096890D01*
X158800155Y-78867000D01*
X157607000Y-78867000D01*
X157607000Y-78887000D01*
X157353000Y-78887000D01*
X157353000Y-78867000D01*
X156159845Y-78867000D01*
X156038524Y-79096890D01*
X155513001Y-79096890D01*
X155513001Y-78383110D01*
X156038524Y-78383110D01*
X156159845Y-78613000D01*
X157353000Y-78613000D01*
X157353000Y-78593000D01*
X157607000Y-78593000D01*
X157607000Y-78613000D01*
X158800155Y-78613000D01*
X158921476Y-78383110D01*
X158876825Y-78235901D01*
X158751641Y-77973080D01*
X158577588Y-77739731D01*
X158361355Y-77544822D01*
X158111252Y-77395843D01*
X157872821Y-77311264D01*
X158037519Y-77243044D01*
X158230294Y-77114236D01*
X158394236Y-76950294D01*
X158523044Y-76757519D01*
X158611769Y-76543318D01*
X158657000Y-76315924D01*
X158657000Y-76084076D01*
X158611769Y-75856682D01*
X158523044Y-75642481D01*
X158394236Y-75449706D01*
X158230294Y-75285764D01*
X158037519Y-75156956D01*
X157823318Y-75068231D01*
X157661085Y-75035961D01*
X230152000Y-75035961D01*
X230152000Y-75514039D01*
X230245268Y-75982930D01*
X230428221Y-76424615D01*
X230693826Y-76822122D01*
X231031878Y-77160174D01*
X231429385Y-77425779D01*
X231871070Y-77608732D01*
X232339961Y-77702000D01*
X232818039Y-77702000D01*
X233286930Y-77608732D01*
X233728615Y-77425779D01*
X234126122Y-77160174D01*
X234464174Y-76822122D01*
X234729779Y-76424615D01*
X234912732Y-75982930D01*
X235006000Y-75514039D01*
X235006000Y-75035961D01*
X234912732Y-74567070D01*
X234729779Y-74125385D01*
X234464174Y-73727878D01*
X234126122Y-73389826D01*
X233728615Y-73124221D01*
X233286930Y-72941268D01*
X233100330Y-72904151D01*
X234652000Y-72904151D01*
X234652000Y-73145849D01*
X234699153Y-73382903D01*
X234791647Y-73606202D01*
X234925927Y-73807167D01*
X235096833Y-73978073D01*
X235297798Y-74112353D01*
X235521097Y-74204847D01*
X235758151Y-74252000D01*
X235999849Y-74252000D01*
X236236903Y-74204847D01*
X236460202Y-74112353D01*
X236661167Y-73978073D01*
X236832073Y-73807167D01*
X236966353Y-73606202D01*
X237058847Y-73382903D01*
X237106000Y-73145849D01*
X237106000Y-72904151D01*
X237152000Y-72904151D01*
X237152000Y-73145849D01*
X237199153Y-73382903D01*
X237291647Y-73606202D01*
X237425927Y-73807167D01*
X237596833Y-73978073D01*
X237797798Y-74112353D01*
X238021097Y-74204847D01*
X238258151Y-74252000D01*
X238499849Y-74252000D01*
X238736903Y-74204847D01*
X238960202Y-74112353D01*
X239161167Y-73978073D01*
X239332073Y-73807167D01*
X239466353Y-73606202D01*
X239558847Y-73382903D01*
X239606000Y-73145849D01*
X239606000Y-72904151D01*
X239558847Y-72667097D01*
X239466353Y-72443798D01*
X239332073Y-72242833D01*
X239161167Y-72071927D01*
X238960202Y-71937647D01*
X238736903Y-71845153D01*
X238499849Y-71798000D01*
X238258151Y-71798000D01*
X238021097Y-71845153D01*
X237797798Y-71937647D01*
X237596833Y-72071927D01*
X237425927Y-72242833D01*
X237291647Y-72443798D01*
X237199153Y-72667097D01*
X237152000Y-72904151D01*
X237106000Y-72904151D01*
X237058847Y-72667097D01*
X236966353Y-72443798D01*
X236832073Y-72242833D01*
X236661167Y-72071927D01*
X236460202Y-71937647D01*
X236236903Y-71845153D01*
X235999849Y-71798000D01*
X235758151Y-71798000D01*
X235521097Y-71845153D01*
X235297798Y-71937647D01*
X235096833Y-72071927D01*
X234925927Y-72242833D01*
X234791647Y-72443798D01*
X234699153Y-72667097D01*
X234652000Y-72904151D01*
X233100330Y-72904151D01*
X232818039Y-72848000D01*
X232339961Y-72848000D01*
X231871070Y-72941268D01*
X231429385Y-73124221D01*
X231031878Y-73389826D01*
X230693826Y-73727878D01*
X230428221Y-74125385D01*
X230245268Y-74567070D01*
X230152000Y-75035961D01*
X157661085Y-75035961D01*
X157595924Y-75023000D01*
X157364076Y-75023000D01*
X157136682Y-75068231D01*
X156922481Y-75156956D01*
X156729706Y-75285764D01*
X156565764Y-75449706D01*
X156436956Y-75642481D01*
X156348231Y-75856682D01*
X156303000Y-76084076D01*
X156303000Y-76315924D01*
X156348231Y-76543318D01*
X156436956Y-76757519D01*
X156565764Y-76950294D01*
X156729706Y-77114236D01*
X156922481Y-77243044D01*
X157087179Y-77311264D01*
X156848748Y-77395843D01*
X156598645Y-77544822D01*
X156382412Y-77739731D01*
X156208359Y-77973080D01*
X156083175Y-78235901D01*
X156038524Y-78383110D01*
X155513001Y-78383110D01*
X155513001Y-73544076D01*
X156303000Y-73544076D01*
X156303000Y-73775924D01*
X156348231Y-74003318D01*
X156436956Y-74217519D01*
X156565764Y-74410294D01*
X156729706Y-74574236D01*
X156922481Y-74703044D01*
X157136682Y-74791769D01*
X157364076Y-74837000D01*
X157595924Y-74837000D01*
X157823318Y-74791769D01*
X158037519Y-74703044D01*
X158230294Y-74574236D01*
X158394236Y-74410294D01*
X158523044Y-74217519D01*
X158611769Y-74003318D01*
X158657000Y-73775924D01*
X158657000Y-73544076D01*
X158611769Y-73316682D01*
X158523044Y-73102481D01*
X158394236Y-72909706D01*
X158230294Y-72745764D01*
X158037519Y-72616956D01*
X157823318Y-72528231D01*
X157595924Y-72483000D01*
X157364076Y-72483000D01*
X157136682Y-72528231D01*
X156922481Y-72616956D01*
X156729706Y-72745764D01*
X156565764Y-72909706D01*
X156436956Y-73102481D01*
X156348231Y-73316682D01*
X156303000Y-73544076D01*
X155513001Y-73544076D01*
X155513001Y-70404151D01*
X234652000Y-70404151D01*
X234652000Y-70645849D01*
X234699153Y-70882903D01*
X234791647Y-71106202D01*
X234925927Y-71307167D01*
X235096833Y-71478073D01*
X235297798Y-71612353D01*
X235521097Y-71704847D01*
X235758151Y-71752000D01*
X235999849Y-71752000D01*
X236236903Y-71704847D01*
X236460202Y-71612353D01*
X236661167Y-71478073D01*
X236832073Y-71307167D01*
X236966353Y-71106202D01*
X237058847Y-70882903D01*
X237106000Y-70645849D01*
X237106000Y-70404151D01*
X237058847Y-70167097D01*
X236966353Y-69943798D01*
X236832073Y-69742833D01*
X236661167Y-69571927D01*
X236470163Y-69444303D01*
X236530199Y-69423222D01*
X236679792Y-69343261D01*
X236763475Y-69089080D01*
X235879000Y-68204605D01*
X234994525Y-69089080D01*
X235078208Y-69343261D01*
X235288159Y-69444087D01*
X235096833Y-69571927D01*
X234925927Y-69742833D01*
X234791647Y-69943798D01*
X234699153Y-70167097D01*
X234652000Y-70404151D01*
X155513001Y-70404151D01*
X155513000Y-66167000D01*
X203200000Y-66167000D01*
X203224776Y-66164560D01*
X203248601Y-66157333D01*
X203270557Y-66145597D01*
X203289803Y-66129803D01*
X203305597Y-66110557D01*
X203317333Y-66088601D01*
X203324560Y-66064776D01*
X203327000Y-66040000D01*
X203327000Y-60761397D01*
X207362500Y-60761397D01*
X207362500Y-60904603D01*
X207390438Y-61045058D01*
X207445241Y-61177364D01*
X207524802Y-61296436D01*
X207626064Y-61397698D01*
X207745136Y-61477259D01*
X207877442Y-61532062D01*
X207996179Y-61555680D01*
X209334363Y-62893864D01*
X209286741Y-62965136D01*
X209231938Y-63097442D01*
X209204000Y-63237897D01*
X209204000Y-63381103D01*
X209231938Y-63521558D01*
X209286741Y-63653864D01*
X209366302Y-63772936D01*
X209467564Y-63874198D01*
X209586636Y-63953759D01*
X209718942Y-64008562D01*
X209859397Y-64036500D01*
X210002603Y-64036500D01*
X210143058Y-64008562D01*
X210275364Y-63953759D01*
X210394436Y-63874198D01*
X210495698Y-63772936D01*
X210575259Y-63653864D01*
X210630062Y-63521558D01*
X210658000Y-63381103D01*
X210658000Y-63237897D01*
X210630062Y-63097442D01*
X210575259Y-62965136D01*
X210508000Y-62864475D01*
X210508000Y-62702828D01*
X210510790Y-62674499D01*
X210508000Y-62646170D01*
X210508000Y-62646164D01*
X210499650Y-62561388D01*
X210466657Y-62452624D01*
X210413079Y-62352385D01*
X210340974Y-62264526D01*
X210318962Y-62246461D01*
X208812180Y-60739679D01*
X208788562Y-60620942D01*
X208733759Y-60488636D01*
X208654198Y-60369564D01*
X208552936Y-60268302D01*
X208433864Y-60188741D01*
X208301558Y-60133938D01*
X208161103Y-60106000D01*
X208017897Y-60106000D01*
X207877442Y-60133938D01*
X207745136Y-60188741D01*
X207626064Y-60268302D01*
X207524802Y-60369564D01*
X207445241Y-60488636D01*
X207390438Y-60620942D01*
X207362500Y-60761397D01*
X203327000Y-60761397D01*
X203327000Y-49458397D01*
X211998000Y-49458397D01*
X211998000Y-49601603D01*
X212025938Y-49742058D01*
X212080741Y-49874364D01*
X212148000Y-49975025D01*
X212148000Y-50200169D01*
X212145210Y-50228500D01*
X212148000Y-50256831D01*
X212148000Y-50256836D01*
X212149519Y-50272259D01*
X212156349Y-50341611D01*
X212161301Y-50357935D01*
X212189343Y-50450376D01*
X212242922Y-50550615D01*
X212267859Y-50581000D01*
X212296963Y-50616464D01*
X212296966Y-50616467D01*
X212315027Y-50638474D01*
X212337034Y-50656535D01*
X223559320Y-61878822D01*
X223582938Y-61997558D01*
X223637741Y-62129864D01*
X223717302Y-62248936D01*
X223818564Y-62350198D01*
X223937636Y-62429759D01*
X224069942Y-62484562D01*
X224210397Y-62512500D01*
X224353603Y-62512500D01*
X224494058Y-62484562D01*
X224626364Y-62429759D01*
X224745436Y-62350198D01*
X224846698Y-62248936D01*
X224926259Y-62129864D01*
X224981062Y-61997558D01*
X225009000Y-61857103D01*
X225009000Y-61713897D01*
X224981062Y-61573442D01*
X224926259Y-61441136D01*
X224846698Y-61322064D01*
X224745436Y-61220802D01*
X224626364Y-61141241D01*
X224494058Y-61086438D01*
X224375322Y-61062820D01*
X215362399Y-52049897D01*
X216304000Y-52049897D01*
X216304000Y-52193103D01*
X216331938Y-52333558D01*
X216386741Y-52465864D01*
X216466302Y-52584936D01*
X216567564Y-52686198D01*
X216686636Y-52765759D01*
X216818942Y-52820562D01*
X216959397Y-52848500D01*
X217102603Y-52848500D01*
X217243058Y-52820562D01*
X217375364Y-52765759D01*
X217476025Y-52698500D01*
X222506999Y-52698500D01*
X225235501Y-55427002D01*
X225235502Y-57890160D01*
X225232711Y-57918501D01*
X225243850Y-58031612D01*
X225272798Y-58127035D01*
X225276845Y-58140377D01*
X225330423Y-58240616D01*
X225350716Y-58265343D01*
X225384464Y-58306465D01*
X225384467Y-58306468D01*
X225402528Y-58328475D01*
X225424535Y-58346536D01*
X230419714Y-63341716D01*
X230437775Y-63363723D01*
X230459782Y-63381784D01*
X230459784Y-63381786D01*
X230479729Y-63398154D01*
X230525634Y-63435828D01*
X230625873Y-63489406D01*
X230670531Y-63502953D01*
X230734637Y-63522400D01*
X230795720Y-63528415D01*
X230819413Y-63530749D01*
X230819417Y-63530749D01*
X230847748Y-63533539D01*
X230876079Y-63530749D01*
X231655045Y-63530749D01*
X231429385Y-63624221D01*
X231031878Y-63889826D01*
X230693826Y-64227878D01*
X230428221Y-64625385D01*
X230245268Y-65067070D01*
X230152000Y-65535961D01*
X230152000Y-66014039D01*
X230245268Y-66482930D01*
X230428221Y-66924615D01*
X230693826Y-67322122D01*
X231031878Y-67660174D01*
X231429385Y-67925779D01*
X231871070Y-68108732D01*
X232339961Y-68202000D01*
X232818039Y-68202000D01*
X233286930Y-68108732D01*
X233328403Y-68091553D01*
X234338009Y-68091553D01*
X234380603Y-68390907D01*
X234480778Y-68676199D01*
X234560739Y-68825792D01*
X234814920Y-68909475D01*
X235699395Y-68025000D01*
X236058605Y-68025000D01*
X236943080Y-68909475D01*
X237129000Y-68848265D01*
X237314920Y-68909475D01*
X238199395Y-68025000D01*
X237314920Y-67140525D01*
X237129000Y-67201735D01*
X236943080Y-67140525D01*
X236058605Y-68025000D01*
X235699395Y-68025000D01*
X234814920Y-67140525D01*
X234560739Y-67224208D01*
X234429842Y-67496775D01*
X234354635Y-67789642D01*
X234338009Y-68091553D01*
X233328403Y-68091553D01*
X233728615Y-67925779D01*
X234126122Y-67660174D01*
X234464174Y-67322122D01*
X234705520Y-66960920D01*
X234994525Y-66960920D01*
X235879000Y-67845395D01*
X236763475Y-66960920D01*
X236679792Y-66706739D01*
X236407225Y-66575842D01*
X236114358Y-66500635D01*
X235812447Y-66484009D01*
X235513093Y-66526603D01*
X235227801Y-66626778D01*
X235078208Y-66706739D01*
X234994525Y-66960920D01*
X234705520Y-66960920D01*
X234729779Y-66924615D01*
X234912732Y-66482930D01*
X235006000Y-66014039D01*
X235006000Y-65535961D01*
X234912732Y-65067070D01*
X234729779Y-64625385D01*
X234464174Y-64227878D01*
X234126122Y-63889826D01*
X233728615Y-63624221D01*
X233502955Y-63530749D01*
X235066750Y-63530749D01*
X238056436Y-66520436D01*
X238013093Y-66526603D01*
X237727801Y-66626778D01*
X237578208Y-66706739D01*
X237494525Y-66960920D01*
X238379000Y-67845395D01*
X238393143Y-67831253D01*
X238572748Y-68010858D01*
X238558605Y-68025000D01*
X238572748Y-68039143D01*
X238393143Y-68218748D01*
X238379000Y-68204605D01*
X237494525Y-69089080D01*
X237578208Y-69343261D01*
X237788159Y-69444087D01*
X237596833Y-69571927D01*
X237425927Y-69742833D01*
X237291647Y-69943798D01*
X237199153Y-70167097D01*
X237152000Y-70404151D01*
X237152000Y-70645849D01*
X237199153Y-70882903D01*
X237291647Y-71106202D01*
X237425927Y-71307167D01*
X237596833Y-71478073D01*
X237797798Y-71612353D01*
X238021097Y-71704847D01*
X238258151Y-71752000D01*
X238499849Y-71752000D01*
X238736903Y-71704847D01*
X238960202Y-71612353D01*
X239161167Y-71478073D01*
X239332073Y-71307167D01*
X239466353Y-71106202D01*
X239558847Y-70882903D01*
X239606000Y-70645849D01*
X239606000Y-70404151D01*
X239558847Y-70167097D01*
X239557106Y-70162895D01*
X240116963Y-69603038D01*
X240138975Y-69584973D01*
X240211080Y-69497114D01*
X240264658Y-69396875D01*
X240280922Y-69343261D01*
X240297652Y-69288111D01*
X240308791Y-69174999D01*
X240306001Y-69146668D01*
X240306001Y-67405327D01*
X240308791Y-67376998D01*
X240306001Y-67348669D01*
X240306001Y-67348663D01*
X240297651Y-67263887D01*
X240264658Y-67155123D01*
X240211080Y-67054884D01*
X240138975Y-66967025D01*
X240116970Y-66948966D01*
X235733790Y-62565787D01*
X235715725Y-62543775D01*
X235627866Y-62471670D01*
X235527627Y-62418092D01*
X235463521Y-62398646D01*
X235418862Y-62385098D01*
X235363796Y-62379675D01*
X235334087Y-62376749D01*
X235334082Y-62376749D01*
X235305751Y-62373959D01*
X235277420Y-62376749D01*
X231086751Y-62376749D01*
X226664734Y-57954732D01*
X233951000Y-57954732D01*
X233951000Y-59075267D01*
X233968755Y-59255533D01*
X234038916Y-59486823D01*
X234152851Y-59699982D01*
X234306183Y-59886817D01*
X234493017Y-60040149D01*
X234706176Y-60154084D01*
X234937466Y-60224245D01*
X235178000Y-60247936D01*
X235418533Y-60224245D01*
X235649823Y-60154084D01*
X235862982Y-60040149D01*
X236049817Y-59886817D01*
X236203149Y-59699983D01*
X236317084Y-59486824D01*
X236387245Y-59255534D01*
X236405000Y-59075268D01*
X236405000Y-57954732D01*
X236387245Y-57774466D01*
X236317084Y-57543176D01*
X236203149Y-57330017D01*
X236049817Y-57143183D01*
X235862983Y-56989851D01*
X235649824Y-56875916D01*
X235418534Y-56805755D01*
X235178000Y-56782064D01*
X234937467Y-56805755D01*
X234706177Y-56875916D01*
X234493018Y-56989851D01*
X234306184Y-57143183D01*
X234152852Y-57330017D01*
X234038916Y-57543176D01*
X233968755Y-57774466D01*
X233951000Y-57954732D01*
X226664734Y-57954732D01*
X226389501Y-57679500D01*
X226389501Y-55216329D01*
X226392291Y-55188000D01*
X226389501Y-55159671D01*
X226389501Y-55159665D01*
X226381151Y-55074889D01*
X226348158Y-54966125D01*
X226294580Y-54865886D01*
X226222475Y-54778027D01*
X226200464Y-54759963D01*
X223174039Y-51733538D01*
X223155974Y-51711526D01*
X223068115Y-51639421D01*
X222967876Y-51585843D01*
X222903770Y-51566397D01*
X222859111Y-51552849D01*
X222804045Y-51547426D01*
X222774336Y-51544500D01*
X222774331Y-51544500D01*
X222746000Y-51541710D01*
X222717669Y-51544500D01*
X217476025Y-51544500D01*
X217375364Y-51477241D01*
X217243058Y-51422438D01*
X217102603Y-51394500D01*
X216959397Y-51394500D01*
X216818942Y-51422438D01*
X216686636Y-51477241D01*
X216567564Y-51556802D01*
X216466302Y-51658064D01*
X216386741Y-51777136D01*
X216331938Y-51909442D01*
X216304000Y-52049897D01*
X215362399Y-52049897D01*
X213302000Y-49989499D01*
X213302000Y-49975025D01*
X213369259Y-49874364D01*
X213424062Y-49742058D01*
X213452000Y-49601603D01*
X213452000Y-49458397D01*
X213424062Y-49317942D01*
X213369259Y-49185636D01*
X213289698Y-49066564D01*
X213188436Y-48965302D01*
X213069364Y-48885741D01*
X212965155Y-48842576D01*
X231487000Y-48842576D01*
X231487000Y-49074424D01*
X231532231Y-49301818D01*
X231620956Y-49516019D01*
X231749764Y-49708794D01*
X231913706Y-49872736D01*
X232087000Y-49988527D01*
X232087001Y-52295659D01*
X232084210Y-52324000D01*
X232095349Y-52437111D01*
X232123975Y-52531474D01*
X232128344Y-52545876D01*
X232181922Y-52646115D01*
X232211831Y-52682559D01*
X232235963Y-52711964D01*
X232235966Y-52711967D01*
X232254027Y-52733974D01*
X232276034Y-52752035D01*
X238426965Y-58902967D01*
X238445026Y-58924974D01*
X238467033Y-58943035D01*
X238467035Y-58943037D01*
X238482660Y-58955860D01*
X238532885Y-58997079D01*
X238633124Y-59050657D01*
X238741888Y-59083650D01*
X238826664Y-59092000D01*
X238826670Y-59092000D01*
X238854999Y-59094790D01*
X238883328Y-59092000D01*
X239452648Y-59092000D01*
X239468755Y-59255533D01*
X239538916Y-59486823D01*
X239652851Y-59699982D01*
X239806183Y-59886817D01*
X239993017Y-60040149D01*
X240206176Y-60154084D01*
X240437466Y-60224245D01*
X240678000Y-60247936D01*
X240918533Y-60224245D01*
X241149823Y-60154084D01*
X241362982Y-60040149D01*
X241549817Y-59886817D01*
X241703149Y-59699983D01*
X241817084Y-59486824D01*
X241887245Y-59255534D01*
X241905000Y-59075268D01*
X241905000Y-58007184D01*
X242082394Y-58190210D01*
X242330796Y-58361862D01*
X242607913Y-58481755D01*
X242713260Y-58506036D01*
X242951000Y-58385378D01*
X242951000Y-56642000D01*
X241543000Y-56642000D01*
X241543000Y-57137588D01*
X241362983Y-56989851D01*
X241149824Y-56875916D01*
X240918534Y-56805755D01*
X240678000Y-56782064D01*
X240437467Y-56805755D01*
X240206177Y-56875916D01*
X239993018Y-56989851D01*
X239806184Y-57143183D01*
X239652852Y-57330017D01*
X239538916Y-57543176D01*
X239468755Y-57774466D01*
X239452648Y-57938000D01*
X239094002Y-57938000D01*
X237044002Y-55888000D01*
X241543000Y-55888000D01*
X241543000Y-56388000D01*
X242951000Y-56388000D01*
X242951000Y-54644622D01*
X242713260Y-54523964D01*
X242607913Y-54548245D01*
X242330796Y-54668138D01*
X242082394Y-54839790D01*
X241872252Y-55056604D01*
X241708446Y-55310249D01*
X241597271Y-55590977D01*
X241543000Y-55888000D01*
X237044002Y-55888000D01*
X233241000Y-52084999D01*
X233241000Y-49988527D01*
X233414294Y-49872736D01*
X233578236Y-49708794D01*
X233707044Y-49516019D01*
X233775264Y-49351321D01*
X233859843Y-49589752D01*
X234008822Y-49839855D01*
X234203731Y-50056088D01*
X234437080Y-50230141D01*
X234699901Y-50355325D01*
X234847110Y-50399976D01*
X235077000Y-50278655D01*
X235077000Y-49085500D01*
X235057000Y-49085500D01*
X235057000Y-48831500D01*
X235077000Y-48831500D01*
X235077000Y-47638345D01*
X235331000Y-47638345D01*
X235331000Y-48831500D01*
X235351000Y-48831500D01*
X235351000Y-49085500D01*
X235331000Y-49085500D01*
X235331000Y-50278655D01*
X235560890Y-50399976D01*
X235708099Y-50355325D01*
X235970920Y-50230141D01*
X236204269Y-50056088D01*
X236399178Y-49839855D01*
X236548157Y-49589752D01*
X236565418Y-49541092D01*
X236565418Y-49808500D01*
X236571732Y-49872603D01*
X236590430Y-49934243D01*
X236620794Y-49991050D01*
X236661657Y-50040843D01*
X236711450Y-50081706D01*
X236768257Y-50112070D01*
X236829897Y-50130768D01*
X236894000Y-50137082D01*
X238594000Y-50137082D01*
X238658103Y-50130768D01*
X238719743Y-50112070D01*
X238776550Y-50081706D01*
X238826343Y-50040843D01*
X238867206Y-49991050D01*
X238897570Y-49934243D01*
X238916268Y-49872603D01*
X238922582Y-49808500D01*
X238922582Y-48108500D01*
X238916268Y-48044397D01*
X238897570Y-47982757D01*
X238867206Y-47925950D01*
X238826343Y-47876157D01*
X238776550Y-47835294D01*
X238719743Y-47804930D01*
X238658103Y-47786232D01*
X238594000Y-47779918D01*
X236894000Y-47779918D01*
X236829897Y-47786232D01*
X236768257Y-47804930D01*
X236711450Y-47835294D01*
X236661657Y-47876157D01*
X236620794Y-47925950D01*
X236590430Y-47982757D01*
X236571732Y-48044397D01*
X236565418Y-48108500D01*
X236565418Y-48375908D01*
X236548157Y-48327248D01*
X236399178Y-48077145D01*
X236204269Y-47860912D01*
X235970920Y-47686859D01*
X235708099Y-47561675D01*
X235560890Y-47517024D01*
X235331000Y-47638345D01*
X235077000Y-47638345D01*
X234847110Y-47517024D01*
X234699901Y-47561675D01*
X234437080Y-47686859D01*
X234203731Y-47860912D01*
X234008822Y-48077145D01*
X233859843Y-48327248D01*
X233775264Y-48565679D01*
X233707044Y-48400981D01*
X233578236Y-48208206D01*
X233414294Y-48044264D01*
X233221519Y-47915456D01*
X233007318Y-47826731D01*
X232779924Y-47781500D01*
X232548076Y-47781500D01*
X232320682Y-47826731D01*
X232106481Y-47915456D01*
X231913706Y-48044264D01*
X231749764Y-48208206D01*
X231620956Y-48400981D01*
X231532231Y-48615182D01*
X231487000Y-48842576D01*
X212965155Y-48842576D01*
X212937058Y-48830938D01*
X212796603Y-48803000D01*
X212653397Y-48803000D01*
X212512942Y-48830938D01*
X212380636Y-48885741D01*
X212261564Y-48965302D01*
X212160302Y-49066564D01*
X212080741Y-49185636D01*
X212025938Y-49317942D01*
X211998000Y-49458397D01*
X203327000Y-49458397D01*
X203327000Y-44070499D01*
X234047930Y-44070499D01*
X235314391Y-44147959D01*
G37*
%TD.AperFunction*%
%TD*%
M02*
