%TF.GenerationSoftware,KiCad,Pcbnew,(5.1.8)-1*%
%TF.CreationDate,2021-03-14T21:45:14-06:00*%
%TF.ProjectId,Audio Card,41756469-6f20-4436-9172-642e6b696361,rev?*%
%TF.SameCoordinates,Original*%
%TF.FileFunction,Soldermask,Bot*%
%TF.FilePolarity,Negative*%
%FSLAX46Y46*%
G04 Gerber Fmt 4.6, Leading zero omitted, Abs format (unit mm)*
G04 Created by KiCad (PCBNEW (5.1.8)-1) date 2021-03-14 21:45:14*
%MOMM*%
%LPD*%
G01*
G04 APERTURE LIST*
%ADD10O,1.700000X1.700000*%
%ADD11R,1.700000X1.700000*%
%ADD12O,1.700000X0.900000*%
%ADD13O,2.400000X0.900000*%
%ADD14C,0.700000*%
%ADD15C,4.200000*%
%ADD16C,1.800000*%
%ADD17O,1.800000X2.800000*%
G04 APERTURE END LIST*
D10*
%TO.C,J6*%
X201930000Y-89090500D03*
X201930000Y-91630500D03*
D11*
X201930000Y-94170500D03*
%TD*%
D12*
%TO.C,P1*%
X158200000Y-63180000D03*
X158200000Y-54530000D03*
D13*
X161580000Y-63180000D03*
X161580000Y-54530000D03*
D14*
X161210000Y-59280000D03*
X161210000Y-61830000D03*
X161210000Y-60980000D03*
X161210000Y-60130000D03*
X161210000Y-55880000D03*
X161210000Y-57580000D03*
X161210000Y-58430000D03*
X161210000Y-56730000D03*
X162560000Y-61830000D03*
X162560000Y-60980000D03*
X162560000Y-60130000D03*
X162560000Y-59280000D03*
X162560000Y-58430000D03*
X162560000Y-57580000D03*
X162560000Y-56730000D03*
X162560000Y-55880000D03*
%TD*%
D10*
%TO.C,J5*%
X157480000Y-73660000D03*
X157480000Y-76200000D03*
X157480000Y-78740000D03*
D11*
X157480000Y-81280000D03*
%TD*%
D15*
%TO.C,RV1*%
X232579000Y-75275000D03*
X232579000Y-65775000D03*
D16*
X235879000Y-73025000D03*
X235879000Y-70525000D03*
X235879000Y-68025000D03*
X238379000Y-73025000D03*
X238379000Y-70525000D03*
X238379000Y-68025000D03*
%TD*%
D10*
%TO.C,J4*%
X172847000Y-45847000D03*
X170307000Y-45847000D03*
D11*
X167767000Y-45847000D03*
%TD*%
D10*
%TO.C,J3*%
X232664000Y-48958500D03*
X235204000Y-48958500D03*
D11*
X237744000Y-48958500D03*
%TD*%
D17*
%TO.C,J2*%
X235292000Y-85852000D03*
X240792000Y-85852000D03*
X243192000Y-83852000D03*
%TD*%
%TO.C,J1*%
X235178000Y-58515000D03*
X240678000Y-58515000D03*
X243078000Y-56515000D03*
%TD*%
M02*
