M48
; DRILL file {KiCad (5.1.8)-1} date 03/14/21 21:45:16
; FORMAT={-:-/ absolute / inch / decimal}
; #@! TF.CreationDate,2021-03-14T21:45:16-06:00
; #@! TF.GenerationSoftware,Kicad,Pcbnew,(5.1.8)-1
FMAT,2
INCH
T1C0.0079
T2C0.0118
T3C0.0157
T4C0.0236
T5C0.0394
T6C0.0827
%
G90
G05
T1
X6.9681Y-2.2641
X6.9681Y-2.3074
X7.0114Y-2.2641
X7.0114Y-2.3074
T2
X6.805Y-2.1375
X6.805Y-2.395
X6.925Y-2.53
X6.935Y-2.025
X7.515Y-2.2425
X7.655Y-2.315
X7.712Y-2.2038
X7.712Y-2.2432
X7.712Y-2.2826
T3
X6.605Y-2.02
X6.85Y-2.5125
X6.885Y-2.285
X7.1325Y-2.1975
X7.145Y-2.32
X7.615Y-2.2028
X7.7425Y-2.555
X7.815Y-2.1
X7.8425Y-2.4675
X8.1925Y-2.395
X8.25Y-3.295
X8.265Y-2.4925
X8.375Y-1.95
X8.3825Y-2.575
X8.4775Y-2.395
X8.5445Y-2.052
X8.665Y-3.2925
X8.7925Y-2.8675
X8.8075Y-2.1725
X8.83Y-2.4325
X8.855Y-1.96
X8.96Y-2.5725
X6.3469Y-2.2
X6.3469Y-2.2335
X6.3469Y-2.2669
X6.3469Y-2.3004
X6.3469Y-2.3339
X6.3469Y-2.3673
X6.3469Y-2.4008
X6.3469Y-2.4343
X6.4Y-2.2
X6.4Y-2.2335
X6.4Y-2.2669
X6.4Y-2.3004
X6.4Y-2.3339
X6.4Y-2.3673
X6.4Y-2.4008
X6.4Y-2.4343
T5
X9.2866Y-2.6781
X9.2866Y-2.7766
X9.2866Y-2.875
X9.385Y-2.6781
X9.385Y-2.7766
X9.385Y-2.875
X7.95Y-3.5075
X7.95Y-3.6075
X7.95Y-3.7075
X6.2Y-2.9
X6.2Y-3.0
X6.2Y-3.1
X6.2Y-3.2
X9.16Y-1.9275
X9.26Y-1.9275
X9.36Y-1.9275
X6.605Y-1.805
X6.705Y-1.805
X6.805Y-1.805
T6
X9.1567Y-2.5896
X9.1567Y-2.9636
T4
G00X6.2441Y-2.1469
M15
G01X6.2126Y-2.1469
M16
G05
G00X6.2441Y-2.4874
M15
G01X6.2126Y-2.4874
M16
G05
G00X6.3909Y-2.1469
M15
G01X6.3319Y-2.1469
M16
G05
G00X6.3909Y-2.4874
M15
G01X6.3319Y-2.4874
M16
G05
T5
G00X9.259Y-2.2841
M15
G01X9.259Y-2.3234
M16
G05
G00X9.4755Y-2.2841
M15
G01X9.4755Y-2.3234
M16
G05
G00X9.57Y-2.2053
M15
G01X9.57Y-2.2447
M16
G05
G00X9.2635Y-3.3603
M15
G01X9.2635Y-3.3997
M16
G05
G00X9.48Y-3.3603
M15
G01X9.48Y-3.3997
M16
G05
G00X9.5745Y-3.2816
M15
G01X9.5745Y-3.3209
M16
G05
T0
M30
