%TF.GenerationSoftware,KiCad,Pcbnew,(5.1.8)-1*%
%TF.CreationDate,2021-03-14T21:45:14-06:00*%
%TF.ProjectId,Audio Card,41756469-6f20-4436-9172-642e6b696361,rev?*%
%TF.SameCoordinates,Original*%
%TF.FileFunction,Soldermask,Top*%
%TF.FilePolarity,Negative*%
%FSLAX46Y46*%
G04 Gerber Fmt 4.6, Leading zero omitted, Abs format (unit mm)*
G04 Created by KiCad (PCBNEW (5.1.8)-1) date 2021-03-14 21:45:14*
%MOMM*%
%LPD*%
G01*
G04 APERTURE LIST*
%ADD10O,1.700000X1.700000*%
%ADD11R,1.700000X1.700000*%
%ADD12O,1.700000X0.900000*%
%ADD13O,2.400000X0.900000*%
%ADD14C,0.700000*%
%ADD15R,1.000000X2.650000*%
%ADD16R,0.500000X0.250000*%
%ADD17C,4.200000*%
%ADD18C,1.800000*%
%ADD19O,1.800000X2.800000*%
G04 APERTURE END LIST*
%TO.C,U9*%
G36*
G01*
X176664200Y-56995100D02*
X176664200Y-56245100D01*
G75*
G02*
X176726700Y-56182600I62500J0D01*
G01*
X176851700Y-56182600D01*
G75*
G02*
X176914200Y-56245100I0J-62500D01*
G01*
X176914200Y-56995100D01*
G75*
G02*
X176851700Y-57057600I-62500J0D01*
G01*
X176726700Y-57057600D01*
G75*
G02*
X176664200Y-56995100I0J62500D01*
G01*
G37*
G36*
G01*
X177164200Y-56995100D02*
X177164200Y-56245100D01*
G75*
G02*
X177226700Y-56182600I62500J0D01*
G01*
X177351700Y-56182600D01*
G75*
G02*
X177414200Y-56245100I0J-62500D01*
G01*
X177414200Y-56995100D01*
G75*
G02*
X177351700Y-57057600I-62500J0D01*
G01*
X177226700Y-57057600D01*
G75*
G02*
X177164200Y-56995100I0J62500D01*
G01*
G37*
G36*
G01*
X177664200Y-56995100D02*
X177664200Y-56245100D01*
G75*
G02*
X177726700Y-56182600I62500J0D01*
G01*
X177851700Y-56182600D01*
G75*
G02*
X177914200Y-56245100I0J-62500D01*
G01*
X177914200Y-56995100D01*
G75*
G02*
X177851700Y-57057600I-62500J0D01*
G01*
X177726700Y-57057600D01*
G75*
G02*
X177664200Y-56995100I0J62500D01*
G01*
G37*
G36*
G01*
X178164200Y-56995100D02*
X178164200Y-56245100D01*
G75*
G02*
X178226700Y-56182600I62500J0D01*
G01*
X178351700Y-56182600D01*
G75*
G02*
X178414200Y-56245100I0J-62500D01*
G01*
X178414200Y-56995100D01*
G75*
G02*
X178351700Y-57057600I-62500J0D01*
G01*
X178226700Y-57057600D01*
G75*
G02*
X178164200Y-56995100I0J62500D01*
G01*
G37*
G36*
G01*
X178539200Y-57370100D02*
X178539200Y-57245100D01*
G75*
G02*
X178601700Y-57182600I62500J0D01*
G01*
X179351700Y-57182600D01*
G75*
G02*
X179414200Y-57245100I0J-62500D01*
G01*
X179414200Y-57370100D01*
G75*
G02*
X179351700Y-57432600I-62500J0D01*
G01*
X178601700Y-57432600D01*
G75*
G02*
X178539200Y-57370100I0J62500D01*
G01*
G37*
G36*
G01*
X178539200Y-57870100D02*
X178539200Y-57745100D01*
G75*
G02*
X178601700Y-57682600I62500J0D01*
G01*
X179351700Y-57682600D01*
G75*
G02*
X179414200Y-57745100I0J-62500D01*
G01*
X179414200Y-57870100D01*
G75*
G02*
X179351700Y-57932600I-62500J0D01*
G01*
X178601700Y-57932600D01*
G75*
G02*
X178539200Y-57870100I0J62500D01*
G01*
G37*
G36*
G01*
X178539200Y-58370100D02*
X178539200Y-58245100D01*
G75*
G02*
X178601700Y-58182600I62500J0D01*
G01*
X179351700Y-58182600D01*
G75*
G02*
X179414200Y-58245100I0J-62500D01*
G01*
X179414200Y-58370100D01*
G75*
G02*
X179351700Y-58432600I-62500J0D01*
G01*
X178601700Y-58432600D01*
G75*
G02*
X178539200Y-58370100I0J62500D01*
G01*
G37*
G36*
G01*
X178539200Y-58870100D02*
X178539200Y-58745100D01*
G75*
G02*
X178601700Y-58682600I62500J0D01*
G01*
X179351700Y-58682600D01*
G75*
G02*
X179414200Y-58745100I0J-62500D01*
G01*
X179414200Y-58870100D01*
G75*
G02*
X179351700Y-58932600I-62500J0D01*
G01*
X178601700Y-58932600D01*
G75*
G02*
X178539200Y-58870100I0J62500D01*
G01*
G37*
G36*
G01*
X178164200Y-59870100D02*
X178164200Y-59120100D01*
G75*
G02*
X178226700Y-59057600I62500J0D01*
G01*
X178351700Y-59057600D01*
G75*
G02*
X178414200Y-59120100I0J-62500D01*
G01*
X178414200Y-59870100D01*
G75*
G02*
X178351700Y-59932600I-62500J0D01*
G01*
X178226700Y-59932600D01*
G75*
G02*
X178164200Y-59870100I0J62500D01*
G01*
G37*
G36*
G01*
X177664200Y-59870100D02*
X177664200Y-59120100D01*
G75*
G02*
X177726700Y-59057600I62500J0D01*
G01*
X177851700Y-59057600D01*
G75*
G02*
X177914200Y-59120100I0J-62500D01*
G01*
X177914200Y-59870100D01*
G75*
G02*
X177851700Y-59932600I-62500J0D01*
G01*
X177726700Y-59932600D01*
G75*
G02*
X177664200Y-59870100I0J62500D01*
G01*
G37*
G36*
G01*
X177164200Y-59870100D02*
X177164200Y-59120100D01*
G75*
G02*
X177226700Y-59057600I62500J0D01*
G01*
X177351700Y-59057600D01*
G75*
G02*
X177414200Y-59120100I0J-62500D01*
G01*
X177414200Y-59870100D01*
G75*
G02*
X177351700Y-59932600I-62500J0D01*
G01*
X177226700Y-59932600D01*
G75*
G02*
X177164200Y-59870100I0J62500D01*
G01*
G37*
G36*
G01*
X176664200Y-59870100D02*
X176664200Y-59120100D01*
G75*
G02*
X176726700Y-59057600I62500J0D01*
G01*
X176851700Y-59057600D01*
G75*
G02*
X176914200Y-59120100I0J-62500D01*
G01*
X176914200Y-59870100D01*
G75*
G02*
X176851700Y-59932600I-62500J0D01*
G01*
X176726700Y-59932600D01*
G75*
G02*
X176664200Y-59870100I0J62500D01*
G01*
G37*
G36*
G01*
X175664200Y-58870100D02*
X175664200Y-58745100D01*
G75*
G02*
X175726700Y-58682600I62500J0D01*
G01*
X176476700Y-58682600D01*
G75*
G02*
X176539200Y-58745100I0J-62500D01*
G01*
X176539200Y-58870100D01*
G75*
G02*
X176476700Y-58932600I-62500J0D01*
G01*
X175726700Y-58932600D01*
G75*
G02*
X175664200Y-58870100I0J62500D01*
G01*
G37*
G36*
G01*
X175664200Y-58370100D02*
X175664200Y-58245100D01*
G75*
G02*
X175726700Y-58182600I62500J0D01*
G01*
X176476700Y-58182600D01*
G75*
G02*
X176539200Y-58245100I0J-62500D01*
G01*
X176539200Y-58370100D01*
G75*
G02*
X176476700Y-58432600I-62500J0D01*
G01*
X175726700Y-58432600D01*
G75*
G02*
X175664200Y-58370100I0J62500D01*
G01*
G37*
G36*
G01*
X175664200Y-57870100D02*
X175664200Y-57745100D01*
G75*
G02*
X175726700Y-57682600I62500J0D01*
G01*
X176476700Y-57682600D01*
G75*
G02*
X176539200Y-57745100I0J-62500D01*
G01*
X176539200Y-57870100D01*
G75*
G02*
X176476700Y-57932600I-62500J0D01*
G01*
X175726700Y-57932600D01*
G75*
G02*
X175664200Y-57870100I0J62500D01*
G01*
G37*
G36*
G01*
X175664200Y-57370100D02*
X175664200Y-57245100D01*
G75*
G02*
X175726700Y-57182600I62500J0D01*
G01*
X176476700Y-57182600D01*
G75*
G02*
X176539200Y-57245100I0J-62500D01*
G01*
X176539200Y-57370100D01*
G75*
G02*
X176476700Y-57432600I-62500J0D01*
G01*
X175726700Y-57432600D01*
G75*
G02*
X175664200Y-57370100I0J62500D01*
G01*
G37*
G36*
G01*
X176739200Y-58607600D02*
X176739200Y-57507600D01*
G75*
G02*
X176989200Y-57257600I250000J0D01*
G01*
X178089200Y-57257600D01*
G75*
G02*
X178339200Y-57507600I0J-250000D01*
G01*
X178339200Y-58607600D01*
G75*
G02*
X178089200Y-58857600I-250000J0D01*
G01*
X176989200Y-58857600D01*
G75*
G02*
X176739200Y-58607600I0J250000D01*
G01*
G37*
%TD*%
D10*
%TO.C,J6*%
X201930000Y-89090500D03*
X201930000Y-91630500D03*
D11*
X201930000Y-94170500D03*
%TD*%
%TO.C,C22*%
G36*
G01*
X216275499Y-59441500D02*
X217175501Y-59441500D01*
G75*
G02*
X217425500Y-59691499I0J-249999D01*
G01*
X217425500Y-60341501D01*
G75*
G02*
X217175501Y-60591500I-249999J0D01*
G01*
X216275499Y-60591500D01*
G75*
G02*
X216025500Y-60341501I0J249999D01*
G01*
X216025500Y-59691499D01*
G75*
G02*
X216275499Y-59441500I249999J0D01*
G01*
G37*
G36*
G01*
X216275499Y-57391500D02*
X217175501Y-57391500D01*
G75*
G02*
X217425500Y-57641499I0J-249999D01*
G01*
X217425500Y-58291501D01*
G75*
G02*
X217175501Y-58541500I-249999J0D01*
G01*
X216275499Y-58541500D01*
G75*
G02*
X216025500Y-58291501I0J249999D01*
G01*
X216025500Y-57641499D01*
G75*
G02*
X216275499Y-57391500I249999J0D01*
G01*
G37*
%TD*%
%TO.C,C21*%
G36*
G01*
X226247000Y-64140501D02*
X226247000Y-63240499D01*
G75*
G02*
X226496999Y-62990500I249999J0D01*
G01*
X227147001Y-62990500D01*
G75*
G02*
X227397000Y-63240499I0J-249999D01*
G01*
X227397000Y-64140501D01*
G75*
G02*
X227147001Y-64390500I-249999J0D01*
G01*
X226496999Y-64390500D01*
G75*
G02*
X226247000Y-64140501I0J249999D01*
G01*
G37*
G36*
G01*
X224197000Y-64140501D02*
X224197000Y-63240499D01*
G75*
G02*
X224446999Y-62990500I249999J0D01*
G01*
X225097001Y-62990500D01*
G75*
G02*
X225347000Y-63240499I0J-249999D01*
G01*
X225347000Y-64140501D01*
G75*
G02*
X225097001Y-64390500I-249999J0D01*
G01*
X224446999Y-64390500D01*
G75*
G02*
X224197000Y-64140501I0J249999D01*
G01*
G37*
%TD*%
%TO.C,C20*%
G36*
G01*
X221675000Y-55123501D02*
X221675000Y-54223499D01*
G75*
G02*
X221924999Y-53973500I249999J0D01*
G01*
X222575001Y-53973500D01*
G75*
G02*
X222825000Y-54223499I0J-249999D01*
G01*
X222825000Y-55123501D01*
G75*
G02*
X222575001Y-55373500I-249999J0D01*
G01*
X221924999Y-55373500D01*
G75*
G02*
X221675000Y-55123501I0J249999D01*
G01*
G37*
G36*
G01*
X219625000Y-55123501D02*
X219625000Y-54223499D01*
G75*
G02*
X219874999Y-53973500I249999J0D01*
G01*
X220525001Y-53973500D01*
G75*
G02*
X220775000Y-54223499I0J-249999D01*
G01*
X220775000Y-55123501D01*
G75*
G02*
X220525001Y-55373500I-249999J0D01*
G01*
X219874999Y-55373500D01*
G75*
G02*
X219625000Y-55123501I0J249999D01*
G01*
G37*
%TD*%
%TO.C,C19*%
G36*
G01*
X220085499Y-86501500D02*
X220985501Y-86501500D01*
G75*
G02*
X221235500Y-86751499I0J-249999D01*
G01*
X221235500Y-87401501D01*
G75*
G02*
X220985501Y-87651500I-249999J0D01*
G01*
X220085499Y-87651500D01*
G75*
G02*
X219835500Y-87401501I0J249999D01*
G01*
X219835500Y-86751499D01*
G75*
G02*
X220085499Y-86501500I249999J0D01*
G01*
G37*
G36*
G01*
X220085499Y-84451500D02*
X220985501Y-84451500D01*
G75*
G02*
X221235500Y-84701499I0J-249999D01*
G01*
X221235500Y-85351501D01*
G75*
G02*
X220985501Y-85601500I-249999J0D01*
G01*
X220085499Y-85601500D01*
G75*
G02*
X219835500Y-85351501I0J249999D01*
G01*
X219835500Y-84701499D01*
G75*
G02*
X220085499Y-84451500I249999J0D01*
G01*
G37*
%TD*%
%TO.C,C18*%
G36*
G01*
X212084499Y-81929500D02*
X212984501Y-81929500D01*
G75*
G02*
X213234500Y-82179499I0J-249999D01*
G01*
X213234500Y-82829501D01*
G75*
G02*
X212984501Y-83079500I-249999J0D01*
G01*
X212084499Y-83079500D01*
G75*
G02*
X211834500Y-82829501I0J249999D01*
G01*
X211834500Y-82179499D01*
G75*
G02*
X212084499Y-81929500I249999J0D01*
G01*
G37*
G36*
G01*
X212084499Y-79879500D02*
X212984501Y-79879500D01*
G75*
G02*
X213234500Y-80129499I0J-249999D01*
G01*
X213234500Y-80779501D01*
G75*
G02*
X212984501Y-81029500I-249999J0D01*
G01*
X212084499Y-81029500D01*
G75*
G02*
X211834500Y-80779501I0J249999D01*
G01*
X211834500Y-80129499D01*
G75*
G02*
X212084499Y-79879500I249999J0D01*
G01*
G37*
%TD*%
%TO.C,C17*%
G36*
G01*
X215905500Y-47440001D02*
X215905500Y-46539999D01*
G75*
G02*
X216155499Y-46290000I249999J0D01*
G01*
X216805501Y-46290000D01*
G75*
G02*
X217055500Y-46539999I0J-249999D01*
G01*
X217055500Y-47440001D01*
G75*
G02*
X216805501Y-47690000I-249999J0D01*
G01*
X216155499Y-47690000D01*
G75*
G02*
X215905500Y-47440001I0J249999D01*
G01*
G37*
G36*
G01*
X213855500Y-47440001D02*
X213855500Y-46539999D01*
G75*
G02*
X214105499Y-46290000I249999J0D01*
G01*
X214755501Y-46290000D01*
G75*
G02*
X215005500Y-46539999I0J-249999D01*
G01*
X215005500Y-47440001D01*
G75*
G02*
X214755501Y-47690000I-249999J0D01*
G01*
X214105499Y-47690000D01*
G75*
G02*
X213855500Y-47440001I0J249999D01*
G01*
G37*
%TD*%
%TO.C,C4*%
G36*
G01*
X216339000Y-75559499D02*
X216339000Y-76459501D01*
G75*
G02*
X216089001Y-76709500I-249999J0D01*
G01*
X215438999Y-76709500D01*
G75*
G02*
X215189000Y-76459501I0J249999D01*
G01*
X215189000Y-75559499D01*
G75*
G02*
X215438999Y-75309500I249999J0D01*
G01*
X216089001Y-75309500D01*
G75*
G02*
X216339000Y-75559499I0J-249999D01*
G01*
G37*
G36*
G01*
X218389000Y-75559499D02*
X218389000Y-76459501D01*
G75*
G02*
X218139001Y-76709500I-249999J0D01*
G01*
X217488999Y-76709500D01*
G75*
G02*
X217239000Y-76459501I0J249999D01*
G01*
X217239000Y-75559499D01*
G75*
G02*
X217488999Y-75309500I249999J0D01*
G01*
X218139001Y-75309500D01*
G75*
G02*
X218389000Y-75559499I0J-249999D01*
G01*
G37*
%TD*%
%TO.C,C2*%
G36*
G01*
X215259500Y-85909999D02*
X215259500Y-86810001D01*
G75*
G02*
X215009501Y-87060000I-249999J0D01*
G01*
X214359499Y-87060000D01*
G75*
G02*
X214109500Y-86810001I0J249999D01*
G01*
X214109500Y-85909999D01*
G75*
G02*
X214359499Y-85660000I249999J0D01*
G01*
X215009501Y-85660000D01*
G75*
G02*
X215259500Y-85909999I0J-249999D01*
G01*
G37*
G36*
G01*
X217309500Y-85909999D02*
X217309500Y-86810001D01*
G75*
G02*
X217059501Y-87060000I-249999J0D01*
G01*
X216409499Y-87060000D01*
G75*
G02*
X216159500Y-86810001I0J249999D01*
G01*
X216159500Y-85909999D01*
G75*
G02*
X216409499Y-85660000I249999J0D01*
G01*
X217059501Y-85660000D01*
G75*
G02*
X217309500Y-85909999I0J-249999D01*
G01*
G37*
%TD*%
%TO.C,R10*%
G36*
G01*
X216118500Y-64506000D02*
X216118500Y-63256000D01*
G75*
G02*
X216368500Y-63006000I250000J0D01*
G01*
X217293500Y-63006000D01*
G75*
G02*
X217543500Y-63256000I0J-250000D01*
G01*
X217543500Y-64506000D01*
G75*
G02*
X217293500Y-64756000I-250000J0D01*
G01*
X216368500Y-64756000D01*
G75*
G02*
X216118500Y-64506000I0J250000D01*
G01*
G37*
G36*
G01*
X213143500Y-64506000D02*
X213143500Y-63256000D01*
G75*
G02*
X213393500Y-63006000I250000J0D01*
G01*
X214318500Y-63006000D01*
G75*
G02*
X214568500Y-63256000I0J-250000D01*
G01*
X214568500Y-64506000D01*
G75*
G02*
X214318500Y-64756000I-250000J0D01*
G01*
X213393500Y-64756000D01*
G75*
G02*
X213143500Y-64506000I0J250000D01*
G01*
G37*
%TD*%
%TO.C,R6*%
G36*
G01*
X228041500Y-81079500D02*
X228041500Y-79829500D01*
G75*
G02*
X228291500Y-79579500I250000J0D01*
G01*
X229216500Y-79579500D01*
G75*
G02*
X229466500Y-79829500I0J-250000D01*
G01*
X229466500Y-81079500D01*
G75*
G02*
X229216500Y-81329500I-250000J0D01*
G01*
X228291500Y-81329500D01*
G75*
G02*
X228041500Y-81079500I0J250000D01*
G01*
G37*
G36*
G01*
X225066500Y-81079500D02*
X225066500Y-79829500D01*
G75*
G02*
X225316500Y-79579500I250000J0D01*
G01*
X226241500Y-79579500D01*
G75*
G02*
X226491500Y-79829500I0J-250000D01*
G01*
X226491500Y-81079500D01*
G75*
G02*
X226241500Y-81329500I-250000J0D01*
G01*
X225316500Y-81329500D01*
G75*
G02*
X225066500Y-81079500I0J250000D01*
G01*
G37*
%TD*%
%TO.C,R5*%
G36*
G01*
X220967000Y-48778000D02*
X220967000Y-50028000D01*
G75*
G02*
X220717000Y-50278000I-250000J0D01*
G01*
X219792000Y-50278000D01*
G75*
G02*
X219542000Y-50028000I0J250000D01*
G01*
X219542000Y-48778000D01*
G75*
G02*
X219792000Y-48528000I250000J0D01*
G01*
X220717000Y-48528000D01*
G75*
G02*
X220967000Y-48778000I0J-250000D01*
G01*
G37*
G36*
G01*
X223942000Y-48778000D02*
X223942000Y-50028000D01*
G75*
G02*
X223692000Y-50278000I-250000J0D01*
G01*
X222767000Y-50278000D01*
G75*
G02*
X222517000Y-50028000I0J250000D01*
G01*
X222517000Y-48778000D01*
G75*
G02*
X222767000Y-48528000I250000J0D01*
G01*
X223692000Y-48528000D01*
G75*
G02*
X223942000Y-48778000I0J-250000D01*
G01*
G37*
%TD*%
%TO.C,R1*%
G36*
G01*
X227152500Y-85588000D02*
X227152500Y-84338000D01*
G75*
G02*
X227402500Y-84088000I250000J0D01*
G01*
X228327500Y-84088000D01*
G75*
G02*
X228577500Y-84338000I0J-250000D01*
G01*
X228577500Y-85588000D01*
G75*
G02*
X228327500Y-85838000I-250000J0D01*
G01*
X227402500Y-85838000D01*
G75*
G02*
X227152500Y-85588000I0J250000D01*
G01*
G37*
G36*
G01*
X224177500Y-85588000D02*
X224177500Y-84338000D01*
G75*
G02*
X224427500Y-84088000I250000J0D01*
G01*
X225352500Y-84088000D01*
G75*
G02*
X225602500Y-84338000I0J-250000D01*
G01*
X225602500Y-85588000D01*
G75*
G02*
X225352500Y-85838000I-250000J0D01*
G01*
X224427500Y-85838000D01*
G75*
G02*
X224177500Y-85588000I0J250000D01*
G01*
G37*
%TD*%
%TO.C,C3*%
G36*
G01*
X221478000Y-75044000D02*
X220228000Y-75044000D01*
G75*
G02*
X219978000Y-74794000I0J250000D01*
G01*
X219978000Y-73869000D01*
G75*
G02*
X220228000Y-73619000I250000J0D01*
G01*
X221478000Y-73619000D01*
G75*
G02*
X221728000Y-73869000I0J-250000D01*
G01*
X221728000Y-74794000D01*
G75*
G02*
X221478000Y-75044000I-250000J0D01*
G01*
G37*
G36*
G01*
X221478000Y-78019000D02*
X220228000Y-78019000D01*
G75*
G02*
X219978000Y-77769000I0J250000D01*
G01*
X219978000Y-76844000D01*
G75*
G02*
X220228000Y-76594000I250000J0D01*
G01*
X221478000Y-76594000D01*
G75*
G02*
X221728000Y-76844000I0J-250000D01*
G01*
X221728000Y-77769000D01*
G75*
G02*
X221478000Y-78019000I-250000J0D01*
G01*
G37*
%TD*%
%TO.C,C1*%
G36*
G01*
X213474000Y-88148000D02*
X213474000Y-89398000D01*
G75*
G02*
X213224000Y-89648000I-250000J0D01*
G01*
X212299000Y-89648000D01*
G75*
G02*
X212049000Y-89398000I0J250000D01*
G01*
X212049000Y-88148000D01*
G75*
G02*
X212299000Y-87898000I250000J0D01*
G01*
X213224000Y-87898000D01*
G75*
G02*
X213474000Y-88148000I0J-250000D01*
G01*
G37*
G36*
G01*
X216449000Y-88148000D02*
X216449000Y-89398000D01*
G75*
G02*
X216199000Y-89648000I-250000J0D01*
G01*
X215274000Y-89648000D01*
G75*
G02*
X215024000Y-89398000I0J250000D01*
G01*
X215024000Y-88148000D01*
G75*
G02*
X215274000Y-87898000I250000J0D01*
G01*
X216199000Y-87898000D01*
G75*
G02*
X216449000Y-88148000I0J-250000D01*
G01*
G37*
%TD*%
%TO.C,R9*%
G36*
G01*
X220485000Y-71364000D02*
X220485000Y-70114000D01*
G75*
G02*
X220735000Y-69864000I250000J0D01*
G01*
X221660000Y-69864000D01*
G75*
G02*
X221910000Y-70114000I0J-250000D01*
G01*
X221910000Y-71364000D01*
G75*
G02*
X221660000Y-71614000I-250000J0D01*
G01*
X220735000Y-71614000D01*
G75*
G02*
X220485000Y-71364000I0J250000D01*
G01*
G37*
G36*
G01*
X217510000Y-71364000D02*
X217510000Y-70114000D01*
G75*
G02*
X217760000Y-69864000I250000J0D01*
G01*
X218685000Y-69864000D01*
G75*
G02*
X218935000Y-70114000I0J-250000D01*
G01*
X218935000Y-71364000D01*
G75*
G02*
X218685000Y-71614000I-250000J0D01*
G01*
X217760000Y-71614000D01*
G75*
G02*
X217510000Y-71364000I0J250000D01*
G01*
G37*
%TD*%
%TO.C,R8*%
G36*
G01*
X217564000Y-74031000D02*
X217564000Y-72781000D01*
G75*
G02*
X217814000Y-72531000I250000J0D01*
G01*
X218739000Y-72531000D01*
G75*
G02*
X218989000Y-72781000I0J-250000D01*
G01*
X218989000Y-74031000D01*
G75*
G02*
X218739000Y-74281000I-250000J0D01*
G01*
X217814000Y-74281000D01*
G75*
G02*
X217564000Y-74031000I0J250000D01*
G01*
G37*
G36*
G01*
X214589000Y-74031000D02*
X214589000Y-72781000D01*
G75*
G02*
X214839000Y-72531000I250000J0D01*
G01*
X215764000Y-72531000D01*
G75*
G02*
X216014000Y-72781000I0J-250000D01*
G01*
X216014000Y-74031000D01*
G75*
G02*
X215764000Y-74281000I-250000J0D01*
G01*
X214839000Y-74281000D01*
G75*
G02*
X214589000Y-74031000I0J250000D01*
G01*
G37*
%TD*%
%TO.C,R7*%
G36*
G01*
X222895000Y-76594000D02*
X224145000Y-76594000D01*
G75*
G02*
X224395000Y-76844000I0J-250000D01*
G01*
X224395000Y-77769000D01*
G75*
G02*
X224145000Y-78019000I-250000J0D01*
G01*
X222895000Y-78019000D01*
G75*
G02*
X222645000Y-77769000I0J250000D01*
G01*
X222645000Y-76844000D01*
G75*
G02*
X222895000Y-76594000I250000J0D01*
G01*
G37*
G36*
G01*
X222895000Y-73619000D02*
X224145000Y-73619000D01*
G75*
G02*
X224395000Y-73869000I0J-250000D01*
G01*
X224395000Y-74794000D01*
G75*
G02*
X224145000Y-75044000I-250000J0D01*
G01*
X222895000Y-75044000D01*
G75*
G02*
X222645000Y-74794000I0J250000D01*
G01*
X222645000Y-73869000D01*
G75*
G02*
X222895000Y-73619000I250000J0D01*
G01*
G37*
%TD*%
%TO.C,R4*%
G36*
G01*
X222163000Y-92001500D02*
X222163000Y-90751500D01*
G75*
G02*
X222413000Y-90501500I250000J0D01*
G01*
X223338000Y-90501500D01*
G75*
G02*
X223588000Y-90751500I0J-250000D01*
G01*
X223588000Y-92001500D01*
G75*
G02*
X223338000Y-92251500I-250000J0D01*
G01*
X222413000Y-92251500D01*
G75*
G02*
X222163000Y-92001500I0J250000D01*
G01*
G37*
G36*
G01*
X219188000Y-92001500D02*
X219188000Y-90751500D01*
G75*
G02*
X219438000Y-90501500I250000J0D01*
G01*
X220363000Y-90501500D01*
G75*
G02*
X220613000Y-90751500I0J-250000D01*
G01*
X220613000Y-92001500D01*
G75*
G02*
X220363000Y-92251500I-250000J0D01*
G01*
X219438000Y-92251500D01*
G75*
G02*
X219188000Y-92001500I0J250000D01*
G01*
G37*
%TD*%
%TO.C,R3*%
G36*
G01*
X216675000Y-92001500D02*
X216675000Y-90751500D01*
G75*
G02*
X216925000Y-90501500I250000J0D01*
G01*
X217850000Y-90501500D01*
G75*
G02*
X218100000Y-90751500I0J-250000D01*
G01*
X218100000Y-92001500D01*
G75*
G02*
X217850000Y-92251500I-250000J0D01*
G01*
X216925000Y-92251500D01*
G75*
G02*
X216675000Y-92001500I0J250000D01*
G01*
G37*
G36*
G01*
X213700000Y-92001500D02*
X213700000Y-90751500D01*
G75*
G02*
X213950000Y-90501500I250000J0D01*
G01*
X214875000Y-90501500D01*
G75*
G02*
X215125000Y-90751500I0J-250000D01*
G01*
X215125000Y-92001500D01*
G75*
G02*
X214875000Y-92251500I-250000J0D01*
G01*
X213950000Y-92251500D01*
G75*
G02*
X213700000Y-92001500I0J250000D01*
G01*
G37*
%TD*%
%TO.C,R2*%
G36*
G01*
X215087500Y-94478000D02*
X215087500Y-93228000D01*
G75*
G02*
X215337500Y-92978000I250000J0D01*
G01*
X216262500Y-92978000D01*
G75*
G02*
X216512500Y-93228000I0J-250000D01*
G01*
X216512500Y-94478000D01*
G75*
G02*
X216262500Y-94728000I-250000J0D01*
G01*
X215337500Y-94728000D01*
G75*
G02*
X215087500Y-94478000I0J250000D01*
G01*
G37*
G36*
G01*
X212112500Y-94478000D02*
X212112500Y-93228000D01*
G75*
G02*
X212362500Y-92978000I250000J0D01*
G01*
X213287500Y-92978000D01*
G75*
G02*
X213537500Y-93228000I0J-250000D01*
G01*
X213537500Y-94478000D01*
G75*
G02*
X213287500Y-94728000I-250000J0D01*
G01*
X212362500Y-94728000D01*
G75*
G02*
X212112500Y-94478000I0J250000D01*
G01*
G37*
%TD*%
%TO.C,U3*%
G36*
G01*
X222671500Y-62460000D02*
X222971500Y-62460000D01*
G75*
G02*
X223121500Y-62610000I0J-150000D01*
G01*
X223121500Y-64260000D01*
G75*
G02*
X222971500Y-64410000I-150000J0D01*
G01*
X222671500Y-64410000D01*
G75*
G02*
X222521500Y-64260000I0J150000D01*
G01*
X222521500Y-62610000D01*
G75*
G02*
X222671500Y-62460000I150000J0D01*
G01*
G37*
G36*
G01*
X221401500Y-62460000D02*
X221701500Y-62460000D01*
G75*
G02*
X221851500Y-62610000I0J-150000D01*
G01*
X221851500Y-64260000D01*
G75*
G02*
X221701500Y-64410000I-150000J0D01*
G01*
X221401500Y-64410000D01*
G75*
G02*
X221251500Y-64260000I0J150000D01*
G01*
X221251500Y-62610000D01*
G75*
G02*
X221401500Y-62460000I150000J0D01*
G01*
G37*
G36*
G01*
X220131500Y-62460000D02*
X220431500Y-62460000D01*
G75*
G02*
X220581500Y-62610000I0J-150000D01*
G01*
X220581500Y-64260000D01*
G75*
G02*
X220431500Y-64410000I-150000J0D01*
G01*
X220131500Y-64410000D01*
G75*
G02*
X219981500Y-64260000I0J150000D01*
G01*
X219981500Y-62610000D01*
G75*
G02*
X220131500Y-62460000I150000J0D01*
G01*
G37*
G36*
G01*
X218861500Y-62460000D02*
X219161500Y-62460000D01*
G75*
G02*
X219311500Y-62610000I0J-150000D01*
G01*
X219311500Y-64260000D01*
G75*
G02*
X219161500Y-64410000I-150000J0D01*
G01*
X218861500Y-64410000D01*
G75*
G02*
X218711500Y-64260000I0J150000D01*
G01*
X218711500Y-62610000D01*
G75*
G02*
X218861500Y-62460000I150000J0D01*
G01*
G37*
G36*
G01*
X218861500Y-57510000D02*
X219161500Y-57510000D01*
G75*
G02*
X219311500Y-57660000I0J-150000D01*
G01*
X219311500Y-59310000D01*
G75*
G02*
X219161500Y-59460000I-150000J0D01*
G01*
X218861500Y-59460000D01*
G75*
G02*
X218711500Y-59310000I0J150000D01*
G01*
X218711500Y-57660000D01*
G75*
G02*
X218861500Y-57510000I150000J0D01*
G01*
G37*
G36*
G01*
X220131500Y-57510000D02*
X220431500Y-57510000D01*
G75*
G02*
X220581500Y-57660000I0J-150000D01*
G01*
X220581500Y-59310000D01*
G75*
G02*
X220431500Y-59460000I-150000J0D01*
G01*
X220131500Y-59460000D01*
G75*
G02*
X219981500Y-59310000I0J150000D01*
G01*
X219981500Y-57660000D01*
G75*
G02*
X220131500Y-57510000I150000J0D01*
G01*
G37*
G36*
G01*
X221401500Y-57510000D02*
X221701500Y-57510000D01*
G75*
G02*
X221851500Y-57660000I0J-150000D01*
G01*
X221851500Y-59310000D01*
G75*
G02*
X221701500Y-59460000I-150000J0D01*
G01*
X221401500Y-59460000D01*
G75*
G02*
X221251500Y-59310000I0J150000D01*
G01*
X221251500Y-57660000D01*
G75*
G02*
X221401500Y-57510000I150000J0D01*
G01*
G37*
G36*
G01*
X222671500Y-57510000D02*
X222971500Y-57510000D01*
G75*
G02*
X223121500Y-57660000I0J-150000D01*
G01*
X223121500Y-59310000D01*
G75*
G02*
X222971500Y-59460000I-150000J0D01*
G01*
X222671500Y-59460000D01*
G75*
G02*
X222521500Y-59310000I0J150000D01*
G01*
X222521500Y-57660000D01*
G75*
G02*
X222671500Y-57510000I150000J0D01*
G01*
G37*
%TD*%
%TO.C,U2*%
G36*
G01*
X214589500Y-50443000D02*
X214289500Y-50443000D01*
G75*
G02*
X214139500Y-50293000I0J150000D01*
G01*
X214139500Y-48643000D01*
G75*
G02*
X214289500Y-48493000I150000J0D01*
G01*
X214589500Y-48493000D01*
G75*
G02*
X214739500Y-48643000I0J-150000D01*
G01*
X214739500Y-50293000D01*
G75*
G02*
X214589500Y-50443000I-150000J0D01*
G01*
G37*
G36*
G01*
X215859500Y-50443000D02*
X215559500Y-50443000D01*
G75*
G02*
X215409500Y-50293000I0J150000D01*
G01*
X215409500Y-48643000D01*
G75*
G02*
X215559500Y-48493000I150000J0D01*
G01*
X215859500Y-48493000D01*
G75*
G02*
X216009500Y-48643000I0J-150000D01*
G01*
X216009500Y-50293000D01*
G75*
G02*
X215859500Y-50443000I-150000J0D01*
G01*
G37*
G36*
G01*
X217129500Y-50443000D02*
X216829500Y-50443000D01*
G75*
G02*
X216679500Y-50293000I0J150000D01*
G01*
X216679500Y-48643000D01*
G75*
G02*
X216829500Y-48493000I150000J0D01*
G01*
X217129500Y-48493000D01*
G75*
G02*
X217279500Y-48643000I0J-150000D01*
G01*
X217279500Y-50293000D01*
G75*
G02*
X217129500Y-50443000I-150000J0D01*
G01*
G37*
G36*
G01*
X218399500Y-50443000D02*
X218099500Y-50443000D01*
G75*
G02*
X217949500Y-50293000I0J150000D01*
G01*
X217949500Y-48643000D01*
G75*
G02*
X218099500Y-48493000I150000J0D01*
G01*
X218399500Y-48493000D01*
G75*
G02*
X218549500Y-48643000I0J-150000D01*
G01*
X218549500Y-50293000D01*
G75*
G02*
X218399500Y-50443000I-150000J0D01*
G01*
G37*
G36*
G01*
X218399500Y-55393000D02*
X218099500Y-55393000D01*
G75*
G02*
X217949500Y-55243000I0J150000D01*
G01*
X217949500Y-53593000D01*
G75*
G02*
X218099500Y-53443000I150000J0D01*
G01*
X218399500Y-53443000D01*
G75*
G02*
X218549500Y-53593000I0J-150000D01*
G01*
X218549500Y-55243000D01*
G75*
G02*
X218399500Y-55393000I-150000J0D01*
G01*
G37*
G36*
G01*
X217129500Y-55393000D02*
X216829500Y-55393000D01*
G75*
G02*
X216679500Y-55243000I0J150000D01*
G01*
X216679500Y-53593000D01*
G75*
G02*
X216829500Y-53443000I150000J0D01*
G01*
X217129500Y-53443000D01*
G75*
G02*
X217279500Y-53593000I0J-150000D01*
G01*
X217279500Y-55243000D01*
G75*
G02*
X217129500Y-55393000I-150000J0D01*
G01*
G37*
G36*
G01*
X215859500Y-55393000D02*
X215559500Y-55393000D01*
G75*
G02*
X215409500Y-55243000I0J150000D01*
G01*
X215409500Y-53593000D01*
G75*
G02*
X215559500Y-53443000I150000J0D01*
G01*
X215859500Y-53443000D01*
G75*
G02*
X216009500Y-53593000I0J-150000D01*
G01*
X216009500Y-55243000D01*
G75*
G02*
X215859500Y-55393000I-150000J0D01*
G01*
G37*
G36*
G01*
X214589500Y-55393000D02*
X214289500Y-55393000D01*
G75*
G02*
X214139500Y-55243000I0J150000D01*
G01*
X214139500Y-53593000D01*
G75*
G02*
X214289500Y-53443000I150000J0D01*
G01*
X214589500Y-53443000D01*
G75*
G02*
X214739500Y-53593000I0J-150000D01*
G01*
X214739500Y-55243000D01*
G75*
G02*
X214589500Y-55393000I-150000J0D01*
G01*
G37*
%TD*%
%TO.C,U1*%
G36*
G01*
X214716500Y-79842000D02*
X214416500Y-79842000D01*
G75*
G02*
X214266500Y-79692000I0J150000D01*
G01*
X214266500Y-78042000D01*
G75*
G02*
X214416500Y-77892000I150000J0D01*
G01*
X214716500Y-77892000D01*
G75*
G02*
X214866500Y-78042000I0J-150000D01*
G01*
X214866500Y-79692000D01*
G75*
G02*
X214716500Y-79842000I-150000J0D01*
G01*
G37*
G36*
G01*
X215986500Y-79842000D02*
X215686500Y-79842000D01*
G75*
G02*
X215536500Y-79692000I0J150000D01*
G01*
X215536500Y-78042000D01*
G75*
G02*
X215686500Y-77892000I150000J0D01*
G01*
X215986500Y-77892000D01*
G75*
G02*
X216136500Y-78042000I0J-150000D01*
G01*
X216136500Y-79692000D01*
G75*
G02*
X215986500Y-79842000I-150000J0D01*
G01*
G37*
G36*
G01*
X217256500Y-79842000D02*
X216956500Y-79842000D01*
G75*
G02*
X216806500Y-79692000I0J150000D01*
G01*
X216806500Y-78042000D01*
G75*
G02*
X216956500Y-77892000I150000J0D01*
G01*
X217256500Y-77892000D01*
G75*
G02*
X217406500Y-78042000I0J-150000D01*
G01*
X217406500Y-79692000D01*
G75*
G02*
X217256500Y-79842000I-150000J0D01*
G01*
G37*
G36*
G01*
X218526500Y-79842000D02*
X218226500Y-79842000D01*
G75*
G02*
X218076500Y-79692000I0J150000D01*
G01*
X218076500Y-78042000D01*
G75*
G02*
X218226500Y-77892000I150000J0D01*
G01*
X218526500Y-77892000D01*
G75*
G02*
X218676500Y-78042000I0J-150000D01*
G01*
X218676500Y-79692000D01*
G75*
G02*
X218526500Y-79842000I-150000J0D01*
G01*
G37*
G36*
G01*
X218526500Y-84792000D02*
X218226500Y-84792000D01*
G75*
G02*
X218076500Y-84642000I0J150000D01*
G01*
X218076500Y-82992000D01*
G75*
G02*
X218226500Y-82842000I150000J0D01*
G01*
X218526500Y-82842000D01*
G75*
G02*
X218676500Y-82992000I0J-150000D01*
G01*
X218676500Y-84642000D01*
G75*
G02*
X218526500Y-84792000I-150000J0D01*
G01*
G37*
G36*
G01*
X217256500Y-84792000D02*
X216956500Y-84792000D01*
G75*
G02*
X216806500Y-84642000I0J150000D01*
G01*
X216806500Y-82992000D01*
G75*
G02*
X216956500Y-82842000I150000J0D01*
G01*
X217256500Y-82842000D01*
G75*
G02*
X217406500Y-82992000I0J-150000D01*
G01*
X217406500Y-84642000D01*
G75*
G02*
X217256500Y-84792000I-150000J0D01*
G01*
G37*
G36*
G01*
X215986500Y-84792000D02*
X215686500Y-84792000D01*
G75*
G02*
X215536500Y-84642000I0J150000D01*
G01*
X215536500Y-82992000D01*
G75*
G02*
X215686500Y-82842000I150000J0D01*
G01*
X215986500Y-82842000D01*
G75*
G02*
X216136500Y-82992000I0J-150000D01*
G01*
X216136500Y-84642000D01*
G75*
G02*
X215986500Y-84792000I-150000J0D01*
G01*
G37*
G36*
G01*
X214716500Y-84792000D02*
X214416500Y-84792000D01*
G75*
G02*
X214266500Y-84642000I0J150000D01*
G01*
X214266500Y-82992000D01*
G75*
G02*
X214416500Y-82842000I150000J0D01*
G01*
X214716500Y-82842000D01*
G75*
G02*
X214866500Y-82992000I0J-150000D01*
G01*
X214866500Y-84642000D01*
G75*
G02*
X214716500Y-84792000I-150000J0D01*
G01*
G37*
%TD*%
D12*
%TO.C,P1*%
X158200000Y-63180000D03*
X158200000Y-54530000D03*
D13*
X161580000Y-63180000D03*
X161580000Y-54530000D03*
D14*
X161210000Y-59280000D03*
X161210000Y-61830000D03*
X161210000Y-60980000D03*
X161210000Y-60130000D03*
X161210000Y-55880000D03*
X161210000Y-57580000D03*
X161210000Y-58430000D03*
X161210000Y-56730000D03*
X162560000Y-61830000D03*
X162560000Y-60980000D03*
X162560000Y-60130000D03*
X162560000Y-59280000D03*
X162560000Y-58430000D03*
X162560000Y-57580000D03*
X162560000Y-56730000D03*
X162560000Y-55880000D03*
%TD*%
D10*
%TO.C,J5*%
X157480000Y-73660000D03*
X157480000Y-76200000D03*
X157480000Y-78740000D03*
D11*
X157480000Y-81280000D03*
%TD*%
%TO.C,R28*%
G36*
G01*
X167672500Y-54548750D02*
X167672500Y-54036250D01*
G75*
G02*
X167891250Y-53817500I218750J0D01*
G01*
X168328750Y-53817500D01*
G75*
G02*
X168547500Y-54036250I0J-218750D01*
G01*
X168547500Y-54548750D01*
G75*
G02*
X168328750Y-54767500I-218750J0D01*
G01*
X167891250Y-54767500D01*
G75*
G02*
X167672500Y-54548750I0J218750D01*
G01*
G37*
G36*
G01*
X166097500Y-54548750D02*
X166097500Y-54036250D01*
G75*
G02*
X166316250Y-53817500I218750J0D01*
G01*
X166753750Y-53817500D01*
G75*
G02*
X166972500Y-54036250I0J-218750D01*
G01*
X166972500Y-54548750D01*
G75*
G02*
X166753750Y-54767500I-218750J0D01*
G01*
X166316250Y-54767500D01*
G75*
G02*
X166097500Y-54548750I0J218750D01*
G01*
G37*
%TD*%
%TO.C,C16*%
G36*
G01*
X192357316Y-58930791D02*
X192719709Y-59293184D01*
G75*
G02*
X192719709Y-59602544I-154680J-154680D01*
G01*
X192410350Y-59911903D01*
G75*
G02*
X192100990Y-59911903I-154680J154680D01*
G01*
X191738597Y-59549510D01*
G75*
G02*
X191738597Y-59240150I154680J154680D01*
G01*
X192047956Y-58930791D01*
G75*
G02*
X192357316Y-58930791I154680J-154680D01*
G01*
G37*
G36*
G01*
X193471010Y-57817097D02*
X193833403Y-58179490D01*
G75*
G02*
X193833403Y-58488850I-154680J-154680D01*
G01*
X193524044Y-58798209D01*
G75*
G02*
X193214684Y-58798209I-154680J154680D01*
G01*
X192852291Y-58435816D01*
G75*
G02*
X192852291Y-58126456I154680J154680D01*
G01*
X193161650Y-57817097D01*
G75*
G02*
X193471010Y-57817097I154680J-154680D01*
G01*
G37*
%TD*%
%TO.C,R27*%
G36*
G01*
X197741250Y-60445000D02*
X197228750Y-60445000D01*
G75*
G02*
X197010000Y-60226250I0J218750D01*
G01*
X197010000Y-59788750D01*
G75*
G02*
X197228750Y-59570000I218750J0D01*
G01*
X197741250Y-59570000D01*
G75*
G02*
X197960000Y-59788750I0J-218750D01*
G01*
X197960000Y-60226250D01*
G75*
G02*
X197741250Y-60445000I-218750J0D01*
G01*
G37*
G36*
G01*
X197741250Y-62020000D02*
X197228750Y-62020000D01*
G75*
G02*
X197010000Y-61801250I0J218750D01*
G01*
X197010000Y-61363750D01*
G75*
G02*
X197228750Y-61145000I218750J0D01*
G01*
X197741250Y-61145000D01*
G75*
G02*
X197960000Y-61363750I0J-218750D01*
G01*
X197960000Y-61801250D01*
G75*
G02*
X197741250Y-62020000I-218750J0D01*
G01*
G37*
%TD*%
%TO.C,R26*%
G36*
G01*
X195577750Y-61094000D02*
X196090250Y-61094000D01*
G75*
G02*
X196309000Y-61312750I0J-218750D01*
G01*
X196309000Y-61750250D01*
G75*
G02*
X196090250Y-61969000I-218750J0D01*
G01*
X195577750Y-61969000D01*
G75*
G02*
X195359000Y-61750250I0J218750D01*
G01*
X195359000Y-61312750D01*
G75*
G02*
X195577750Y-61094000I218750J0D01*
G01*
G37*
G36*
G01*
X195577750Y-59519000D02*
X196090250Y-59519000D01*
G75*
G02*
X196309000Y-59737750I0J-218750D01*
G01*
X196309000Y-60175250D01*
G75*
G02*
X196090250Y-60394000I-218750J0D01*
G01*
X195577750Y-60394000D01*
G75*
G02*
X195359000Y-60175250I0J218750D01*
G01*
X195359000Y-59737750D01*
G75*
G02*
X195577750Y-59519000I218750J0D01*
G01*
G37*
%TD*%
%TO.C,R25*%
G36*
G01*
X196403250Y-53690000D02*
X196915750Y-53690000D01*
G75*
G02*
X197134500Y-53908750I0J-218750D01*
G01*
X197134500Y-54346250D01*
G75*
G02*
X196915750Y-54565000I-218750J0D01*
G01*
X196403250Y-54565000D01*
G75*
G02*
X196184500Y-54346250I0J218750D01*
G01*
X196184500Y-53908750D01*
G75*
G02*
X196403250Y-53690000I218750J0D01*
G01*
G37*
G36*
G01*
X196403250Y-52115000D02*
X196915750Y-52115000D01*
G75*
G02*
X197134500Y-52333750I0J-218750D01*
G01*
X197134500Y-52771250D01*
G75*
G02*
X196915750Y-52990000I-218750J0D01*
G01*
X196403250Y-52990000D01*
G75*
G02*
X196184500Y-52771250I0J218750D01*
G01*
X196184500Y-52333750D01*
G75*
G02*
X196403250Y-52115000I218750J0D01*
G01*
G37*
%TD*%
%TO.C,R24*%
G36*
G01*
X199646250Y-60267000D02*
X199133750Y-60267000D01*
G75*
G02*
X198915000Y-60048250I0J218750D01*
G01*
X198915000Y-59610750D01*
G75*
G02*
X199133750Y-59392000I218750J0D01*
G01*
X199646250Y-59392000D01*
G75*
G02*
X199865000Y-59610750I0J-218750D01*
G01*
X199865000Y-60048250D01*
G75*
G02*
X199646250Y-60267000I-218750J0D01*
G01*
G37*
G36*
G01*
X199646250Y-61842000D02*
X199133750Y-61842000D01*
G75*
G02*
X198915000Y-61623250I0J218750D01*
G01*
X198915000Y-61185750D01*
G75*
G02*
X199133750Y-60967000I218750J0D01*
G01*
X199646250Y-60967000D01*
G75*
G02*
X199865000Y-61185750I0J-218750D01*
G01*
X199865000Y-61623250D01*
G75*
G02*
X199646250Y-61842000I-218750J0D01*
G01*
G37*
%TD*%
%TO.C,R23*%
G36*
G01*
X193164750Y-54388500D02*
X193677250Y-54388500D01*
G75*
G02*
X193896000Y-54607250I0J-218750D01*
G01*
X193896000Y-55044750D01*
G75*
G02*
X193677250Y-55263500I-218750J0D01*
G01*
X193164750Y-55263500D01*
G75*
G02*
X192946000Y-55044750I0J218750D01*
G01*
X192946000Y-54607250D01*
G75*
G02*
X193164750Y-54388500I218750J0D01*
G01*
G37*
G36*
G01*
X193164750Y-52813500D02*
X193677250Y-52813500D01*
G75*
G02*
X193896000Y-53032250I0J-218750D01*
G01*
X193896000Y-53469750D01*
G75*
G02*
X193677250Y-53688500I-218750J0D01*
G01*
X193164750Y-53688500D01*
G75*
G02*
X192946000Y-53469750I0J218750D01*
G01*
X192946000Y-53032250D01*
G75*
G02*
X193164750Y-52813500I218750J0D01*
G01*
G37*
%TD*%
%TO.C,R22*%
G36*
G01*
X197863750Y-55658500D02*
X198376250Y-55658500D01*
G75*
G02*
X198595000Y-55877250I0J-218750D01*
G01*
X198595000Y-56314750D01*
G75*
G02*
X198376250Y-56533500I-218750J0D01*
G01*
X197863750Y-56533500D01*
G75*
G02*
X197645000Y-56314750I0J218750D01*
G01*
X197645000Y-55877250D01*
G75*
G02*
X197863750Y-55658500I218750J0D01*
G01*
G37*
G36*
G01*
X197863750Y-54083500D02*
X198376250Y-54083500D01*
G75*
G02*
X198595000Y-54302250I0J-218750D01*
G01*
X198595000Y-54739750D01*
G75*
G02*
X198376250Y-54958500I-218750J0D01*
G01*
X197863750Y-54958500D01*
G75*
G02*
X197645000Y-54739750I0J218750D01*
G01*
X197645000Y-54302250D01*
G75*
G02*
X197863750Y-54083500I218750J0D01*
G01*
G37*
%TD*%
%TO.C,R21*%
G36*
G01*
X183166500Y-61343250D02*
X183166500Y-60830750D01*
G75*
G02*
X183385250Y-60612000I218750J0D01*
G01*
X183822750Y-60612000D01*
G75*
G02*
X184041500Y-60830750I0J-218750D01*
G01*
X184041500Y-61343250D01*
G75*
G02*
X183822750Y-61562000I-218750J0D01*
G01*
X183385250Y-61562000D01*
G75*
G02*
X183166500Y-61343250I0J218750D01*
G01*
G37*
G36*
G01*
X181591500Y-61343250D02*
X181591500Y-60830750D01*
G75*
G02*
X181810250Y-60612000I218750J0D01*
G01*
X182247750Y-60612000D01*
G75*
G02*
X182466500Y-60830750I0J-218750D01*
G01*
X182466500Y-61343250D01*
G75*
G02*
X182247750Y-61562000I-218750J0D01*
G01*
X181810250Y-61562000D01*
G75*
G02*
X181591500Y-61343250I0J218750D01*
G01*
G37*
%TD*%
%TO.C,R20*%
G36*
G01*
X173411500Y-55623750D02*
X173411500Y-56136250D01*
G75*
G02*
X173192750Y-56355000I-218750J0D01*
G01*
X172755250Y-56355000D01*
G75*
G02*
X172536500Y-56136250I0J218750D01*
G01*
X172536500Y-55623750D01*
G75*
G02*
X172755250Y-55405000I218750J0D01*
G01*
X173192750Y-55405000D01*
G75*
G02*
X173411500Y-55623750I0J-218750D01*
G01*
G37*
G36*
G01*
X174986500Y-55623750D02*
X174986500Y-56136250D01*
G75*
G02*
X174767750Y-56355000I-218750J0D01*
G01*
X174330250Y-56355000D01*
G75*
G02*
X174111500Y-56136250I0J218750D01*
G01*
X174111500Y-55623750D01*
G75*
G02*
X174330250Y-55405000I218750J0D01*
G01*
X174767750Y-55405000D01*
G75*
G02*
X174986500Y-55623750I0J-218750D01*
G01*
G37*
%TD*%
%TO.C,R19*%
G36*
G01*
X178754750Y-62959500D02*
X178242250Y-62959500D01*
G75*
G02*
X178023500Y-62740750I0J218750D01*
G01*
X178023500Y-62303250D01*
G75*
G02*
X178242250Y-62084500I218750J0D01*
G01*
X178754750Y-62084500D01*
G75*
G02*
X178973500Y-62303250I0J-218750D01*
G01*
X178973500Y-62740750D01*
G75*
G02*
X178754750Y-62959500I-218750J0D01*
G01*
G37*
G36*
G01*
X178754750Y-64534500D02*
X178242250Y-64534500D01*
G75*
G02*
X178023500Y-64315750I0J218750D01*
G01*
X178023500Y-63878250D01*
G75*
G02*
X178242250Y-63659500I218750J0D01*
G01*
X178754750Y-63659500D01*
G75*
G02*
X178973500Y-63878250I0J-218750D01*
G01*
X178973500Y-64315750D01*
G75*
G02*
X178754750Y-64534500I-218750J0D01*
G01*
G37*
%TD*%
%TO.C,R18*%
G36*
G01*
X181579000Y-57533250D02*
X181579000Y-57020750D01*
G75*
G02*
X181797750Y-56802000I218750J0D01*
G01*
X182235250Y-56802000D01*
G75*
G02*
X182454000Y-57020750I0J-218750D01*
G01*
X182454000Y-57533250D01*
G75*
G02*
X182235250Y-57752000I-218750J0D01*
G01*
X181797750Y-57752000D01*
G75*
G02*
X181579000Y-57533250I0J218750D01*
G01*
G37*
G36*
G01*
X180004000Y-57533250D02*
X180004000Y-57020750D01*
G75*
G02*
X180222750Y-56802000I218750J0D01*
G01*
X180660250Y-56802000D01*
G75*
G02*
X180879000Y-57020750I0J-218750D01*
G01*
X180879000Y-57533250D01*
G75*
G02*
X180660250Y-57752000I-218750J0D01*
G01*
X180222750Y-57752000D01*
G75*
G02*
X180004000Y-57533250I0J218750D01*
G01*
G37*
%TD*%
%TO.C,R17*%
G36*
G01*
X170846000Y-49400750D02*
X170846000Y-49913250D01*
G75*
G02*
X170627250Y-50132000I-218750J0D01*
G01*
X170189750Y-50132000D01*
G75*
G02*
X169971000Y-49913250I0J218750D01*
G01*
X169971000Y-49400750D01*
G75*
G02*
X170189750Y-49182000I218750J0D01*
G01*
X170627250Y-49182000D01*
G75*
G02*
X170846000Y-49400750I0J-218750D01*
G01*
G37*
G36*
G01*
X172421000Y-49400750D02*
X172421000Y-49913250D01*
G75*
G02*
X172202250Y-50132000I-218750J0D01*
G01*
X171764750Y-50132000D01*
G75*
G02*
X171546000Y-49913250I0J218750D01*
G01*
X171546000Y-49400750D01*
G75*
G02*
X171764750Y-49182000I218750J0D01*
G01*
X172202250Y-49182000D01*
G75*
G02*
X172421000Y-49400750I0J-218750D01*
G01*
G37*
%TD*%
%TO.C,R16*%
G36*
G01*
X174118163Y-61739444D02*
X174480556Y-62101837D01*
G75*
G02*
X174480556Y-62411197I-154680J-154680D01*
G01*
X174171197Y-62720556D01*
G75*
G02*
X173861837Y-62720556I-154680J154680D01*
G01*
X173499444Y-62358163D01*
G75*
G02*
X173499444Y-62048803I154680J154680D01*
G01*
X173808803Y-61739444D01*
G75*
G02*
X174118163Y-61739444I154680J-154680D01*
G01*
G37*
G36*
G01*
X175231857Y-60625750D02*
X175594250Y-60988143D01*
G75*
G02*
X175594250Y-61297503I-154680J-154680D01*
G01*
X175284891Y-61606862D01*
G75*
G02*
X174975531Y-61606862I-154680J154680D01*
G01*
X174613138Y-61244469D01*
G75*
G02*
X174613138Y-60935109I154680J154680D01*
G01*
X174922497Y-60625750D01*
G75*
G02*
X175231857Y-60625750I154680J-154680D01*
G01*
G37*
%TD*%
%TO.C,R15*%
G36*
G01*
X176654750Y-62834000D02*
X177167250Y-62834000D01*
G75*
G02*
X177386000Y-63052750I0J-218750D01*
G01*
X177386000Y-63490250D01*
G75*
G02*
X177167250Y-63709000I-218750J0D01*
G01*
X176654750Y-63709000D01*
G75*
G02*
X176436000Y-63490250I0J218750D01*
G01*
X176436000Y-63052750D01*
G75*
G02*
X176654750Y-62834000I218750J0D01*
G01*
G37*
G36*
G01*
X176654750Y-61259000D02*
X177167250Y-61259000D01*
G75*
G02*
X177386000Y-61477750I0J-218750D01*
G01*
X177386000Y-61915250D01*
G75*
G02*
X177167250Y-62134000I-218750J0D01*
G01*
X176654750Y-62134000D01*
G75*
G02*
X176436000Y-61915250I0J218750D01*
G01*
X176436000Y-61477750D01*
G75*
G02*
X176654750Y-61259000I218750J0D01*
G01*
G37*
%TD*%
%TO.C,R14*%
G36*
G01*
X178310250Y-52964500D02*
X177797750Y-52964500D01*
G75*
G02*
X177579000Y-52745750I0J218750D01*
G01*
X177579000Y-52308250D01*
G75*
G02*
X177797750Y-52089500I218750J0D01*
G01*
X178310250Y-52089500D01*
G75*
G02*
X178529000Y-52308250I0J-218750D01*
G01*
X178529000Y-52745750D01*
G75*
G02*
X178310250Y-52964500I-218750J0D01*
G01*
G37*
G36*
G01*
X178310250Y-54539500D02*
X177797750Y-54539500D01*
G75*
G02*
X177579000Y-54320750I0J218750D01*
G01*
X177579000Y-53883250D01*
G75*
G02*
X177797750Y-53664500I218750J0D01*
G01*
X178310250Y-53664500D01*
G75*
G02*
X178529000Y-53883250I0J-218750D01*
G01*
X178529000Y-54320750D01*
G75*
G02*
X178310250Y-54539500I-218750J0D01*
G01*
G37*
%TD*%
%TO.C,R13*%
G36*
G01*
X170973000Y-59052750D02*
X170973000Y-59565250D01*
G75*
G02*
X170754250Y-59784000I-218750J0D01*
G01*
X170316750Y-59784000D01*
G75*
G02*
X170098000Y-59565250I0J218750D01*
G01*
X170098000Y-59052750D01*
G75*
G02*
X170316750Y-58834000I218750J0D01*
G01*
X170754250Y-58834000D01*
G75*
G02*
X170973000Y-59052750I0J-218750D01*
G01*
G37*
G36*
G01*
X172548000Y-59052750D02*
X172548000Y-59565250D01*
G75*
G02*
X172329250Y-59784000I-218750J0D01*
G01*
X171891750Y-59784000D01*
G75*
G02*
X171673000Y-59565250I0J218750D01*
G01*
X171673000Y-59052750D01*
G75*
G02*
X171891750Y-58834000I218750J0D01*
G01*
X172329250Y-58834000D01*
G75*
G02*
X172548000Y-59052750I0J-218750D01*
G01*
G37*
%TD*%
%TO.C,R12*%
G36*
G01*
X176405250Y-53218500D02*
X175892750Y-53218500D01*
G75*
G02*
X175674000Y-52999750I0J218750D01*
G01*
X175674000Y-52562250D01*
G75*
G02*
X175892750Y-52343500I218750J0D01*
G01*
X176405250Y-52343500D01*
G75*
G02*
X176624000Y-52562250I0J-218750D01*
G01*
X176624000Y-52999750D01*
G75*
G02*
X176405250Y-53218500I-218750J0D01*
G01*
G37*
G36*
G01*
X176405250Y-54793500D02*
X175892750Y-54793500D01*
G75*
G02*
X175674000Y-54574750I0J218750D01*
G01*
X175674000Y-54137250D01*
G75*
G02*
X175892750Y-53918500I218750J0D01*
G01*
X176405250Y-53918500D01*
G75*
G02*
X176624000Y-54137250I0J-218750D01*
G01*
X176624000Y-54574750D01*
G75*
G02*
X176405250Y-54793500I-218750J0D01*
G01*
G37*
%TD*%
%TO.C,D1*%
G36*
G01*
X182879500Y-63926500D02*
X182879500Y-63581500D01*
G75*
G02*
X183027000Y-63434000I147500J0D01*
G01*
X183322000Y-63434000D01*
G75*
G02*
X183469500Y-63581500I0J-147500D01*
G01*
X183469500Y-63926500D01*
G75*
G02*
X183322000Y-64074000I-147500J0D01*
G01*
X183027000Y-64074000D01*
G75*
G02*
X182879500Y-63926500I0J147500D01*
G01*
G37*
G36*
G01*
X181909500Y-63926500D02*
X181909500Y-63581500D01*
G75*
G02*
X182057000Y-63434000I147500J0D01*
G01*
X182352000Y-63434000D01*
G75*
G02*
X182499500Y-63581500I0J-147500D01*
G01*
X182499500Y-63926500D01*
G75*
G02*
X182352000Y-64074000I-147500J0D01*
G01*
X182057000Y-64074000D01*
G75*
G02*
X181909500Y-63926500I0J147500D01*
G01*
G37*
%TD*%
%TO.C,C15*%
G36*
G01*
X193898531Y-60576209D02*
X193536138Y-60213816D01*
G75*
G02*
X193536138Y-59904456I154680J154680D01*
G01*
X193845497Y-59595097D01*
G75*
G02*
X194154857Y-59595097I154680J-154680D01*
G01*
X194517250Y-59957490D01*
G75*
G02*
X194517250Y-60266850I-154680J-154680D01*
G01*
X194207891Y-60576209D01*
G75*
G02*
X193898531Y-60576209I-154680J154680D01*
G01*
G37*
G36*
G01*
X192784837Y-61689903D02*
X192422444Y-61327510D01*
G75*
G02*
X192422444Y-61018150I154680J154680D01*
G01*
X192731803Y-60708791D01*
G75*
G02*
X193041163Y-60708791I154680J-154680D01*
G01*
X193403556Y-61071184D01*
G75*
G02*
X193403556Y-61380544I-154680J-154680D01*
G01*
X193094197Y-61689903D01*
G75*
G02*
X192784837Y-61689903I-154680J154680D01*
G01*
G37*
%TD*%
%TO.C,C14*%
G36*
G01*
X199768750Y-57589000D02*
X200281250Y-57589000D01*
G75*
G02*
X200500000Y-57807750I0J-218750D01*
G01*
X200500000Y-58245250D01*
G75*
G02*
X200281250Y-58464000I-218750J0D01*
G01*
X199768750Y-58464000D01*
G75*
G02*
X199550000Y-58245250I0J218750D01*
G01*
X199550000Y-57807750D01*
G75*
G02*
X199768750Y-57589000I218750J0D01*
G01*
G37*
G36*
G01*
X199768750Y-56014000D02*
X200281250Y-56014000D01*
G75*
G02*
X200500000Y-56232750I0J-218750D01*
G01*
X200500000Y-56670250D01*
G75*
G02*
X200281250Y-56889000I-218750J0D01*
G01*
X199768750Y-56889000D01*
G75*
G02*
X199550000Y-56670250I0J218750D01*
G01*
X199550000Y-56232750D01*
G75*
G02*
X199768750Y-56014000I218750J0D01*
G01*
G37*
%TD*%
%TO.C,C13*%
G36*
G01*
X195328250Y-51631000D02*
X194815750Y-51631000D01*
G75*
G02*
X194597000Y-51412250I0J218750D01*
G01*
X194597000Y-50974750D01*
G75*
G02*
X194815750Y-50756000I218750J0D01*
G01*
X195328250Y-50756000D01*
G75*
G02*
X195547000Y-50974750I0J-218750D01*
G01*
X195547000Y-51412250D01*
G75*
G02*
X195328250Y-51631000I-218750J0D01*
G01*
G37*
G36*
G01*
X195328250Y-53206000D02*
X194815750Y-53206000D01*
G75*
G02*
X194597000Y-52987250I0J218750D01*
G01*
X194597000Y-52549750D01*
G75*
G02*
X194815750Y-52331000I218750J0D01*
G01*
X195328250Y-52331000D01*
G75*
G02*
X195547000Y-52549750I0J-218750D01*
G01*
X195547000Y-52987250D01*
G75*
G02*
X195328250Y-53206000I-218750J0D01*
G01*
G37*
%TD*%
%TO.C,C12*%
G36*
G01*
X200535250Y-53244000D02*
X200022750Y-53244000D01*
G75*
G02*
X199804000Y-53025250I0J218750D01*
G01*
X199804000Y-52587750D01*
G75*
G02*
X200022750Y-52369000I218750J0D01*
G01*
X200535250Y-52369000D01*
G75*
G02*
X200754000Y-52587750I0J-218750D01*
G01*
X200754000Y-53025250D01*
G75*
G02*
X200535250Y-53244000I-218750J0D01*
G01*
G37*
G36*
G01*
X200535250Y-54819000D02*
X200022750Y-54819000D01*
G75*
G02*
X199804000Y-54600250I0J218750D01*
G01*
X199804000Y-54162750D01*
G75*
G02*
X200022750Y-53944000I218750J0D01*
G01*
X200535250Y-53944000D01*
G75*
G02*
X200754000Y-54162750I0J-218750D01*
G01*
X200754000Y-54600250D01*
G75*
G02*
X200535250Y-54819000I-218750J0D01*
G01*
G37*
%TD*%
%TO.C,C7*%
G36*
G01*
X173479750Y-59278000D02*
X173992250Y-59278000D01*
G75*
G02*
X174211000Y-59496750I0J-218750D01*
G01*
X174211000Y-59934250D01*
G75*
G02*
X173992250Y-60153000I-218750J0D01*
G01*
X173479750Y-60153000D01*
G75*
G02*
X173261000Y-59934250I0J218750D01*
G01*
X173261000Y-59496750D01*
G75*
G02*
X173479750Y-59278000I218750J0D01*
G01*
G37*
G36*
G01*
X173479750Y-57703000D02*
X173992250Y-57703000D01*
G75*
G02*
X174211000Y-57921750I0J-218750D01*
G01*
X174211000Y-58359250D01*
G75*
G02*
X173992250Y-58578000I-218750J0D01*
G01*
X173479750Y-58578000D01*
G75*
G02*
X173261000Y-58359250I0J218750D01*
G01*
X173261000Y-57921750D01*
G75*
G02*
X173479750Y-57703000I218750J0D01*
G01*
G37*
%TD*%
%TO.C,C6*%
G36*
G01*
X191654862Y-55465969D02*
X191292469Y-55828362D01*
G75*
G02*
X190983109Y-55828362I-154680J154680D01*
G01*
X190673750Y-55519003D01*
G75*
G02*
X190673750Y-55209643I154680J154680D01*
G01*
X191036143Y-54847250D01*
G75*
G02*
X191345503Y-54847250I154680J-154680D01*
G01*
X191654862Y-55156609D01*
G75*
G02*
X191654862Y-55465969I-154680J-154680D01*
G01*
G37*
G36*
G01*
X192768556Y-56579663D02*
X192406163Y-56942056D01*
G75*
G02*
X192096803Y-56942056I-154680J154680D01*
G01*
X191787444Y-56632697D01*
G75*
G02*
X191787444Y-56323337I154680J154680D01*
G01*
X192149837Y-55960944D01*
G75*
G02*
X192459197Y-55960944I154680J-154680D01*
G01*
X192768556Y-56270303D01*
G75*
G02*
X192768556Y-56579663I-154680J-154680D01*
G01*
G37*
%TD*%
%TO.C,C5*%
G36*
G01*
X180910337Y-54275056D02*
X180547944Y-53912663D01*
G75*
G02*
X180547944Y-53603303I154680J154680D01*
G01*
X180857303Y-53293944D01*
G75*
G02*
X181166663Y-53293944I154680J-154680D01*
G01*
X181529056Y-53656337D01*
G75*
G02*
X181529056Y-53965697I-154680J-154680D01*
G01*
X181219697Y-54275056D01*
G75*
G02*
X180910337Y-54275056I-154680J154680D01*
G01*
G37*
G36*
G01*
X179796643Y-55388750D02*
X179434250Y-55026357D01*
G75*
G02*
X179434250Y-54716997I154680J154680D01*
G01*
X179743609Y-54407638D01*
G75*
G02*
X180052969Y-54407638I154680J-154680D01*
G01*
X180415362Y-54770031D01*
G75*
G02*
X180415362Y-55079391I-154680J-154680D01*
G01*
X180106003Y-55388750D01*
G75*
G02*
X179796643Y-55388750I-154680J154680D01*
G01*
G37*
%TD*%
D15*
%TO.C,U10*%
X195884800Y-56976900D03*
D16*
X196834800Y-55726900D03*
X196834800Y-56226900D03*
X196834800Y-56726900D03*
X196834800Y-57226900D03*
X196834800Y-57726900D03*
X196834800Y-58226900D03*
X194934800Y-58226900D03*
X194934800Y-57726900D03*
X194934800Y-57226900D03*
X194934800Y-56726900D03*
X194934800Y-56226900D03*
X194934800Y-55726900D03*
%TD*%
D17*
%TO.C,RV1*%
X232579000Y-75275000D03*
X232579000Y-65775000D03*
D18*
X235879000Y-73025000D03*
X235879000Y-70525000D03*
X235879000Y-68025000D03*
X238379000Y-73025000D03*
X238379000Y-70525000D03*
X238379000Y-68025000D03*
%TD*%
D10*
%TO.C,J4*%
X172847000Y-45847000D03*
X170307000Y-45847000D03*
D11*
X167767000Y-45847000D03*
%TD*%
D10*
%TO.C,J3*%
X232664000Y-48958500D03*
X235204000Y-48958500D03*
D11*
X237744000Y-48958500D03*
%TD*%
D19*
%TO.C,J2*%
X235292000Y-85852000D03*
X240792000Y-85852000D03*
X243192000Y-83852000D03*
%TD*%
%TO.C,J1*%
X235178000Y-58515000D03*
X240678000Y-58515000D03*
X243078000Y-56515000D03*
%TD*%
M02*
